MediumItalic.ufo
<glyph name="asterisk" format="1">
  <advance width="592"/>
  <unicode hex="002A"/>
  <outline>
    <contour>
      <point x="588" y="601" type="line"/>
      <point x="602" y="508" type="line"/>
      <point x="387" y="460" type="line"/>
      <point x="377" y="518" type="line"/>
    </contour>
    <contour>
      <point x="521" y="347" type="line"/>
      <point x="431" y="290" type="line"/>
      <point x="355" y="471" type="line"/>
      <point x="409" y="506" type="line"/>
    </contour>
    <contour>
      <point x="263" y="290" type="line"/>
      <point x="193" y="347" type="line"/>
      <point x="361" y="506" type="line"/>
      <point x="403" y="471" type="line"/>
    </contour>
    <contour>
      <point x="170" y="508" type="line"/>
      <point x="216" y="601" type="line"/>
      <point x="397" y="518" type="line"/>
      <point x="367" y="460" type="line"/>
    </contour>
    <contour>
      <point x="370" y="700" type="line"/>
      <point x="468" y="700" type="line"/>
      <point x="412" y="489" type="line"/>
      <point x="352" y="489" type="line"/>
    </contour>
  </outline>
</glyph>
<glyph name="comma" format="1">
  <advance width="314"/>
  <unicode hex="002C"/>
  <outline>
    <contour>
      <point x="156" y="110" type="line"/>
      <point x="260" y="79" type="line"/>
      <point x="99" y="-171" type="line"/>
      <point x="23" y="-149" type="line"/>
    </contour>
  </outline>
</glyph>
<glyph name="period" format="1">
  <advance width="309"/>
  <unicode hex="002E"/>
  <outline>
    <contour>
      <point x="93" y="51" type="curve" smooth="yes"/>
      <point x="100" y="89"/>
      <point x="135" y="121"/>
      <point x="175" y="121" type="curve" smooth="yes"/>
      <point x="215" y="121"/>
      <point x="241" y="89"/>
      <point x="234" y="51" type="curve" smooth="yes"/>
      <point x="227" y="13"/>
      <point x="191" y="-19"/>
      <point x="151" y="-19" type="curve" smooth="yes"/>
      <point x="111" y="-19"/>
      <point x="86" y="13"/>
    </contour>
  </outline>
</glyph>
<glyph name="zero" format="1">
  <advance width="625"/>
  <unicode hex="0030"/>
  <outline>
    <contour>
      <point x="218" y="350" type="curve" smooth="yes"/>
      <point x="192" y="200"/>
      <point x="233" y="95"/>
      <point x="329" y="95" type="curve" smooth="yes"/>
      <point x="425" y="95"/>
      <point x="505" y="200"/>
      <point x="531" y="350" type="curve" smooth="yes"/>
      <point x="557" y="500"/>
      <point x="515" y="605"/>
      <point x="419" y="605" type="curve" smooth="yes"/>
      <point x="323" y="605"/>
      <point x="244" y="500"/>
    </contour>
    <contour>
      <point x="102" y="350" type="curve" smooth="yes"/>
      <point x="140" y="566"/>
      <point x="275" y="711"/>
      <point x="437" y="711" type="curve" smooth="yes"/>
      <point x="601" y="711"/>
      <point x="685" y="566"/>
      <point x="647" y="350" type="curve" smooth="yes"/>
      <point x="609" y="134"/>
      <point x="474" y="-11"/>
      <point x="310" y="-11" type="curve" smooth="yes"/>
      <point x="148" y="-11"/>
      <point x="64" y="134"/>
    </contour>
  </outline>
</glyph>
<glyph name="one" format="1">
  <advance width="473"/>
  <unicode hex="0031"/>
  <outline>
    <contour>
      <point x="170" y="536" type="line"/>
      <point x="189" y="648" type="line"/>
      <point x="479" y="711" type="line"/>
      <point x="354" y="0" type="line"/>
      <point x="238" y="0" type="line"/>
      <point x="340" y="581" type="line"/>
    </contour>
  </outline>
</glyph>
<glyph name="three" format="1">
  <advance width="576"/>
  <unicode hex="0033"/>
  <outline>
    <contour>
      <point x="322" y="342" type="curve"/>
      <point x="334" y="406" type="line"/>
      <point x="419" y="406"/>
      <point x="478" y="456"/>
      <point x="489" y="516" type="curve" smooth="yes"/>
      <point x="499" y="572"/>
      <point x="474" y="611"/>
      <point x="411" y="611" type="curve" smooth="yes"/>
      <point x="351" y="611"/>
      <point x="297" y="570"/>
      <point x="287" y="514" type="curve"/>
      <point x="176" y="514" type="line"/>
      <point x="196" y="629"/>
      <point x="298" y="711"/>
      <point x="427" y="711" type="curve" smooth="yes"/>
      <point x="562" y="711"/>
      <point x="627" y="625"/>
      <point x="609" y="522" type="curve" smooth="yes"/>
      <point x="590" y="414"/>
      <point x="470" y="342"/>
    </contour>
    <contour>
      <point x="295" y="-12" type="curve" smooth="yes"/>
      <point x="146" y="-12"/>
      <point x="70" y="85"/>
      <point x="90" y="200" type="curve"/>
      <point x="209" y="200" type="line"/>
      <point x="197" y="133"/>
      <point x="244" y="90"/>
      <point x="315" y="90" type="curve" smooth="yes"/>
      <point x="386" y="90"/>
      <point x="441" y="130"/>
      <point x="453" y="200" type="curve" smooth="yes"/>
      <point x="466" y="275"/>
      <point x="413" y="318"/>
      <point x="318" y="318" type="curve"/>
      <point x="330" y="385" type="line"/>
      <point x="485" y="385"/>
      <point x="595" y="328"/>
      <point x="570" y="188" type="curve" smooth="yes"/>
      <point x="549" y="68"/>
      <point x="439" y="-12"/>
    </contour>
  </outline>
</glyph>
<glyph name="four" format="1">
  <advance width="629"/>
  <unicode hex="0034"/>
  <outline>
    <contour>
      <point x="42" y="134" type="line"/>
      <point x="155" y="228" type="line"/>
      <point x="460" y="228" type="line" smooth="yes"/>
      <point x="480" y="236" type="line" smooth="yes"/>
      <point x="636" y="236" type="line"/>
      <point x="618" y="134" type="line"/>
    </contour>
    <contour>
      <point x="167" y="154" type="line"/>
      <point x="42" y="134" type="line"/>
      <point x="536" y="700" type="line"/>
      <point x="607" y="700" type="line"/>
      <point x="484" y="0" type="line"/>
      <point x="363" y="0" type="line"/>
      <point x="393" y="170" type="line" smooth="yes"/>
      <point x="402" y="181" type="line" smooth="yes"/>
      <point x="456" y="488" type="line"/>
    </contour>
  </outline>
</glyph>
<glyph name="nine" format="1">
  <advance width="613"/>
  <unicode hex="0039"/>
  <outline>
    <contour>
      <point x="530" y="464" type="curve" smooth="yes"/>
      <point x="545" y="550"/>
      <point x="495" y="608"/>
      <point x="414" y="608" type="curve" smooth="yes"/>
      <point x="333" y="608"/>
      <point x="263" y="550"/>
      <point x="248" y="464" type="curve" smooth="yes"/>
      <point x="233" y="378"/>
      <point x="282" y="317"/>
      <point x="363" y="317" type="curve" smooth="yes"/>
      <point x="444" y="317"/>
      <point x="515" y="378"/>
    </contour>
    <contour>
      <point x="282" y="1" type="line"/>
      <point x="132" y="1" type="line"/>
      <point x="403" y="276" type="line"/>
      <point x="421" y="279" type="line"/>
      <point x="384" y="245"/>
      <point x="350" y="236"/>
      <point x="303" y="236" type="curve" smooth="yes"/>
      <point x="193" y="236"/>
      <point x="108" y="330"/>
      <point x="132" y="464" type="curve" smooth="yes"/>
      <point x="159" y="619"/>
      <point x="289" y="712"/>
      <point x="433" y="712" type="curve" smooth="yes"/>
      <point x="577" y="712"/>
      <point x="673" y="619"/>
      <point x="646" y="464" type="curve" smooth="yes"/>
      <point x="635" y="400"/>
      <point x="599" y="344"/>
      <point x="557" y="299" type="curve" smooth="yes"/>
    </contour>
  </outline>
</glyph>
<glyph name="semicolon" format="1">
  <advance width="355"/>
  <unicode hex="003B"/>
  <outline>
    <contour>
      <point x="197" y="426" type="curve" smooth="yes"/>
      <point x="204" y="464"/>
      <point x="240" y="496"/>
      <point x="280" y="496" type="curve" smooth="yes"/>
      <point x="320" y="496"/>
      <point x="346" y="464"/>
      <point x="339" y="426" type="curve" smooth="yes"/>
      <point x="332" y="388"/>
      <point x="296" y="356"/>
      <point x="256" y="356" type="curve" smooth="yes"/>
      <point x="216" y="356"/>
      <point x="190" y="388"/>
    </contour>
    <contour>
      <point x="165" y="110" type="line"/>
      <point x="268" y="79" type="line"/>
      <point x="108" y="-171" type="line"/>
      <point x="32" y="-149" type="line"/>
    </contour>
  </outline>
</glyph>
<glyph name="less" format="1">
  <advance width="640"/>
  <unicode hex="003C"/>
  <outline>
    <contour>
      <point x="277" y="264" type="line"/>
      <point x="595" y="116" type="line"/>
      <point x="577" y="9" type="line"/>
      <point x="105" y="226" type="line"/>
      <point x="117" y="294" type="line"/>
      <point x="665" y="511" type="line"/>
      <point x="646" y="404" type="line"/>
    </contour>
  </outline>
</glyph>
<glyph name="equal" format="1">
  <advance width="619"/>
  <unicode hex="003D"/>
  <outline>
    <contour>
      <point x="82" y="118" type="line"/>
      <point x="99" y="215" type="line"/>
      <point x="596" y="215" type="line"/>
      <point x="579" y="118" type="line"/>
    </contour>
    <contour>
      <point x="112" y="290" type="line"/>
      <point x="129" y="388" type="line"/>
      <point x="626" y="388" type="line"/>
      <point x="609" y="290" type="line"/>
    </contour>
  </outline>
</glyph>
<glyph name="greater" format="1">
  <advance width="640"/>
  <unicode hex="003E"/>
  <outline>
    <contour>
      <point x="455" y="256" type="line"/>
      <point x="136" y="404" type="line"/>
      <point x="155" y="511" type="line"/>
      <point x="627" y="294" type="line"/>
      <point x="615" y="226" type="line"/>
      <point x="67" y="9" type="line"/>
      <point x="85" y="116" type="line"/>
    </contour>
  </outline>
</glyph>
<glyph name="question" format="1">
  <advance width="585"/>
  <unicode hex="003F"/>
  <outline>
    <contour>
      <point x="205" y="48" type="curve" smooth="yes"/>
      <point x="211" y="84"/>
      <point x="248" y="114"/>
      <point x="288" y="114" type="curve" smooth="yes"/>
      <point x="328" y="114"/>
      <point x="352" y="84"/>
      <point x="346" y="48" type="curve" smooth="yes"/>
      <point x="340" y="12"/>
      <point x="305" y="-19"/>
      <point x="265" y="-19" type="curve" smooth="yes"/>
      <point x="225" y="-19"/>
      <point x="199" y="12"/>
    </contour>
    <contour>
      <point x="267" y="359" type="line"/>
      <point x="381" y="359" type="line"/>
      <point x="340" y="182" type="line"/>
      <point x="256" y="182" type="line"/>
    </contour>
    <contour>
      <point x="506" y="500" type="curve" smooth="yes"/>
      <point x="519" y="575"/>
      <point x="475" y="618"/>
      <point x="393" y="618" type="curve" smooth="yes"/>
      <point x="329" y="618"/>
      <point x="272" y="585"/>
      <point x="229" y="533" type="curve"/>
      <point x="159" y="592" type="line"/>
      <point x="228" y="667"/>
      <point x="301" y="714"/>
      <point x="420" y="714" type="curve" smooth="yes"/>
      <point x="548" y="714"/>
      <point x="638" y="626"/>
      <point x="616" y="500" type="curve" smooth="yes"/>
      <point x="593" y="368"/>
      <point x="447" y="285"/>
      <point x="332" y="285" type="curve"/>
      <point x="295" y="359" type="line"/>
      <point x="415" y="359"/>
      <point x="494" y="434"/>
    </contour>
  </outline>
</glyph>
<glyph name="at" format="1">
  <advance width="770"/>
  <unicode hex="0040"/>
  <outline>
    <contour>
      <point x="342" y="320" type="curve" smooth="yes"/>
      <point x="333" y="269"/>
      <point x="351" y="239"/>
      <point x="395" y="239" type="curve" smooth="yes"/>
      <point x="439" y="239"/>
      <point x="502" y="277"/>
      <point x="518" y="368" type="curve" smooth="yes"/>
      <point x="527" y="420"/>
      <point x="503" y="455"/>
      <point x="462" y="455" type="curve" smooth="yes"/>
      <point x="413" y="455"/>
      <point x="355" y="396"/>
    </contour>
    <contour>
      <point x="248" y="315" type="curve" smooth="yes"/>
      <point x="273" y="454"/>
      <point x="386" y="530"/>
      <point x="468" y="530" type="curve" smooth="yes"/>
      <point x="548" y="530"/>
      <point x="568" y="452"/>
      <point x="554" y="370" type="curve" smooth="yes"/>
      <point x="529" y="231"/>
      <point x="446" y="158"/>
      <point x="356" y="158" type="curve" smooth="yes"/>
      <point x="280" y="158"/>
      <point x="231" y="216"/>
    </contour>
    <contour>
      <point x="82" y="320" type="curve" smooth="yes"/>
      <point x="121" y="542"/>
      <point x="316" y="719"/>
      <point x="542" y="719" type="curve" smooth="yes"/>
      <point x="746" y="719"/>
      <point x="843" y="552"/>
      <point x="814" y="390" type="curve" smooth="yes"/>
      <point x="783" y="213"/>
      <point x="657" y="129"/>
      <point x="575" y="129" type="curve" smooth="yes"/>
      <point x="506" y="129"/>
      <point x="473" y="192"/>
      <point x="495" y="258" type="curve"/>
      <point x="498" y="280" type="line"/>
      <point x="576" y="520" type="line"/>
      <point x="674" y="520" type="line"/>
      <point x="587" y="279" type="line" smooth="yes"/>
      <point x="585" y="272"/>
      <point x="582" y="261"/>
      <point x="581" y="253" type="curve" smooth="yes"/>
      <point x="577" y="229"/>
      <point x="580" y="216"/>
      <point x="604" y="216" type="curve" smooth="yes"/>
      <point x="632" y="216"/>
      <point x="703" y="272"/>
      <point x="724" y="390" type="curve" smooth="yes"/>
      <point x="747" y="520"/>
      <point x="688" y="640"/>
      <point x="528" y="640" type="curve" smooth="yes"/>
      <point x="345" y="640"/>
      <point x="203" y="500"/>
      <point x="171" y="320" type="curve" smooth="yes"/>
      <point x="143" y="162"/>
      <point x="212" y="60"/>
      <point x="367" y="60" type="curve" smooth="yes"/>
      <point x="437" y="60"/>
      <point x="513" y="64"/>
      <point x="584" y="107" type="curve"/>
      <point x="624" y="36" type="line"/>
      <point x="558" y="1"/>
      <point x="470" y="-20"/>
      <point x="361" y="-20" type="curve" smooth="yes"/>
      <point x="142" y="-20"/>
      <point x="47" y="121"/>
    </contour>
  </outline>
</glyph>
<glyph name="B" format="1">
  <advance width="600"/>
  <unicode hex="0042"/>
  <outline>
    <contour>
      <point x="222" y="392" type="line"/>
      <point x="370" y="392" type="line" smooth="yes"/>
      <point x="505" y="392"/>
      <point x="613" y="336"/>
      <point x="589" y="202" type="curve" smooth="yes"/>
      <point x="564" y="63"/>
      <point x="449" y="0"/>
      <point x="301" y="0" type="curve" smooth="yes"/>
      <point x="153" y="0" type="line"/>
      <point x="170" y="98" type="line"/>
      <point x="311" y="98" type="line" smooth="yes"/>
      <point x="391" y="98"/>
      <point x="456" y="136"/>
      <point x="470" y="214" type="curve" smooth="yes"/>
      <point x="483" y="290"/>
      <point x="432" y="327"/>
      <point x="352" y="327" type="curve" smooth="yes"/>
      <point x="211" y="327" type="line"/>
    </contour>
    <contour>
      <point x="217" y="361" type="line"/>
      <point x="227" y="419" type="line"/>
      <point x="355" y="419" type="line" smooth="yes"/>
      <point x="420" y="419"/>
      <point x="472" y="453"/>
      <point x="482" y="511" type="curve" smooth="yes"/>
      <point x="492" y="569"/>
      <point x="452" y="602"/>
      <point x="387" y="602" type="curve" smooth="yes"/>
      <point x="259" y="602" type="line"/>
      <point x="276" y="700" type="line"/>
      <point x="412" y="700" type="line" smooth="yes"/>
      <point x="544" y="700"/>
      <point x="626" y="643"/>
      <point x="605" y="524" type="curve" smooth="yes"/>
      <point x="587" y="420"/>
      <point x="485" y="361"/>
      <point x="353" y="361" type="curve" smooth="yes"/>
    </contour>
    <contour>
      <point x="201" y="700" type="line"/>
      <point x="319" y="700" type="line"/>
      <point x="196" y="0" type="line"/>
      <point x="78" y="0" type="line"/>
    </contour>
  </outline>
</glyph>
<glyph name="D" format="1">
  <advance width="701"/>
  <unicode hex="0044"/>
  <outline>
    <contour>
      <point x="255" y="589" type="line"/>
      <point x="274" y="700" type="line"/>
      <point x="427" y="700" type="line" smooth="yes"/>
      <point x="641" y="700"/>
      <point x="763" y="562"/>
      <point x="726" y="350" type="curve"/>
      <point x="604" y="350" type="line"/>
      <point x="632" y="508"/>
      <point x="543" y="589"/>
      <point x="405" y="589" type="curve" smooth="yes"/>
    </contour>
    <contour>
      <point x="304" y="0" type="curve" smooth="yes"/>
      <point x="151" y="0" type="line"/>
      <point x="171" y="111" type="line"/>
      <point x="321" y="111" type="line" smooth="yes"/>
      <point x="459" y="111"/>
      <point x="576" y="192"/>
      <point x="604" y="350" type="curve"/>
      <point x="726" y="350" type="line"/>
      <point x="689" y="138"/>
      <point x="518" y="0"/>
    </contour>
    <contour>
      <point x="201" y="700" type="line"/>
      <point x="321" y="700" type="line"/>
      <point x="198" y="0" type="line"/>
      <point x="78" y="0" type="line"/>
    </contour>
  </outline>
</glyph>
<glyph name="J" format="1">
  <advance width="276"/>
  <unicode hex="004A"/>
  <outline>
    <contour>
      <point x="-83" y="-78" type="line"/>
      <point x="-71" y="-99"/>
      <point x="-43" y="-112"/>
      <point x="-9" y="-112" type="curve" smooth="yes"/>
      <point x="21" y="-112"/>
      <point x="62" y="-90"/>
      <point x="73" y="-26" type="curve" smooth="yes"/>
      <point x="201" y="700" type="line"/>
      <point x="322" y="700" type="line"/>
      <point x="189" y="-58" type="line" smooth="yes"/>
      <point x="168" y="-177"/>
      <point x="80" y="-228"/>
      <point x="-26" y="-228" type="curve" smooth="yes"/>
      <point x="-89" y="-228"/>
      <point x="-142" y="-197"/>
      <point x="-163" y="-175" type="curve"/>
    </contour>
  </outline>
</glyph>
<glyph name="K" format="1">
  <advance width="619"/>
  <unicode hex="004B"/>
  <outline>
    <contour>
      <point x="201" y="700" type="line"/>
      <point x="322" y="700" type="line"/>
      <point x="199" y="0" type="line"/>
      <point x="78" y="0" type="line"/>
    </contour>
    <contour>
      <point x="582" y="700" type="line"/>
      <point x="725" y="700" type="line"/>
      <point x="372" y="372" type="line"/>
      <point x="616" y="0" type="line"/>
      <point x="471" y="0" type="line"/>
      <point x="229" y="369" type="line"/>
    </contour>
  </outline>
</glyph>
<glyph name="M" format="1">
  <advance width="842"/>
  <unicode hex="004D"/>
  <outline>
    <contour>
      <point x="714" y="498" type="line"/>
      <point x="839" y="735" type="line"/>
      <point x="805" y="0" type="line"/>
      <point x="682" y="0" type="line"/>
    </contour>
    <contour>
      <point x="264" y="735" type="line"/>
      <point x="304" y="498" type="line"/>
      <point x="160" y="0" type="line"/>
      <point x="38" y="0" type="line"/>
    </contour>
    <contour>
      <point x="839" y="735" type="line"/>
      <point x="806" y="551" type="line"/>
      <point x="432" y="65" type="line"/>
      <point x="231" y="551" type="line"/>
      <point x="264" y="735" type="line"/>
      <point x="467" y="260" type="line"/>
    </contour>
  </outline>
</glyph>
<glyph name="N" format="1">
  <advance width="782"/>
  <unicode hex="004E"/>
  <outline>
    <contour>
      <point x="183" y="572" type="line"/>
      <point x="208" y="735" type="line"/>
      <point x="723" y="128" type="line"/>
      <point x="699" y="-35" type="line"/>
    </contour>
    <contour>
      <point x="712" y="700" type="line"/>
      <point x="828" y="700" type="line"/>
      <point x="699" y="-35" type="line"/>
      <point x="608" y="105" type="line"/>
    </contour>
    <contour>
      <point x="208" y="735" type="line"/>
      <point x="299" y="595" type="line"/>
      <point x="194" y="0" type="line"/>
      <point x="78" y="0" type="line"/>
    </contour>
  </outline>
</glyph>
<glyph name="S" format="1">
  <advance width="579"/>
  <unicode hex="0053"/>
  <outline>
    <contour>
      <point x="170" y="236" type="line"/>
      <point x="198" y="145"/>
      <point x="240" y="92"/>
      <point x="322" y="92" type="curve" smooth="yes"/>
      <point x="392" y="92"/>
      <point x="434" y="127"/>
      <point x="445" y="187" type="curve" smooth="yes"/>
      <point x="459" y="265"/>
      <point x="388" y="294"/>
      <point x="313" y="324" type="curve" smooth="yes"/>
      <point x="248" y="350"/>
      <point x="146" y="403"/>
      <point x="168" y="529" type="curve" smooth="yes"/>
      <point x="188" y="640"/>
      <point x="295" y="712"/>
      <point x="421" y="712" type="curve" smooth="yes"/>
      <point x="549" y="712"/>
      <point x="611" y="632"/>
      <point x="626" y="561" type="curve"/>
      <point x="524" y="504" type="line"/>
      <point x="504" y="560"/>
      <point x="474" y="606"/>
      <point x="406" y="606" type="curve" smooth="yes"/>
      <point x="344" y="606"/>
      <point x="299" y="574"/>
      <point x="290" y="523" type="curve" smooth="yes"/>
      <point x="279" y="463"/>
      <point x="351" y="434"/>
      <point x="430" y="403" type="curve" smooth="yes"/>
      <point x="508" y="373"/>
      <point x="592" y="316"/>
      <point x="570" y="192" type="curve" smooth="yes"/>
      <point x="547" y="64"/>
      <point x="448" y="-15"/>
      <point x="299" y="-15" type="curve" smooth="yes"/>
      <point x="179" y="-15"/>
      <point x="93" y="62"/>
      <point x="69" y="177" type="curve"/>
    </contour>
  </outline>
</glyph>
<glyph name="W" format="1">
  <advance width="1020"/>
  <unicode hex="0057"/>
  <outline>
    <contour>
      <point x="362" y="118" type="line"/>
      <point x="287" y="-38" type="line"/>
      <point x="131" y="700" type="line"/>
      <point x="268" y="700" type="line"/>
    </contour>
    <contour>
      <point x="719" y="-38" type="line"/>
      <point x="700" y="118" type="line"/>
      <point x="998" y="700" type="line"/>
      <point x="1135" y="700" type="line"/>
    </contour>
    <contour>
      <point x="287" y="-38" type="line"/>
      <point x="285" y="119" type="line"/>
      <point x="640" y="735" type="line"/>
      <point x="777" y="119" type="line"/>
      <point x="719" y="-38" type="line"/>
      <point x="591" y="458" type="line"/>
    </contour>
  </outline>
</glyph>
<glyph name="Y" format="1">
  <advance width="600"/>
  <unicode hex="0059"/>
  <outline>
    <contour>
      <point x="303" y="360" type="line"/>
      <point x="423" y="360" type="line"/>
      <point x="360" y="0" type="line"/>
      <point x="240" y="0" type="line"/>
    </contour>
    <contour>
      <point x="586" y="700" type="line"/>
      <point x="721" y="700" type="line"/>
      <point x="334" y="193" type="line"/>
      <point x="125" y="700" type="line"/>
      <point x="261" y="700" type="line"/>
      <point x="371" y="400" type="line"/>
    </contour>
  </outline>
</glyph>
<glyph name="Z" format="1">
  <advance width="575"/>
  <unicode hex="005A"/>
  <outline>
    <contour>
      <point x="148" y="591" type="line"/>
      <point x="167" y="700" type="line"/>
      <point x="681" y="700" type="line"/>
      <point x="220" y="106" type="line"/>
      <point x="550" y="106" type="line"/>
      <point x="531" y="0" type="line"/>
      <point x="12" y="0" type="line"/>
      <point x="471" y="591" type="line"/>
    </contour>
  </outline>
</glyph>
<glyph name="bracketright" format="1">
  <advance width="325"/>
  <unicode hex="005D"/>
  <outline>
    <contour>
      <point x="99" y="-122" type="line"/>
      <point x="241" y="682" type="line"/>
      <point x="140" y="682" type="line"/>
      <point x="158" y="780" type="line"/>
      <point x="367" y="780" type="line"/>
      <point x="190" y="-220" type="line"/>
      <point x="-19" y="-220" type="line"/>
      <point x="-2" y="-122" type="line"/>
    </contour>
  </outline>
</glyph>
<glyph name="c" format="1">
  <advance width="484"/>
  <unicode hex="0063"/>
  <outline>
    <contour>
      <point x="182" y="230" type="curve" smooth="yes"/>
      <point x="167" y="143"/>
      <point x="218" y="83"/>
      <point x="299" y="83" type="curve" smooth="yes"/>
      <point x="365" y="83"/>
      <point x="430" y="117"/>
      <point x="462" y="161" type="curve"/>
      <point x="441" y="42" type="line"/>
      <point x="403" y="9"/>
      <point x="343" y="-10"/>
      <point x="277" y="-10" type="curve" smooth="yes"/>
      <point x="135" y="-10"/>
      <point x="46" y="88"/>
      <point x="71" y="230" type="curve" smooth="yes"/>
      <point x="96" y="372"/>
      <point x="220" y="470"/>
      <point x="362" y="470" type="curve" smooth="yes"/>
      <point x="428" y="470"/>
      <point x="481" y="449"/>
      <point x="508" y="418" type="curve"/>
      <point x="487" y="299" type="line"/>
      <point x="471" y="343"/>
      <point x="414" y="377"/>
      <point x="350" y="377" type="curve" smooth="yes"/>
      <point x="269" y="377"/>
      <point x="197" y="315"/>
    </contour>
  </outline>
</glyph>
<glyph name="g" format="1">
  <advance width="586"/>
  <unicode hex="0067"/>
  <outline>
    <contour>
      <point x="38" y="-31" type="curve"/>
      <point x="145" y="-31" type="line"/>
      <point x="136" y="-93"/>
      <point x="177" y="-140"/>
      <point x="255" y="-140" type="curve" smooth="yes"/>
      <point x="323" y="-140"/>
      <point x="399" y="-94"/>
      <point x="417" y="10" type="curve" smooth="yes"/>
      <point x="496" y="460" type="line"/>
      <point x="602" y="460" type="line"/>
      <point x="523" y="10" type="line" smooth="yes"/>
      <point x="494" y="-156"/>
      <point x="367" y="-234"/>
      <point x="242" y="-234" type="curve" smooth="yes"/>
      <point x="92" y="-234"/>
      <point x="21" y="-151"/>
    </contour>
    <contour>
      <point x="75" y="232" type="curve" smooth="yes"/>
      <point x="102" y="384"/>
      <point x="221" y="470"/>
      <point x="341" y="470" type="curve" smooth="yes"/>
      <point x="456" y="470"/>
      <point x="521" y="381"/>
      <point x="495" y="232" type="curve" smooth="yes"/>
      <point x="469" y="83"/>
      <point x="372" y="-5"/>
      <point x="257" y="-5" type="curve" smooth="yes"/>
      <point x="137" y="-5"/>
      <point x="48" y="80"/>
    </contour>
    <contour>
      <point x="187" y="232" type="curve" smooth="yes"/>
      <point x="171" y="140"/>
      <point x="225" y="89"/>
      <point x="300" y="89" type="curve" smooth="yes"/>
      <point x="362" y="89"/>
      <point x="439" y="138"/>
      <point x="456" y="232" type="curve" smooth="yes"/>
      <point x="473" y="326"/>
      <point x="412" y="376"/>
      <point x="350" y="376" type="curve" smooth="yes"/>
      <point x="275" y="376"/>
      <point x="203" y="324"/>
    </contour>
  </outline>
</glyph>
<glyph name="h" format="1">
  <advance width="542"/>
  <unicode hex="0068"/>
  <outline>
    <contour>
      <point x="316" y="780" type="line"/>
      <point x="178" y="0" type="line"/>
      <point x="69" y="0" type="line"/>
      <point x="207" y="780" type="line"/>
    </contour>
    <contour>
      <point x="414" y="280" type="line" smooth="yes"/>
      <point x="426" y="347"/>
      <point x="407" y="383"/>
      <point x="348" y="383" type="curve" smooth="yes"/>
      <point x="287" y="383"/>
      <point x="238" y="341"/>
      <point x="227" y="280" type="curve"/>
      <point x="201" y="280" type="line"/>
      <point x="220" y="389"/>
      <point x="297" y="473"/>
      <point x="399" y="473" type="curve" smooth="yes"/>
      <point x="501" y="473"/>
      <point x="546" y="411"/>
      <point x="526" y="295" type="curve" smooth="yes"/>
      <point x="474" y="0" type="line"/>
      <point x="365" y="0" type="line"/>
    </contour>
  </outline>
</glyph>
<glyph name="i" format="1">
  <advance width="266"/>
  <unicode hex="0069"/>
  <outline>
    <contour>
      <point x="178" y="643" type="curve" smooth="yes"/>
      <point x="185" y="680"/>
      <point x="220" y="709"/>
      <point x="258" y="709" type="curve" smooth="yes"/>
      <point x="296" y="709"/>
      <point x="322" y="680"/>
      <point x="315" y="643" type="curve" smooth="yes"/>
      <point x="308" y="606"/>
      <point x="273" y="577"/>
      <point x="235" y="577" type="curve" smooth="yes"/>
      <point x="197" y="577"/>
      <point x="171" y="606"/>
    </contour>
    <contour>
      <point x="161" y="460" type="line"/>
      <point x="267" y="460" type="line"/>
      <point x="186" y="0" type="line"/>
      <point x="80" y="0" type="line"/>
    </contour>
  </outline>
</glyph>
<glyph name="p" format="1">
  <advance width="588"/>
  <unicode hex="0070"/>
  <outline>
    <contour>
      <point x="135" y="-220" type="line"/>
      <point x="26" y="-220" type="line"/>
      <point x="146" y="460" type="line"/>
      <point x="255" y="460" type="line"/>
    </contour>
    <contour>
      <point x="596" y="230" type="curve" smooth="yes"/>
      <point x="569" y="76"/>
      <point x="449" y="-12"/>
      <point x="329" y="-12" type="curve" smooth="yes"/>
      <point x="211" y="-12"/>
      <point x="153" y="81"/>
      <point x="179" y="230" type="curve" smooth="yes"/>
      <point x="205" y="379"/>
      <point x="296" y="472"/>
      <point x="414" y="472" type="curve" smooth="yes"/>
      <point x="534" y="472"/>
      <point x="623" y="384"/>
    </contour>
    <contour>
      <point x="484" y="230" type="curve" smooth="yes"/>
      <point x="500" y="322"/>
      <point x="445" y="374"/>
      <point x="370" y="374" type="curve" smooth="yes"/>
      <point x="308" y="374"/>
      <point x="232" y="324"/>
      <point x="215" y="230" type="curve" smooth="yes"/>
      <point x="198" y="136"/>
      <point x="257" y="86"/>
      <point x="319" y="86" type="curve" smooth="yes"/>
      <point x="394" y="86"/>
      <point x="468" y="138"/>
    </contour>
  </outline>
</glyph>
<glyph name="s" format="1">
  <advance width="422"/>
  <unicode hex="0073"/>
  <outline>
    <contour>
      <point x="115" y="166" type="line"/>
      <point x="150" y="114"/>
      <point x="198" y="78"/>
      <point x="238" y="78" type="curve" smooth="yes"/>
      <point x="276" y="78"/>
      <point x="303" y="93"/>
      <point x="308" y="124" type="curve" smooth="yes"/>
      <point x="315" y="164"/>
      <point x="270" y="183"/>
      <point x="221" y="203" type="curve" smooth="yes"/>
      <point x="161" y="228"/>
      <point x="100" y="257"/>
      <point x="115" y="344" type="curve" smooth="yes"/>
      <point x="129" y="424"/>
      <point x="211" y="470"/>
      <point x="294" y="470" type="curve" smooth="yes"/>
      <point x="369" y="470"/>
      <point x="429" y="435"/>
      <point x="456" y="388" type="curve"/>
      <point x="385" y="326" type="line"/>
      <point x="360" y="359"/>
      <point x="321" y="383"/>
      <point x="284" y="383" type="curve" smooth="yes"/>
      <point x="247" y="383"/>
      <point x="220" y="371"/>
      <point x="215" y="343" type="curve" smooth="yes"/>
      <point x="208" y="305"/>
      <point x="267" y="292"/>
      <point x="316" y="271" type="curve" smooth="yes"/>
      <point x="376" y="245"/>
      <point x="432" y="211"/>
      <point x="418" y="130" type="curve" smooth="yes"/>
      <point x="401" y="33"/>
      <point x="324" y="-14"/>
      <point x="227" y="-14" type="curve" smooth="yes"/>
      <point x="138" y="-14"/>
      <point x="72" y="37"/>
      <point x="42" y="105" type="curve"/>
    </contour>
  </outline>
</glyph>
<glyph name="z" format="1">
  <advance width="485"/>
  <unicode hex="007A"/>
  <outline>
    <contour>
      <point x="345" y="360" type="line"/>
      <point x="113" y="360" type="line"/>
      <point x="131" y="460" type="line"/>
      <point x="551" y="460" type="line"/>
      <point x="225" y="100" type="line"/>
      <point x="463" y="100" type="line"/>
      <point x="445" y="0" type="line"/>
      <point x="15" y="0" type="line"/>
    </contour>
  </outline>
</glyph>
<glyph name="exclamdown" format="1">
  <advance width="317"/>
  <unicode hex="00A1"/>
  <outline>
    <contour>
      <point x="184" y="-239" type="line"/>
      <point x="49" y="-239" type="line"/>
      <point x="160" y="249" type="line"/>
      <point x="245" y="249" type="line"/>
    </contour>
    <contour>
      <point x="303" y="412" type="curve" smooth="yes"/>
      <point x="296" y="374"/>
      <point x="260" y="345"/>
      <point x="220" y="345" type="curve" smooth="yes"/>
      <point x="180" y="345"/>
      <point x="154" y="374"/>
      <point x="161" y="412" type="curve" smooth="yes"/>
      <point x="168" y="450"/>
      <point x="204" y="480"/>
      <point x="244" y="480" type="curve" smooth="yes"/>
      <point x="284" y="480"/>
      <point x="310" y="450"/>
    </contour>
  </outline>
</glyph>
<glyph name="brokenbar" format="1">
  <advance width="305"/>
  <unicode hex="00A6"/>
  <outline>
    <contour>
      <point x="223" y="695" type="line"/>
      <point x="329" y="695" type="line"/>
      <point x="284" y="445" type="line"/>
      <point x="178" y="445" type="line"/>
    </contour>
    <contour>
      <point x="251" y="255" type="line"/>
      <point x="207" y="5" type="line"/>
      <point x="101" y="5" type="line"/>
      <point x="145" y="255" type="line"/>
    </contour>
  </outline>
</glyph>
<glyph name="section" format="1">
  <advance width="475"/>
  <unicode hex="00A7"/>
  <outline>
    <contour>
      <point x="446" y="567" type="line"/>
      <point x="429" y="602"/>
      <point x="386" y="620"/>
      <point x="352" y="620" type="curve" smooth="yes"/>
      <point x="314" y="620"/>
      <point x="288" y="607"/>
      <point x="283" y="581" type="curve" smooth="yes"/>
      <point x="277" y="549"/>
      <point x="329" y="530"/>
      <point x="378" y="511" type="curve" smooth="yes"/>
      <point x="444" y="486"/>
      <point x="497" y="443"/>
      <point x="485" y="373" type="curve" smooth="yes"/>
      <point x="467" y="272"/>
      <point x="378" y="236"/>
      <point x="275" y="236" type="curve"/>
      <point x="281" y="273" type="line"/>
      <point x="326" y="275"/>
      <point x="370" y="316"/>
      <point x="377" y="356" type="curve" smooth="yes"/>
      <point x="386" y="408"/>
      <point x="331" y="426"/>
      <point x="282" y="447" type="curve" smooth="yes"/>
      <point x="225" y="471"/>
      <point x="164" y="505"/>
      <point x="178" y="585" type="curve" smooth="yes"/>
      <point x="193" y="669"/>
      <point x="285" y="716"/>
      <point x="365" y="716" type="curve" smooth="yes"/>
      <point x="441" y="716"/>
      <point x="510" y="678"/>
      <point x="524" y="631" type="curve"/>
    </contour>
    <contour>
      <point x="138" y="166" type="line"/>
      <point x="155" y="112"/>
      <point x="204" y="80"/>
      <point x="254" y="80" type="curve" smooth="yes"/>
      <point x="299" y="80"/>
      <point x="327" y="96"/>
      <point x="333" y="128" type="curve" smooth="yes"/>
      <point x="340" y="170"/>
      <point x="297" y="188"/>
      <point x="246" y="207" type="curve" smooth="yes"/>
      <point x="182" y="230"/>
      <point x="117" y="272"/>
      <point x="131" y="349" type="curve" smooth="yes"/>
      <point x="146" y="433"/>
      <point x="229" y="480"/>
      <point x="343" y="480" type="curve"/>
      <point x="337" y="449" type="line"/>
      <point x="282" y="431"/>
      <point x="246" y="410"/>
      <point x="239" y="369" type="curve" smooth="yes"/>
      <point x="228" y="305"/>
      <point x="295" y="292"/>
      <point x="342" y="271" type="curve" smooth="yes"/>
      <point x="402" y="244"/>
      <point x="457" y="202"/>
      <point x="444" y="130" type="curve" smooth="yes"/>
      <point x="426" y="28"/>
      <point x="336" y="-15"/>
      <point x="237" y="-15" type="curve" smooth="yes"/>
      <point x="142" y="-15"/>
      <point x="72" y="36"/>
      <point x="58" y="104" type="curve"/>
    </contour>
  </outline>
</glyph>
<glyph name="ordfeminine" format="1">
  <advance width="251"/>
  <unicode hex="00AA"/>
  <outline>
    <contour>
      <point x="168" y="531" type="curve" smooth="yes"/>
      <point x="164" y="511"/>
      <point x="173" y="496"/>
      <point x="204" y="496" type="curve" smooth="yes"/>
      <point x="235" y="496"/>
      <point x="268" y="511"/>
      <point x="275" y="551" type="curve"/>
      <point x="279" y="525" type="line"/>
      <point x="271" y="481"/>
      <point x="228" y="455"/>
      <point x="180" y="455" type="curve" smooth="yes"/>
      <point x="136" y="455"/>
      <point x="104" y="482"/>
      <point x="112" y="530" type="curve" smooth="yes"/>
      <point x="120" y="577"/>
      <point x="173" y="609"/>
      <point x="225" y="609" type="curve" smooth="yes"/>
      <point x="265" y="609"/>
      <point x="291" y="591"/>
      <point x="297" y="582" type="curve"/>
      <point x="291" y="552" type="line"/>
      <point x="274" y="567"/>
      <point x="255" y="575"/>
      <point x="227" y="575" type="curve" smooth="yes"/>
      <point x="196" y="575"/>
      <point x="172" y="555"/>
    </contour>
    <contour>
      <point x="174" y="638" type="curve"/>
      <point x="160" y="678" type="line"/>
      <point x="183" y="690"/>
      <point x="218" y="705"/>
      <point x="260" y="705" type="curve" smooth="yes"/>
      <point x="316" y="705"/>
      <point x="351" y="679"/>
      <point x="343" y="633" type="curve" smooth="yes"/>
      <point x="312" y="460" type="line"/>
      <point x="259" y="460" type="line"/>
      <point x="288" y="625" type="line" smooth="yes"/>
      <point x="292" y="647"/>
      <point x="274" y="660"/>
      <point x="249" y="660" type="curve" smooth="yes"/>
      <point x="216" y="660"/>
      <point x="186" y="646"/>
    </contour>
  </outline>
</glyph>
<glyph name="guillemotleft" format="1">
  <advance width="522"/>
  <unicode hex="00AB"/>
  <outline>
    <contour>
      <point x="159" y="235" type="line"/>
      <point x="80" y="255" type="line"/>
      <point x="308" y="498" type="line"/>
      <point x="366" y="445" type="line"/>
    </contour>
    <contour>
      <point x="80" y="255" type="line"/>
      <point x="168" y="285" type="line"/>
      <point x="299" y="65" type="line"/>
      <point x="222" y="12" type="line"/>
    </contour>
    <contour>
      <point x="336" y="235" type="line"/>
      <point x="257" y="255" type="line"/>
      <point x="486" y="498" type="line"/>
      <point x="543" y="445" type="line"/>
    </contour>
    <contour>
      <point x="257" y="255" type="line"/>
      <point x="345" y="285" type="line"/>
      <point x="476" y="65" type="line"/>
      <point x="400" y="12" type="line"/>
    </contour>
  </outline>
</glyph>
<glyph name="logicalnot" format="1">
  <advance width="632"/>
  <unicode hex="00AC"/>
  <outline>
    <contour>
      <point x="116" y="289" type="line"/>
      <point x="133" y="386" type="line"/>
      <point x="635" y="386" type="line"/>
      <point x="618" y="289" type="line"/>
    </contour>
    <contour>
      <point x="546" y="375" type="line"/>
      <point x="633" y="375" type="line"/>
      <point x="598" y="175" type="line"/>
      <point x="511" y="175" type="line"/>
    </contour>
  </outline>
</glyph>
<glyph name="registered" format="1">
  <advance width="800"/>
  <unicode hex="00AE"/>
  <outline>
    <contour>
      <point x="421" y="345" type="line"/>
      <point x="493" y="345" type="line"/>
      <point x="595" y="150" type="line"/>
      <point x="510" y="150" type="line"/>
    </contour>
    <contour>
      <point x="367" y="570" type="line"/>
      <point x="438" y="570" type="line"/>
      <point x="363" y="150" type="line"/>
      <point x="292" y="150" type="line"/>
    </contour>
    <contour>
      <point x="398" y="508" type="line"/>
      <point x="409" y="570" type="line"/>
      <point x="497" y="570" type="line" smooth="yes"/>
      <point x="589" y="570"/>
      <point x="638" y="518"/>
      <point x="625" y="442" type="curve" smooth="yes"/>
      <point x="611" y="364"/>
      <point x="543" y="312"/>
      <point x="451" y="312" type="curve" smooth="yes"/>
      <point x="363" y="312" type="line"/>
      <point x="373" y="370" type="line"/>
      <point x="457" y="370" type="line" smooth="yes"/>
      <point x="506" y="370"/>
      <point x="544" y="395"/>
      <point x="552" y="440" type="curve" smooth="yes"/>
      <point x="560" y="485"/>
      <point x="531" y="509"/>
      <point x="482" y="509" type="curve" smooth="yes"/>
    </contour>
    <contour>
      <point x="157" y="350" type="curve" smooth="yes"/>
      <point x="126" y="172"/>
      <point x="234" y="40"/>
      <point x="407" y="40" type="curve" smooth="yes"/>
      <point x="580" y="40"/>
      <point x="736" y="172"/>
      <point x="767" y="350" type="curve" smooth="yes"/>
      <point x="798" y="528"/>
      <point x="689" y="660"/>
      <point x="516" y="660" type="curve" smooth="yes"/>
      <point x="343" y="660"/>
      <point x="188" y="528"/>
    </contour>
    <contour>
      <point x="102" y="350" type="curve" smooth="yes"/>
      <point x="139" y="559"/>
      <point x="321" y="710"/>
      <point x="525" y="710" type="curve" smooth="yes"/>
      <point x="729" y="710"/>
      <point x="859" y="559"/>
      <point x="822" y="350" type="curve" smooth="yes"/>
      <point x="785" y="141"/>
      <point x="602" y="-10"/>
      <point x="398" y="-10" type="curve" smooth="yes"/>
      <point x="194" y="-10"/>
      <point x="65" y="141"/>
    </contour>
  </outline>
</glyph>
<glyph name="degree" format="1">
  <advance width="285"/>
  <unicode hex="00B0"/>
  <outline>
    <contour>
      <point x="125" y="599" type="curve" smooth="yes"/>
      <point x="138" y="670"/>
      <point x="198" y="720"/>
      <point x="269" y="720" type="curve" smooth="yes"/>
      <point x="340" y="720"/>
      <point x="386" y="670"/>
      <point x="373" y="599" type="curve" smooth="yes"/>
      <point x="360" y="528"/>
      <point x="297" y="478"/>
      <point x="226" y="478" type="curve" smooth="yes"/>
      <point x="155" y="478"/>
      <point x="112" y="528"/>
    </contour>
    <contour>
      <point x="178" y="599" type="curve" smooth="yes"/>
      <point x="170" y="556"/>
      <point x="195" y="526"/>
      <point x="235" y="526" type="curve" smooth="yes"/>
      <point x="275" y="526"/>
      <point x="311" y="556"/>
      <point x="319" y="599" type="curve" smooth="yes"/>
      <point x="327" y="642"/>
      <point x="300" y="672"/>
      <point x="260" y="672" type="curve" smooth="yes"/>
      <point x="220" y="672"/>
      <point x="186" y="642"/>
    </contour>
  </outline>
</glyph>
<glyph name="uni00B2" format="1">
  <advance width="371"/>
  <unicode hex="00B2"/>
  <outline>
    <contour>
      <point x="75" y="282" type="line"/>
      <point x="305" y="487" type="line" smooth="yes"/>
      <point x="341" y="519"/>
      <point x="363" y="546"/>
      <point x="369" y="580" type="curve" smooth="yes"/>
      <point x="375" y="613"/>
      <point x="359" y="646"/>
      <point x="313" y="646" type="curve" smooth="yes"/>
      <point x="265" y="646"/>
      <point x="226" y="610"/>
      <point x="216" y="554" type="curve"/>
      <point x="146" y="554" type="line"/>
      <point x="162" y="643"/>
      <point x="229" y="710"/>
      <point x="325" y="710" type="curve" smooth="yes"/>
      <point x="422" y="710"/>
      <point x="453" y="639"/>
      <point x="442" y="579" type="curve" smooth="yes"/>
      <point x="434" y="535"/>
      <point x="404" y="497"/>
      <point x="364" y="464" type="curve" smooth="yes"/>
      <point x="224" y="348" type="line"/>
      <point x="406" y="348" type="line"/>
      <point x="395" y="282" type="line"/>
    </contour>
  </outline>
</glyph>
<glyph name="periodcentered" format="1">
  <advance width="309"/>
  <unicode hex="00B7"/>
  <outline>
    <contour>
      <point x="128" y="251" type="curve" smooth="yes"/>
      <point x="135" y="289"/>
      <point x="171" y="321"/>
      <point x="211" y="321" type="curve" smooth="yes"/>
      <point x="251" y="321"/>
      <point x="276" y="289"/>
      <point x="269" y="251" type="curve" smooth="yes"/>
      <point x="262" y="213"/>
      <point x="226" y="181"/>
      <point x="186" y="181" type="curve" smooth="yes"/>
      <point x="146" y="181"/>
      <point x="121" y="213"/>
    </contour>
  </outline>
</glyph>
<glyph name="cedilla" format="1">
  <advance width="367"/>
  <unicode hex="00B8"/>
  <outline>
    <contour>
      <point x="202" y="64" type="line"/>
      <point x="283" y="63" type="line"/>
      <point x="179" y="-64" type="line"/>
      <point x="85" y="-114" type="line"/>
    </contour>
    <contour>
      <point x="275" y="-135" type="curve"/>
      <point x="203" y="-132" type="line"/>
      <point x="207" y="-107"/>
      <point x="188" y="-97"/>
      <point x="155" y="-97" type="curve" smooth="yes"/>
      <point x="145" y="-97"/>
      <point x="116" y="-98"/>
      <point x="85" y="-114" type="curve"/>
      <point x="142" y="-72" type="line"/>
      <point x="172" y="-52"/>
      <point x="190" y="-52"/>
      <point x="210" y="-52" type="curve" smooth="yes"/>
      <point x="246" y="-52"/>
      <point x="285" y="-79"/>
    </contour>
    <contour>
      <point x="275" y="-135" type="line"/>
      <point x="263" y="-201"/>
      <point x="199" y="-235"/>
      <point x="141" y="-235" type="curve" smooth="yes"/>
      <point x="97" y="-235"/>
      <point x="68" y="-225"/>
      <point x="37" y="-196" type="curve"/>
      <point x="84" y="-145" type="line"/>
      <point x="103" y="-162"/>
      <point x="120" y="-170"/>
      <point x="144" y="-170" type="curve" smooth="yes"/>
      <point x="178" y="-170"/>
      <point x="199" y="-156"/>
      <point x="203" y="-132" type="curve"/>
    </contour>
  </outline>
</glyph>
<glyph name="uni00B9" format="1">
  <advance width="475"/>
  <unicode hex="00B9"/>
  <outline>
    <contour>
      <point x="249" y="596" type="line"/>
      <point x="261" y="663" type="line"/>
      <point x="436" y="701" type="line"/>
      <point x="360" y="274" type="line"/>
      <point x="290" y="274" type="line"/>
      <point x="352" y="623" type="line"/>
    </contour>
  </outline>
</glyph>
<glyph name="ordmasculine" format="1">
  <advance width="278"/>
  <unicode hex="00BA"/>
  <outline>
    <contour>
      <point x="122" y="580" type="curve" smooth="yes"/>
      <point x="135" y="651"/>
      <point x="195" y="700"/>
      <point x="266" y="700" type="curve" smooth="yes"/>
      <point x="337" y="700"/>
      <point x="383" y="651"/>
      <point x="370" y="580" type="curve" smooth="yes"/>
      <point x="357" y="509"/>
      <point x="295" y="460"/>
      <point x="224" y="460" type="curve" smooth="yes"/>
      <point x="153" y="460"/>
      <point x="109" y="509"/>
    </contour>
    <contour>
      <point x="176" y="580" type="curve" smooth="yes"/>
      <point x="168" y="537"/>
      <point x="194" y="508"/>
      <point x="233" y="508" type="curve" smooth="yes"/>
      <point x="272" y="508"/>
      <point x="306" y="537"/>
      <point x="314" y="580" type="curve" smooth="yes"/>
      <point x="322" y="623"/>
      <point x="297" y="652"/>
      <point x="258" y="652" type="curve" smooth="yes"/>
      <point x="219" y="652"/>
      <point x="184" y="623"/>
    </contour>
  </outline>
</glyph>
<glyph name="guillemotright" format="1">
  <advance width="522"/>
  <unicode hex="00BB"/>
  <outline>
    <contour>
      <point x="453" y="275" type="line"/>
      <point x="533" y="255" type="line"/>
      <point x="304" y="12" type="line"/>
      <point x="246" y="65" type="line"/>
    </contour>
    <contour>
      <point x="533" y="255" type="line"/>
      <point x="445" y="225" type="line"/>
      <point x="313" y="445" type="line"/>
      <point x="390" y="498" type="line"/>
    </contour>
    <contour>
      <point x="276" y="275" type="line"/>
      <point x="355" y="255" type="line"/>
      <point x="127" y="12" type="line"/>
      <point x="69" y="65" type="line"/>
    </contour>
    <contour>
      <point x="355" y="255" type="line"/>
      <point x="268" y="225" type="line"/>
      <point x="136" y="445" type="line"/>
      <point x="213" y="498" type="line"/>
    </contour>
  </outline>
</glyph>
<glyph name="onehalf" format="1">
  <advance width="849"/>
  <unicode hex="00BD"/>
  <outline>
    <contour>
      <point x="746" y="700" type="line"/>
      <point x="823" y="700" type="line"/>
      <point x="180" y="0" type="line"/>
      <point x="103" y="0" type="line"/>
    </contour>
    <contour>
      <point x="133" y="596" type="line"/>
      <point x="145" y="663" type="line"/>
      <point x="319" y="701" type="line"/>
      <point x="243" y="274" type="line"/>
      <point x="173" y="274" type="line"/>
      <point x="235" y="623" type="line"/>
    </contour>
    <contour>
      <point x="498" y="2" type="line"/>
      <point x="728" y="207" type="line" smooth="yes"/>
      <point x="764" y="239"/>
      <point x="787" y="266"/>
      <point x="793" y="300" type="curve" smooth="yes"/>
      <point x="799" y="333"/>
      <point x="783" y="366"/>
      <point x="737" y="366" type="curve" smooth="yes"/>
      <point x="689" y="366"/>
      <point x="649" y="330"/>
      <point x="639" y="274" type="curve"/>
      <point x="568" y="274" type="line"/>
      <point x="584" y="363"/>
      <point x="653" y="430"/>
      <point x="749" y="430" type="curve" smooth="yes"/>
      <point x="846" y="430"/>
      <point x="877" y="359"/>
      <point x="866" y="299" type="curve" smooth="yes"/>
      <point x="858" y="255"/>
      <point x="827" y="217"/>
      <point x="787" y="184" type="curve" smooth="yes"/>
      <point x="648" y="68" type="line"/>
      <point x="830" y="68" type="line"/>
      <point x="818" y="2" type="line"/>
    </contour>
  </outline>
</glyph>
<glyph name="threequarters" format="1">
  <advance width="843"/>
  <unicode hex="00BE"/>
  <outline>
    <contour>
      <point x="812" y="700" type="line"/>
      <point x="889" y="700" type="line"/>
      <point x="246" y="0" type="line"/>
      <point x="169" y="0" type="line"/>
    </contour>
    <contour>
      <point x="238" y="486" type="curve"/>
      <point x="244" y="524" type="line"/>
      <point x="295" y="524"/>
      <point x="332" y="554"/>
      <point x="338" y="590" type="curve" smooth="yes"/>
      <point x="344" y="624"/>
      <point x="329" y="647"/>
      <point x="291" y="647" type="curve" smooth="yes"/>
      <point x="255" y="647"/>
      <point x="223" y="622"/>
      <point x="217" y="588" type="curve"/>
      <point x="150" y="588" type="line"/>
      <point x="162" y="657"/>
      <point x="225" y="707"/>
      <point x="302" y="707" type="curve" smooth="yes"/>
      <point x="383" y="707"/>
      <point x="422" y="654"/>
      <point x="411" y="593" type="curve" smooth="yes"/>
      <point x="400" y="529"/>
      <point x="326" y="486"/>
    </contour>
    <contour>
      <point x="222" y="272" type="curve" smooth="yes"/>
      <point x="133" y="272"/>
      <point x="87" y="331"/>
      <point x="99" y="400" type="curve"/>
      <point x="171" y="400" type="line"/>
      <point x="164" y="359"/>
      <point x="191" y="334"/>
      <point x="234" y="334" type="curve" smooth="yes"/>
      <point x="277" y="334"/>
      <point x="310" y="358"/>
      <point x="317" y="400" type="curve" smooth="yes"/>
      <point x="325" y="445"/>
      <point x="292" y="470"/>
      <point x="235" y="470" type="curve"/>
      <point x="242" y="511" type="line"/>
      <point x="335" y="511"/>
      <point x="402" y="476"/>
      <point x="387" y="392" type="curve" smooth="yes"/>
      <point x="374" y="320"/>
      <point x="308" y="272"/>
    </contour>
    <contour>
      <point x="479" y="80" type="line"/>
      <point x="547" y="136" type="line"/>
      <point x="731" y="136" type="line" smooth="yes"/>
      <point x="742" y="142" type="line" smooth="yes"/>
      <point x="836" y="142" type="line"/>
      <point x="825" y="80" type="line"/>
    </contour>
    <contour>
      <point x="554" y="92" type="line"/>
      <point x="479" y="80" type="line"/>
      <point x="776" y="420" type="line"/>
      <point x="819" y="420" type="line"/>
      <point x="745" y="0" type="line"/>
      <point x="672" y="0" type="line"/>
      <point x="690" y="102" type="line" smooth="yes"/>
      <point x="696" y="108" type="line" smooth="yes"/>
      <point x="729" y="294" type="line"/>
    </contour>
  </outline>
</glyph>
<glyph name="questiondown" format="1">
  <advance width="585"/>
  <unicode hex="00BF"/>
  <outline>
    <contour>
      <point x="503" y="652" type="curve" smooth="yes"/>
      <point x="497" y="616"/>
      <point x="461" y="586"/>
      <point x="421" y="586" type="curve" smooth="yes"/>
      <point x="381" y="586"/>
      <point x="356" y="616"/>
      <point x="362" y="652" type="curve" smooth="yes"/>
      <point x="368" y="688"/>
      <point x="405" y="719"/>
      <point x="445" y="719" type="curve" smooth="yes"/>
      <point x="485" y="719"/>
      <point x="509" y="688"/>
    </contour>
    <contour>
      <point x="442" y="341" type="line"/>
      <point x="326" y="341" type="line"/>
      <point x="367" y="518" type="line"/>
      <point x="453" y="518" type="line"/>
    </contour>
    <contour>
      <point x="202" y="200" type="curve" smooth="yes"/>
      <point x="189" y="125"/>
      <point x="232" y="82"/>
      <point x="314" y="82" type="curve" smooth="yes"/>
      <point x="378" y="82"/>
      <point x="436" y="115"/>
      <point x="479" y="167" type="curve"/>
      <point x="549" y="108" type="line"/>
      <point x="480" y="33"/>
      <point x="407" y="-14"/>
      <point x="288" y="-14" type="curve" smooth="yes"/>
      <point x="160" y="-14"/>
      <point x="71" y="74"/>
      <point x="93" y="200" type="curve" smooth="yes"/>
      <point x="116" y="332"/>
      <point x="261" y="415"/>
      <point x="376" y="415" type="curve"/>
      <point x="413" y="341" type="line"/>
      <point x="293" y="341"/>
      <point x="214" y="266"/>
    </contour>
  </outline>
</glyph>
<glyph name="Atilde" format="1">
  <advance width="690"/>
  <unicode hex="00C3"/>
  <outline>
    <contour>
      <point x="194" y="180" type="line"/>
      <point x="233" y="280" type="line"/>
      <point x="559" y="280" type="line"/>
      <point x="564" y="180" type="line"/>
    </contour>
    <contour>
      <point x="434" y="502" type="line"/>
      <point x="278" y="245" type="line"/>
      <point x="272" y="219" type="line"/>
      <point x="136" y="0" type="line"/>
      <point x="2" y="0" type="line"/>
      <point x="475" y="739" type="line"/>
      <point x="688" y="0" type="line"/>
      <point x="554" y="0" type="line"/>
      <point x="497" y="213" type="line"/>
      <point x="499" y="242" type="line"/>
    </contour>
    <contour>
      <point x="315" y="832" type="line"/>
      <point x="334" y="881"/>
      <point x="388" y="919"/>
      <point x="440" y="919" type="curve" smooth="yes"/>
      <point x="506" y="919"/>
      <point x="505" y="870"/>
      <point x="560" y="870" type="curve" smooth="yes"/>
      <point x="582" y="870"/>
      <point x="602" y="888"/>
      <point x="628" y="920" type="curve"/>
      <point x="675" y="865" type="line"/>
      <point x="652" y="828"/>
      <point x="599" y="787"/>
      <point x="544" y="787" type="curve" smooth="yes"/>
      <point x="489" y="787"/>
      <point x="471" y="836"/>
      <point x="424" y="836" type="curve" smooth="yes"/>
      <point x="384" y="836"/>
      <point x="369" y="800"/>
      <point x="366" y="785" type="curve"/>
    </contour>
  </outline>
</glyph>
<glyph name="Aring" format="1">
  <advance width="690"/>
  <unicode hex="00C5"/>
  <outline>
    <contour>
      <point x="194" y="180" type="line"/>
      <point x="233" y="280" type="line"/>
      <point x="559" y="280" type="line"/>
      <point x="564" y="180" type="line"/>
    </contour>
    <contour>
      <point x="434" y="502" type="line"/>
      <point x="278" y="245" type="line"/>
      <point x="272" y="219" type="line"/>
      <point x="136" y="0" type="line"/>
      <point x="2" y="0" type="line"/>
      <point x="475" y="739" type="line"/>
      <point x="688" y="0" type="line"/>
      <point x="554" y="0" type="line"/>
      <point x="497" y="213" type="line"/>
      <point x="499" y="242" type="line"/>
    </contour>
    <contour>
      <point x="375" y="799" type="curve" smooth="yes"/>
      <point x="386" y="863"/>
      <point x="446" y="905"/>
      <point x="505" y="905" type="curve" smooth="yes"/>
      <point x="564" y="905"/>
      <point x="608" y="863"/>
      <point x="597" y="799" type="curve" smooth="yes"/>
      <point x="586" y="735"/>
      <point x="526" y="693"/>
      <point x="467" y="693" type="curve" smooth="yes"/>
      <point x="408" y="693"/>
      <point x="364" y="735"/>
    </contour>
    <contour>
      <point x="437" y="799" type="curve" smooth="yes"/>
      <point x="431" y="767"/>
      <point x="452" y="748"/>
      <point x="477" y="748" type="curve" smooth="yes"/>
      <point x="502" y="748"/>
      <point x="529" y="767"/>
      <point x="535" y="799" type="curve" smooth="yes"/>
      <point x="541" y="831"/>
      <point x="520" y="850"/>
      <point x="495" y="850" type="curve" smooth="yes"/>
      <point x="470" y="850"/>
      <point x="443" y="831"/>
    </contour>
  </outline>
</glyph>
<glyph name="Ccedilla" format="1">
  <advance width="691"/>
  <unicode hex="00C7"/>
  <outline>
    <contour>
      <point x="228" y="350" type="curve" smooth="yes"/>
      <point x="202" y="201"/>
      <point x="295" y="103"/>
      <point x="423" y="103" type="curve" smooth="yes"/>
      <point x="522" y="103"/>
      <point x="602" y="145"/>
      <point x="660" y="202" type="curve"/>
      <point x="635" y="62" type="line"/>
      <point x="569" y="14"/>
      <point x="501" y="-12"/>
      <point x="399" y="-12" type="curve" smooth="yes"/>
      <point x="193" y="-12"/>
      <point x="62" y="137"/>
      <point x="100" y="350" type="curve" smooth="yes"/>
      <point x="138" y="563"/>
      <point x="321" y="712"/>
      <point x="527" y="712" type="curve" smooth="yes"/>
      <point x="629" y="712"/>
      <point x="686" y="686"/>
      <point x="736" y="638" type="curve"/>
      <point x="712" y="498" type="line"/>
      <point x="674" y="555"/>
      <point x="609" y="597"/>
      <point x="510" y="597" type="curve" smooth="yes"/>
      <point x="382" y="597"/>
      <point x="254" y="499"/>
    </contour>
    <contour>
      <point x="396" y="58" type="line"/>
      <point x="477" y="57" type="line"/>
      <point x="374" y="-70" type="line"/>
      <point x="279" y="-120" type="line"/>
    </contour>
    <contour>
      <point x="469" y="-141" type="curve"/>
      <point x="398" y="-138" type="line"/>
      <point x="402" y="-113"/>
      <point x="382" y="-103"/>
      <point x="349" y="-103" type="curve" smooth="yes"/>
      <point x="339" y="-103"/>
      <point x="310" y="-104"/>
      <point x="279" y="-120" type="curve"/>
      <point x="336" y="-79" type="line"/>
      <point x="366" y="-59"/>
      <point x="384" y="-58"/>
      <point x="404" y="-58" type="curve" smooth="yes"/>
      <point x="440" y="-58"/>
      <point x="479" y="-85"/>
    </contour>
    <contour>
      <point x="469" y="-141" type="line"/>
      <point x="457" y="-207"/>
      <point x="394" y="-241"/>
      <point x="336" y="-241" type="curve" smooth="yes"/>
      <point x="292" y="-241"/>
      <point x="262" y="-232"/>
      <point x="231" y="-203" type="curve"/>
      <point x="278" y="-151" type="line"/>
      <point x="297" y="-168"/>
      <point x="315" y="-176"/>
      <point x="339" y="-176" type="curve" smooth="yes"/>
      <point x="373" y="-176"/>
      <point x="394" y="-162"/>
      <point x="398" y="-138" type="curve"/>
    </contour>
  </outline>
</glyph>
<glyph name="Ecircumflex" format="1">
  <advance width="571"/>
  <unicode hex="00CA"/>
  <outline>
    <contour>
      <point x="151" y="0" type="line"/>
      <point x="169" y="104" type="line"/>
      <point x="522" y="104" type="line"/>
      <point x="504" y="0" type="line"/>
    </contour>
    <contour>
      <point x="256" y="596" type="line"/>
      <point x="274" y="700" type="line"/>
      <point x="627" y="700" type="line"/>
      <point x="609" y="596" type="line"/>
    </contour>
    <contour>
      <point x="208" y="324" type="line"/>
      <point x="226" y="426" type="line"/>
      <point x="559" y="426" type="line"/>
      <point x="541" y="324" type="line"/>
    </contour>
    <contour>
      <point x="201" y="700" type="line"/>
      <point x="317" y="700" type="line"/>
      <point x="194" y="0" type="line"/>
      <point x="78" y="0" type="line"/>
    </contour>
    <contour>
      <point x="452" y="872" type="line"/>
      <point x="325" y="778" type="line"/>
      <point x="282" y="818" type="line"/>
      <point x="467" y="958" type="line"/>
      <point x="602" y="818" type="line"/>
      <point x="545" y="778" type="line"/>
    </contour>
  </outline>
</glyph>
<glyph name="Icircumflex" format="1">
  <advance width="275"/>
  <unicode hex="00CE"/>
  <outline>
    <contour>
      <point x="201" y="700" type="line"/>
      <point x="321" y="700" type="line"/>
      <point x="198" y="0" type="line"/>
      <point x="78" y="0" type="line"/>
    </contour>
    <contour>
      <point x="288" y="872" type="line"/>
      <point x="161" y="778" type="line"/>
      <point x="118" y="818" type="line"/>
      <point x="303" y="958" type="line"/>
      <point x="438" y="818" type="line"/>
      <point x="381" y="778" type="line"/>
    </contour>
  </outline>
</glyph>
<glyph name="Idieresis" format="1">
  <advance width="275"/>
  <unicode hex="00CF"/>
  <outline>
    <contour>
      <point x="201" y="700" type="line"/>
      <point x="321" y="700" type="line"/>
      <point x="198" y="0" type="line"/>
      <point x="78" y="0" type="line"/>
    </contour>
    <contour>
      <point x="324" y="842" type="curve" smooth="yes"/>
      <point x="331" y="880"/>
      <point x="367" y="912"/>
      <point x="407" y="912" type="curve" smooth="yes"/>
      <point x="447" y="912"/>
      <point x="473" y="880"/>
      <point x="466" y="842" type="curve" smooth="yes"/>
      <point x="459" y="804"/>
      <point x="422" y="772"/>
      <point x="382" y="772" type="curve" smooth="yes"/>
      <point x="342" y="772"/>
      <point x="317" y="804"/>
    </contour>
    <contour>
      <point x="106" y="842" type="curve" smooth="yes"/>
      <point x="113" y="880"/>
      <point x="149" y="912"/>
      <point x="189" y="912" type="curve" smooth="yes"/>
      <point x="229" y="912"/>
      <point x="255" y="880"/>
      <point x="248" y="842" type="curve" smooth="yes"/>
      <point x="241" y="804"/>
      <point x="204" y="772"/>
      <point x="164" y="772" type="curve" smooth="yes"/>
      <point x="124" y="772"/>
      <point x="99" y="804"/>
    </contour>
  </outline>
</glyph>
<glyph name="Otilde" format="1">
  <advance width="802"/>
  <unicode hex="00D5"/>
  <outline>
    <contour>
      <point x="225" y="350" type="curve" smooth="yes"/>
      <point x="200" y="206"/>
      <point x="280" y="101"/>
      <point x="419" y="101" type="curve" smooth="yes"/>
      <point x="558" y="101"/>
      <point x="676" y="206"/>
      <point x="701" y="350" type="curve" smooth="yes"/>
      <point x="726" y="494"/>
      <point x="647" y="599"/>
      <point x="507" y="599" type="curve" smooth="yes"/>
      <point x="368" y="599"/>
      <point x="250" y="494"/>
    </contour>
    <contour>
      <point x="100" y="350" type="curve" smooth="yes"/>
      <point x="137" y="559"/>
      <point x="319" y="712"/>
      <point x="527" y="712" type="curve" smooth="yes"/>
      <point x="736" y="712"/>
      <point x="864" y="559"/>
      <point x="827" y="350" type="curve" smooth="yes"/>
      <point x="790" y="141"/>
      <point x="608" y="-15"/>
      <point x="398" y="-15" type="curve" smooth="yes"/>
      <point x="188" y="-15"/>
      <point x="63" y="141"/>
    </contour>
    <contour>
      <point x="383" y="821" type="line"/>
      <point x="402" y="870"/>
      <point x="456" y="903"/>
      <point x="501" y="903" type="curve" smooth="yes"/>
      <point x="566" y="903"/>
      <point x="563" y="856"/>
      <point x="617" y="856" type="curve" smooth="yes"/>
      <point x="636" y="856"/>
      <point x="655" y="872"/>
      <point x="681" y="904" type="curve"/>
      <point x="720" y="861" type="line"/>
      <point x="697" y="824"/>
      <point x="651" y="788"/>
      <point x="601" y="788" type="curve" smooth="yes"/>
      <point x="546" y="788"/>
      <point x="532" y="835"/>
      <point x="487" y="835" type="curve" smooth="yes"/>
      <point x="446" y="835"/>
      <point x="431" y="799"/>
      <point x="428" y="784" type="curve"/>
    </contour>
  </outline>
</glyph>
<glyph name="Oslash" format="1">
  <advance width="790"/>
  <unicode hex="00D8"/>
  <outline>
    <contour>
      <point x="225" y="350" type="curve" smooth="yes"/>
      <point x="199" y="204"/>
      <point x="280" y="101"/>
      <point x="419" y="101" type="curve" smooth="yes"/>
      <point x="558" y="101"/>
      <point x="675" y="204"/>
      <point x="701" y="350" type="curve" smooth="yes"/>
      <point x="727" y="496"/>
      <point x="646" y="599"/>
      <point x="507" y="599" type="curve" smooth="yes"/>
      <point x="368" y="599"/>
      <point x="251" y="496"/>
    </contour>
    <contour>
      <point x="100" y="350" type="curve" smooth="yes"/>
      <point x="137" y="559"/>
      <point x="318" y="712"/>
      <point x="527" y="712" type="curve" smooth="yes"/>
      <point x="736" y="712"/>
      <point x="864" y="559"/>
      <point x="827" y="350" type="curve" smooth="yes"/>
      <point x="790" y="141"/>
      <point x="607" y="-15"/>
      <point x="398" y="-15" type="curve" smooth="yes"/>
      <point x="189" y="-15"/>
      <point x="63" y="141"/>
    </contour>
    <contour>
      <point x="825" y="752" type="line"/>
      <point x="881" y="708" type="line"/>
      <point x="98" y="-52" type="line"/>
      <point x="43" y="-8" type="line"/>
    </contour>
  </outline>
</glyph>
<glyph name="Ugrave" format="1">
  <advance width="656"/>
  <unicode hex="00D9"/>
  <outline>
    <contour>
      <point x="195" y="700" type="line"/>
      <point x="314" y="700" type="line"/>
      <point x="232" y="235" type="line" smooth="yes"/>
      <point x="217" y="149"/>
      <point x="254" y="91"/>
      <point x="344" y="91" type="curve" smooth="yes"/>
      <point x="434" y="91"/>
      <point x="491" y="149"/>
      <point x="506" y="235" type="curve" smooth="yes"/>
      <point x="588" y="700" type="line"/>
      <point x="707" y="700" type="line"/>
      <point x="625" y="230" type="line" smooth="yes"/>
      <point x="598" y="76"/>
      <point x="475" y="-18"/>
      <point x="325" y="-18" type="curve" smooth="yes"/>
      <point x="175" y="-18"/>
      <point x="86" y="76"/>
      <point x="113" y="230" type="curve" smooth="yes"/>
    </contour>
    <contour>
      <point x="349" y="922" type="line"/>
      <point x="448" y="968" type="line"/>
      <point x="569" y="808" type="line"/>
      <point x="502" y="772" type="line"/>
    </contour>
  </outline>
</glyph>
<glyph name="Ucircumflex" format="1">
  <advance width="656"/>
  <unicode hex="00DB"/>
  <outline>
    <contour>
      <point x="195" y="700" type="line"/>
      <point x="314" y="700" type="line"/>
      <point x="232" y="235" type="line" smooth="yes"/>
      <point x="217" y="149"/>
      <point x="254" y="91"/>
      <point x="344" y="91" type="curve" smooth="yes"/>
      <point x="434" y="91"/>
      <point x="491" y="149"/>
      <point x="506" y="235" type="curve" smooth="yes"/>
      <point x="588" y="700" type="line"/>
      <point x="707" y="700" type="line"/>
      <point x="625" y="230" type="line" smooth="yes"/>
      <point x="598" y="76"/>
      <point x="475" y="-18"/>
      <point x="325" y="-18" type="curve" smooth="yes"/>
      <point x="175" y="-18"/>
      <point x="86" y="76"/>
      <point x="113" y="230" type="curve" smooth="yes"/>
    </contour>
    <contour>
      <point x="480" y="864" type="line"/>
      <point x="362" y="772" type="line"/>
      <point x="298" y="825" type="line"/>
      <point x="498" y="965" type="line"/>
      <point x="648" y="825" type="line"/>
      <point x="566" y="772" type="line"/>
    </contour>
  </outline>
</glyph>
<glyph name="agrave" format="1">
  <advance width="588"/>
  <unicode hex="00E0"/>
  <outline>
    <contour>
      <point x="499" y="460" type="line"/>
      <point x="605" y="460" type="line"/>
      <point x="524" y="0" type="line"/>
      <point x="418" y="0" type="line"/>
    </contour>
    <contour>
      <point x="75" y="230" type="curve" smooth="yes"/>
      <point x="102" y="382"/>
      <point x="221" y="470"/>
      <point x="341" y="470" type="curve" smooth="yes"/>
      <point x="456" y="470"/>
      <point x="521" y="379"/>
      <point x="495" y="230" type="curve" smooth="yes"/>
      <point x="469" y="81"/>
      <point x="371" y="-10"/>
      <point x="256" y="-10" type="curve" smooth="yes"/>
      <point x="136" y="-10"/>
      <point x="48" y="78"/>
    </contour>
    <contour>
      <point x="187" y="230" type="curve" smooth="yes"/>
      <point x="171" y="138"/>
      <point x="224" y="84"/>
      <point x="299" y="84" type="curve" smooth="yes"/>
      <point x="361" y="84"/>
      <point x="439" y="136"/>
      <point x="456" y="230" type="curve" smooth="yes"/>
      <point x="473" y="324"/>
      <point x="412" y="376"/>
      <point x="350" y="376" type="curve" smooth="yes"/>
      <point x="275" y="376"/>
      <point x="203" y="322"/>
    </contour>
    <contour>
      <point x="244" y="680" type="line"/>
      <point x="343" y="725" type="line"/>
      <point x="465" y="565" type="line"/>
      <point x="397" y="530" type="line"/>
    </contour>
  </outline>
</glyph>
<glyph name="acircumflex" format="1">
  <advance width="588"/>
  <unicode hex="00E2"/>
  <outline>
    <contour>
      <point x="499" y="460" type="line"/>
      <point x="605" y="460" type="line"/>
      <point x="524" y="0" type="line"/>
      <point x="418" y="0" type="line"/>
    </contour>
    <contour>
      <point x="75" y="230" type="curve" smooth="yes"/>
      <point x="102" y="382"/>
      <point x="221" y="470"/>
      <point x="341" y="470" type="curve" smooth="yes"/>
      <point x="456" y="470"/>
      <point x="521" y="379"/>
      <point x="495" y="230" type="curve" smooth="yes"/>
      <point x="469" y="81"/>
      <point x="371" y="-10"/>
      <point x="256" y="-10" type="curve" smooth="yes"/>
      <point x="136" y="-10"/>
      <point x="48" y="78"/>
    </contour>
    <contour>
      <point x="187" y="230" type="curve" smooth="yes"/>
      <point x="171" y="138"/>
      <point x="224" y="84"/>
      <point x="299" y="84" type="curve" smooth="yes"/>
      <point x="361" y="84"/>
      <point x="439" y="136"/>
      <point x="456" y="230" type="curve" smooth="yes"/>
      <point x="473" y="324"/>
      <point x="412" y="376"/>
      <point x="350" y="376" type="curve" smooth="yes"/>
      <point x="275" y="376"/>
      <point x="203" y="322"/>
    </contour>
    <contour>
      <point x="403" y="621" type="line"/>
      <point x="284" y="530" type="line"/>
      <point x="222" y="582" type="line"/>
      <point x="421" y="722" type="line"/>
      <point x="572" y="582" type="line"/>
      <point x="489" y="530" type="line"/>
    </contour>
  </outline>
</glyph>
<glyph name="atilde" format="1">
  <advance width="588"/>
  <unicode hex="00E3"/>
  <outline>
    <contour>
      <point x="499" y="460" type="line"/>
      <point x="605" y="460" type="line"/>
      <point x="524" y="0" type="line"/>
      <point x="418" y="0" type="line"/>
    </contour>
    <contour>
      <point x="75" y="230" type="curve" smooth="yes"/>
      <point x="102" y="382"/>
      <point x="221" y="470"/>
      <point x="341" y="470" type="curve" smooth="yes"/>
      <point x="456" y="470"/>
      <point x="521" y="379"/>
      <point x="495" y="230" type="curve" smooth="yes"/>
      <point x="469" y="81"/>
      <point x="371" y="-10"/>
      <point x="256" y="-10" type="curve" smooth="yes"/>
      <point x="136" y="-10"/>
      <point x="48" y="78"/>
    </contour>
    <contour>
      <point x="187" y="230" type="curve" smooth="yes"/>
      <point x="171" y="138"/>
      <point x="224" y="84"/>
      <point x="299" y="84" type="curve" smooth="yes"/>
      <point x="361" y="84"/>
      <point x="439" y="136"/>
      <point x="456" y="230" type="curve" smooth="yes"/>
      <point x="473" y="324"/>
      <point x="412" y="376"/>
      <point x="350" y="376" type="curve" smooth="yes"/>
      <point x="275" y="376"/>
      <point x="203" y="322"/>
    </contour>
    <contour>
      <point x="222" y="578" type="line"/>
      <point x="241" y="627"/>
      <point x="294" y="665"/>
      <point x="347" y="665" type="curve" smooth="yes"/>
      <point x="412" y="665"/>
      <point x="413" y="616"/>
      <point x="468" y="616" type="curve" smooth="yes"/>
      <point x="490" y="616"/>
      <point x="510" y="634"/>
      <point x="536" y="666" type="curve"/>
      <point x="583" y="610" type="line"/>
      <point x="560" y="573"/>
      <point x="507" y="532"/>
      <point x="452" y="532" type="curve" smooth="yes"/>
      <point x="397" y="532"/>
      <point x="380" y="582"/>
      <point x="333" y="582" type="curve" smooth="yes"/>
      <point x="293" y="582"/>
      <point x="277" y="546"/>
      <point x="274" y="531" type="curve"/>
    </contour>
  </outline>
</glyph>
<glyph name="aring" format="1">
  <advance width="588"/>
  <unicode hex="00E5"/>
  <outline>
    <contour>
      <point x="499" y="460" type="line"/>
      <point x="605" y="460" type="line"/>
      <point x="524" y="0" type="line"/>
      <point x="418" y="0" type="line"/>
    </contour>
    <contour>
      <point x="75" y="230" type="curve" smooth="yes"/>
      <point x="102" y="382"/>
      <point x="221" y="470"/>
      <point x="341" y="470" type="curve" smooth="yes"/>
      <point x="456" y="470"/>
      <point x="521" y="379"/>
      <point x="495" y="230" type="curve" smooth="yes"/>
      <point x="469" y="81"/>
      <point x="371" y="-10"/>
      <point x="256" y="-10" type="curve" smooth="yes"/>
      <point x="136" y="-10"/>
      <point x="48" y="78"/>
    </contour>
    <contour>
      <point x="187" y="230" type="curve" smooth="yes"/>
      <point x="171" y="138"/>
      <point x="224" y="84"/>
      <point x="299" y="84" type="curve" smooth="yes"/>
      <point x="361" y="84"/>
      <point x="439" y="136"/>
      <point x="456" y="230" type="curve" smooth="yes"/>
      <point x="473" y="324"/>
      <point x="412" y="376"/>
      <point x="350" y="376" type="curve" smooth="yes"/>
      <point x="275" y="376"/>
      <point x="203" y="322"/>
    </contour>
    <contour>
      <point x="299" y="636" type="curve" smooth="yes"/>
      <point x="310" y="700"/>
      <point x="370" y="742"/>
      <point x="429" y="742" type="curve" smooth="yes"/>
      <point x="488" y="742"/>
      <point x="532" y="700"/>
      <point x="521" y="636" type="curve" smooth="yes"/>
      <point x="510" y="572"/>
      <point x="450" y="530"/>
      <point x="391" y="530" type="curve" smooth="yes"/>
      <point x="332" y="530"/>
      <point x="288" y="572"/>
    </contour>
    <contour>
      <point x="361" y="636" type="curve" smooth="yes"/>
      <point x="355" y="604"/>
      <point x="376" y="585"/>
      <point x="401" y="585" type="curve" smooth="yes"/>
      <point x="426" y="585"/>
      <point x="453" y="604"/>
      <point x="459" y="636" type="curve" smooth="yes"/>
      <point x="465" y="668"/>
      <point x="444" y="687"/>
      <point x="419" y="687" type="curve" smooth="yes"/>
      <point x="394" y="687"/>
      <point x="367" y="668"/>
    </contour>
  </outline>
</glyph>
<glyph name="edieresis" format="1">
  <advance width="534"/>
  <unicode hex="00EB"/>
  <outline>
    <contour>
      <point x="132" y="205" type="line"/>
      <point x="146" y="282" type="line"/>
      <point x="528" y="282" type="line"/>
      <point x="533" y="205" type="line"/>
    </contour>
    <contour>
      <point x="437" y="248" type="line" smooth="yes"/>
      <point x="451" y="329"/>
      <point x="423" y="384"/>
      <point x="341" y="384" type="curve" smooth="yes"/>
      <point x="267" y="384"/>
      <point x="201" y="337"/>
      <point x="187" y="258" type="curve"/>
      <point x="181" y="230" type="line"/>
      <point x="164" y="133"/>
      <point x="210" y="81"/>
      <point x="292" y="81" type="curve" smooth="yes"/>
      <point x="350" y="81"/>
      <point x="394" y="107"/>
      <point x="427" y="152" type="curve"/>
      <point x="510" y="111" type="line"/>
      <point x="455" y="40"/>
      <point x="387" y="-10"/>
      <point x="267" y="-10" type="curve" smooth="yes"/>
      <point x="133" y="-10"/>
      <point x="52" y="91"/>
      <point x="77" y="230" type="curve" smooth="yes"/>
      <point x="80" y="247"/>
      <point x="83" y="264"/>
      <point x="89" y="280" type="curve" smooth="yes"/>
      <point x="128" y="393"/>
      <point x="234" y="470"/>
      <point x="357" y="470" type="curve" smooth="yes"/>
      <point x="487" y="470"/>
      <point x="565" y="380"/>
      <point x="539" y="235" type="curve" smooth="yes"/>
      <point x="538" y="227"/>
      <point x="536" y="216"/>
      <point x="533" y="205" type="curve"/>
      <point x="433" y="225" type="line"/>
    </contour>
    <contour>
      <point x="420" y="596" type="curve" smooth="yes"/>
      <point x="427" y="633"/>
      <point x="462" y="662"/>
      <point x="500" y="662" type="curve" smooth="yes"/>
      <point x="538" y="662"/>
      <point x="563" y="633"/>
      <point x="556" y="596" type="curve" smooth="yes"/>
      <point x="549" y="559"/>
      <point x="514" y="530"/>
      <point x="476" y="530" type="curve" smooth="yes"/>
      <point x="438" y="530"/>
      <point x="413" y="559"/>
    </contour>
    <contour>
      <point x="202" y="596" type="curve" smooth="yes"/>
      <point x="209" y="633"/>
      <point x="244" y="662"/>
      <point x="282" y="662" type="curve" smooth="yes"/>
      <point x="320" y="662"/>
      <point x="346" y="633"/>
      <point x="339" y="596" type="curve" smooth="yes"/>
      <point x="332" y="559"/>
      <point x="296" y="530"/>
      <point x="258" y="530" type="curve" smooth="yes"/>
      <point x="220" y="530"/>
      <point x="195" y="559"/>
    </contour>
  </outline>
</glyph>
<glyph name="igrave" format="1">
  <advance width="266"/>
  <unicode hex="00EC"/>
  <outline>
    <contour>
      <point x="161" y="460" type="line"/>
      <point x="267" y="460" type="line"/>
      <point x="186" y="0" type="line"/>
      <point x="80" y="0" type="line"/>
    </contour>
    <contour>
      <point x="88" y="695" type="line"/>
      <point x="186" y="740" type="line"/>
      <point x="308" y="580" type="line"/>
      <point x="241" y="545" type="line"/>
    </contour>
  </outline>
</glyph>
<glyph name="icircumflex" format="1">
  <advance width="266"/>
  <unicode hex="00EE"/>
  <outline>
    <contour>
      <point x="161" y="460" type="line"/>
      <point x="267" y="460" type="line"/>
      <point x="186" y="0" type="line"/>
      <point x="80" y="0" type="line"/>
    </contour>
    <contour>
      <point x="244" y="629" type="line"/>
      <point x="125" y="538" type="line"/>
      <point x="62" y="590" type="line"/>
      <point x="262" y="730" type="line"/>
      <point x="412" y="590" type="line"/>
      <point x="331" y="538" type="line"/>
    </contour>
  </outline>
</glyph>
<glyph name="idieresis" format="1">
  <advance width="266"/>
  <unicode hex="00EF"/>
  <outline>
    <contour>
      <point x="161" y="460" type="line"/>
      <point x="267" y="460" type="line"/>
      <point x="186" y="0" type="line"/>
      <point x="80" y="0" type="line"/>
    </contour>
    <contour>
      <point x="281" y="614" type="curve" smooth="yes"/>
      <point x="288" y="651"/>
      <point x="324" y="680"/>
      <point x="362" y="680" type="curve" smooth="yes"/>
      <point x="400" y="680"/>
      <point x="425" y="651"/>
      <point x="418" y="614" type="curve" smooth="yes"/>
      <point x="411" y="577"/>
      <point x="377" y="548"/>
      <point x="339" y="548" type="curve" smooth="yes"/>
      <point x="301" y="548"/>
      <point x="274" y="577"/>
    </contour>
    <contour>
      <point x="64" y="614" type="curve" smooth="yes"/>
      <point x="71" y="651"/>
      <point x="106" y="680"/>
      <point x="144" y="680" type="curve" smooth="yes"/>
      <point x="182" y="680"/>
      <point x="207" y="651"/>
      <point x="200" y="614" type="curve" smooth="yes"/>
      <point x="193" y="577"/>
      <point x="159" y="548"/>
      <point x="121" y="548" type="curve" smooth="yes"/>
      <point x="83" y="548"/>
      <point x="57" y="577"/>
    </contour>
  </outline>
</glyph>
<glyph name="eth" format="1">
  <advance width="613"/>
  <unicode hex="00F0"/>
  <outline>
    <contour>
      <point x="490" y="236" type="curve" smooth="yes"/>
      <point x="505" y="322"/>
      <point x="456" y="383"/>
      <point x="375" y="383" type="curve" smooth="yes"/>
      <point x="294" y="383"/>
      <point x="223" y="322"/>
      <point x="208" y="236" type="curve" smooth="yes"/>
      <point x="193" y="150"/>
      <point x="242" y="92"/>
      <point x="323" y="92" type="curve" smooth="yes"/>
      <point x="404" y="92"/>
      <point x="475" y="150"/>
    </contour>
    <contour>
      <point x="405" y="699" type="line"/>
      <point x="575" y="401" type="line" smooth="yes"/>
      <point x="601" y="356"/>
      <point x="617" y="300"/>
      <point x="606" y="236" type="curve" smooth="yes"/>
      <point x="579" y="81"/>
      <point x="449" y="-12"/>
      <point x="305" y="-12" type="curve" smooth="yes"/>
      <point x="161" y="-12"/>
      <point x="65" y="81"/>
      <point x="92" y="236" type="curve" smooth="yes"/>
      <point x="116" y="370"/>
      <point x="233" y="464"/>
      <point x="343" y="464" type="curve" smooth="yes"/>
      <point x="390" y="464"/>
      <point x="421" y="455"/>
      <point x="446" y="421" type="curve"/>
      <point x="429" y="424" type="line"/>
      <point x="255" y="699" type="line"/>
    </contour>
    <contour>
      <point x="240" y="520" type="line"/>
      <point x="252" y="590" type="line"/>
      <point x="606" y="590" type="line"/>
      <point x="594" y="520" type="line"/>
    </contour>
  </outline>
</glyph>
<glyph name="ocircumflex" format="1">
  <advance width="563"/>
  <unicode hex="00F4"/>
  <outline>
    <contour>
      <point x="75" y="230" type="curve" smooth="yes"/>
      <point x="100" y="372"/>
      <point x="224" y="470"/>
      <point x="365" y="470" type="curve" smooth="yes"/>
      <point x="506" y="470"/>
      <point x="596" y="372"/>
      <point x="571" y="230" type="curve" smooth="yes"/>
      <point x="546" y="88"/>
      <point x="421" y="-10"/>
      <point x="280" y="-10" type="curve" smooth="yes"/>
      <point x="139" y="-10"/>
      <point x="50" y="88"/>
    </contour>
    <contour>
      <point x="186" y="230" type="curve" smooth="yes"/>
      <point x="171" y="144"/>
      <point x="219" y="85"/>
      <point x="297" y="85" type="curve" smooth="yes"/>
      <point x="375" y="85"/>
      <point x="445" y="144"/>
      <point x="460" y="230" type="curve" smooth="yes"/>
      <point x="475" y="316"/>
      <point x="426" y="375"/>
      <point x="348" y="375" type="curve" smooth="yes"/>
      <point x="270" y="375"/>
      <point x="201" y="316"/>
    </contour>
    <contour>
      <point x="394" y="636" type="line"/>
      <point x="275" y="545" type="line"/>
      <point x="212" y="598" type="line"/>
      <point x="412" y="738" type="line"/>
      <point x="562" y="598" type="line"/>
      <point x="480" y="545" type="line"/>
    </contour>
  </outline>
</glyph>
<glyph name="odieresis" format="1">
  <advance width="563"/>
  <unicode hex="00F6"/>
  <outline>
    <contour>
      <point x="75" y="230" type="curve" smooth="yes"/>
      <point x="100" y="372"/>
      <point x="224" y="470"/>
      <point x="365" y="470" type="curve" smooth="yes"/>
      <point x="506" y="470"/>
      <point x="596" y="372"/>
      <point x="571" y="230" type="curve" smooth="yes"/>
      <point x="546" y="88"/>
      <point x="421" y="-10"/>
      <point x="280" y="-10" type="curve" smooth="yes"/>
      <point x="139" y="-10"/>
      <point x="50" y="88"/>
    </contour>
    <contour>
      <point x="186" y="230" type="curve" smooth="yes"/>
      <point x="171" y="144"/>
      <point x="219" y="85"/>
      <point x="297" y="85" type="curve" smooth="yes"/>
      <point x="375" y="85"/>
      <point x="445" y="144"/>
      <point x="460" y="230" type="curve" smooth="yes"/>
      <point x="475" y="316"/>
      <point x="426" y="375"/>
      <point x="348" y="375" type="curve" smooth="yes"/>
      <point x="270" y="375"/>
      <point x="201" y="316"/>
    </contour>
    <contour>
      <point x="430" y="614" type="curve" smooth="yes"/>
      <point x="437" y="651"/>
      <point x="473" y="680"/>
      <point x="511" y="680" type="curve" smooth="yes"/>
      <point x="549" y="680"/>
      <point x="574" y="651"/>
      <point x="567" y="614" type="curve" smooth="yes"/>
      <point x="560" y="577"/>
      <point x="526" y="548"/>
      <point x="488" y="548" type="curve" smooth="yes"/>
      <point x="450" y="548"/>
      <point x="423" y="577"/>
    </contour>
    <contour>
      <point x="213" y="614" type="curve" smooth="yes"/>
      <point x="220" y="651"/>
      <point x="255" y="680"/>
      <point x="293" y="680" type="curve" smooth="yes"/>
      <point x="331" y="680"/>
      <point x="356" y="651"/>
      <point x="349" y="614" type="curve" smooth="yes"/>
      <point x="342" y="577"/>
      <point x="308" y="548"/>
      <point x="270" y="548" type="curve" smooth="yes"/>
      <point x="232" y="548"/>
      <point x="206" y="577"/>
    </contour>
  </outline>
</glyph>
<glyph name="divide" format="1">
  <advance width="629"/>
  <unicode hex="00F7"/>
  <outline>
    <contour>
      <point x="330" y="491" type="curve" smooth="yes"/>
      <point x="337" y="529"/>
      <point x="373" y="561"/>
      <point x="413" y="561" type="curve" smooth="yes"/>
      <point x="453" y="561"/>
      <point x="478" y="529"/>
      <point x="471" y="491" type="curve" smooth="yes"/>
      <point x="464" y="453"/>
      <point x="428" y="421"/>
      <point x="388" y="421" type="curve" smooth="yes"/>
      <point x="348" y="421"/>
      <point x="323" y="453"/>
    </contour>
    <contour>
      <point x="257" y="81" type="curve" smooth="yes"/>
      <point x="264" y="119"/>
      <point x="301" y="151"/>
      <point x="341" y="151" type="curve" smooth="yes"/>
      <point x="381" y="151"/>
      <point x="405" y="119"/>
      <point x="398" y="81" type="curve" smooth="yes"/>
      <point x="391" y="43"/>
      <point x="356" y="11"/>
      <point x="316" y="11" type="curve" smooth="yes"/>
      <point x="276" y="11"/>
      <point x="250" y="43"/>
    </contour>
    <contour>
      <point x="88" y="239" type="line"/>
      <point x="106" y="341" type="line"/>
      <point x="641" y="341" type="line"/>
      <point x="623" y="239" type="line"/>
    </contour>
  </outline>
</glyph>
<glyph name="oslash" format="1">
  <advance width="546"/>
  <unicode hex="00F8"/>
  <outline>
    <contour>
      <point x="75" y="230" type="curve" smooth="yes"/>
      <point x="100" y="374"/>
      <point x="225" y="470"/>
      <point x="365" y="470" type="curve" smooth="yes"/>
      <point x="505" y="470"/>
      <point x="596" y="374"/>
      <point x="571" y="230" type="curve" smooth="yes"/>
      <point x="546" y="86"/>
      <point x="420" y="-10"/>
      <point x="280" y="-10" type="curve" smooth="yes"/>
      <point x="140" y="-10"/>
      <point x="50" y="86"/>
    </contour>
    <contour>
      <point x="181" y="230" type="curve" smooth="yes"/>
      <point x="165" y="142"/>
      <point x="216" y="82"/>
      <point x="296" y="82" type="curve" smooth="yes"/>
      <point x="376" y="82"/>
      <point x="449" y="142"/>
      <point x="465" y="230" type="curve" smooth="yes"/>
      <point x="480" y="316"/>
      <point x="429" y="378"/>
      <point x="349" y="378" type="curve" smooth="yes"/>
      <point x="269" y="378"/>
      <point x="196" y="316"/>
    </contour>
    <contour>
      <point x="535" y="502" type="line"/>
      <point x="580" y="478" type="line"/>
      <point x="98" y="-46" type="line"/>
      <point x="52" y="-22" type="line"/>
    </contour>
  </outline>
</glyph>
<glyph name="udieresis" format="1">
  <advance width="545"/>
  <unicode hex="00FC"/>
  <outline>
    <contour>
      <point x="368" y="0" type="line"/>
      <point x="449" y="460" type="line"/>
      <point x="557" y="460" type="line"/>
      <point x="476" y="0" type="line"/>
    </contour>
    <contour>
      <point x="212" y="180" type="line" smooth="yes"/>
      <point x="200" y="113"/>
      <point x="220" y="77"/>
      <point x="279" y="77" type="curve" smooth="yes"/>
      <point x="340" y="77"/>
      <point x="389" y="119"/>
      <point x="400" y="180" type="curve"/>
      <point x="432" y="182" type="line"/>
      <point x="413" y="73"/>
      <point x="330" y="-10"/>
      <point x="227" y="-10" type="curve" smooth="yes"/>
      <point x="124" y="-10"/>
      <point x="79" y="52"/>
      <point x="99" y="168" type="curve" smooth="yes"/>
      <point x="150" y="460" type="line"/>
      <point x="261" y="460" type="line"/>
    </contour>
    <contour>
      <point x="421" y="608" type="curve" smooth="yes"/>
      <point x="428" y="645"/>
      <point x="462" y="674"/>
      <point x="500" y="674" type="curve" smooth="yes"/>
      <point x="538" y="674"/>
      <point x="564" y="645"/>
      <point x="557" y="608" type="curve" smooth="yes"/>
      <point x="550" y="571"/>
      <point x="515" y="542"/>
      <point x="477" y="542" type="curve" smooth="yes"/>
      <point x="439" y="542"/>
      <point x="414" y="571"/>
    </contour>
    <contour>
      <point x="203" y="608" type="curve" smooth="yes"/>
      <point x="210" y="645"/>
      <point x="245" y="674"/>
      <point x="283" y="674" type="curve" smooth="yes"/>
      <point x="321" y="674"/>
      <point x="346" y="645"/>
      <point x="339" y="608" type="curve" smooth="yes"/>
      <point x="332" y="571"/>
      <point x="298" y="542"/>
      <point x="260" y="542" type="curve" smooth="yes"/>
      <point x="222" y="542"/>
      <point x="196" y="571"/>
    </contour>
  </outline>
</glyph>
<glyph name="thorn" format="1">
  <advance width="586"/>
  <unicode hex="00FE"/>
  <outline>
    <contour>
      <point x="133" y="-220" type="line"/>
      <point x="27" y="-220" type="line"/>
      <point x="204" y="780" type="line"/>
      <point x="310" y="780" type="line"/>
    </contour>
    <contour>
      <point x="594" y="230" type="curve" smooth="yes"/>
      <point x="567" y="79"/>
      <point x="448" y="-10"/>
      <point x="327" y="-10" type="curve" smooth="yes"/>
      <point x="212" y="-10"/>
      <point x="148" y="81"/>
      <point x="174" y="230" type="curve" smooth="yes"/>
      <point x="200" y="379"/>
      <point x="297" y="470"/>
      <point x="412" y="470" type="curve" smooth="yes"/>
      <point x="533" y="470"/>
      <point x="621" y="381"/>
    </contour>
    <contour>
      <point x="485" y="230" type="curve" smooth="yes"/>
      <point x="502" y="324"/>
      <point x="447" y="378"/>
      <point x="371" y="378" type="curve" smooth="yes"/>
      <point x="308" y="378"/>
      <point x="230" y="325"/>
      <point x="213" y="230" type="curve" smooth="yes"/>
      <point x="196" y="135"/>
      <point x="255" y="82"/>
      <point x="318" y="82" type="curve" smooth="yes"/>
      <point x="394" y="82"/>
      <point x="468" y="136"/>
    </contour>
  </outline>
</glyph>
<glyph name="ydieresis" format="1">
  <advance width="472"/>
  <unicode hex="00FF"/>
  <outline>
    <contour>
      <point x="557" y="460" type="line"/>
      <point x="137" y="-220" type="line"/>
      <point x="22" y="-220" type="line"/>
      <point x="192" y="54" type="line"/>
      <point x="77" y="460" type="line"/>
      <point x="201" y="460" type="line"/>
      <point x="284" y="96" type="line"/>
      <point x="233" y="99" type="line"/>
      <point x="441" y="460" type="line"/>
    </contour>
    <contour>
      <point x="382" y="596" type="curve" smooth="yes"/>
      <point x="389" y="633"/>
      <point x="424" y="662"/>
      <point x="462" y="662" type="curve" smooth="yes"/>
      <point x="500" y="662"/>
      <point x="525" y="633"/>
      <point x="518" y="596" type="curve" smooth="yes"/>
      <point x="511" y="559"/>
      <point x="476" y="530"/>
      <point x="438" y="530" type="curve" smooth="yes"/>
      <point x="400" y="530"/>
      <point x="375" y="559"/>
    </contour>
    <contour>
      <point x="164" y="596" type="curve" smooth="yes"/>
      <point x="171" y="633"/>
      <point x="206" y="662"/>
      <point x="244" y="662" type="curve" smooth="yes"/>
      <point x="282" y="662"/>
      <point x="307" y="633"/>
      <point x="300" y="596" type="curve" smooth="yes"/>
      <point x="293" y="559"/>
      <point x="258" y="530"/>
      <point x="220" y="530" type="curve" smooth="yes"/>
      <point x="182" y="530"/>
      <point x="157" y="559"/>
    </contour>
  </outline>
</glyph>
<glyph name="Abreve" format="1">
  <advance width="690"/>
  <unicode hex="0102"/>
  <outline>
    <contour>
      <point x="194" y="180" type="line"/>
      <point x="233" y="280" type="line"/>
      <point x="559" y="280" type="line"/>
      <point x="564" y="180" type="line"/>
    </contour>
    <contour>
      <point x="434" y="502" type="line"/>
      <point x="278" y="245" type="line"/>
      <point x="272" y="219" type="line"/>
      <point x="136" y="0" type="line"/>
      <point x="2" y="0" type="line"/>
      <point x="475" y="739" type="line"/>
      <point x="688" y="0" type="line"/>
      <point x="554" y="0" type="line"/>
      <point x="497" y="213" type="line"/>
      <point x="499" y="242" type="line"/>
    </contour>
    <contour>
      <point x="350" y="941" type="curve"/>
      <point x="433" y="941" type="line"/>
      <point x="428" y="911"/>
      <point x="441" y="872"/>
      <point x="499" y="872" type="curve" smooth="yes"/>
      <point x="557" y="872"/>
      <point x="584" y="911"/>
      <point x="589" y="941" type="curve"/>
      <point x="672" y="941" type="line"/>
      <point x="659" y="867"/>
      <point x="591" y="799"/>
      <point x="486" y="799" type="curve" smooth="yes"/>
      <point x="381" y="799"/>
      <point x="337" y="867"/>
    </contour>
  </outline>
</glyph>
<glyph name="abreve" format="1">
  <advance width="588"/>
  <unicode hex="0103"/>
  <outline>
    <contour>
      <point x="499" y="460" type="line"/>
      <point x="605" y="460" type="line"/>
      <point x="524" y="0" type="line"/>
      <point x="418" y="0" type="line"/>
    </contour>
    <contour>
      <point x="75" y="230" type="curve" smooth="yes"/>
      <point x="102" y="382"/>
      <point x="221" y="470"/>
      <point x="341" y="470" type="curve" smooth="yes"/>
      <point x="456" y="470"/>
      <point x="521" y="379"/>
      <point x="495" y="230" type="curve" smooth="yes"/>
      <point x="469" y="81"/>
      <point x="371" y="-10"/>
      <point x="256" y="-10" type="curve" smooth="yes"/>
      <point x="136" y="-10"/>
      <point x="48" y="78"/>
    </contour>
    <contour>
      <point x="187" y="230" type="curve" smooth="yes"/>
      <point x="171" y="138"/>
      <point x="224" y="84"/>
      <point x="299" y="84" type="curve" smooth="yes"/>
      <point x="361" y="84"/>
      <point x="439" y="136"/>
      <point x="456" y="230" type="curve" smooth="yes"/>
      <point x="473" y="324"/>
      <point x="412" y="376"/>
      <point x="350" y="376" type="curve" smooth="yes"/>
      <point x="275" y="376"/>
      <point x="203" y="322"/>
    </contour>
    <contour>
      <point x="239" y="672" type="curve"/>
      <point x="322" y="672" type="line"/>
      <point x="317" y="642"/>
      <point x="330" y="603"/>
      <point x="388" y="603" type="curve" smooth="yes"/>
      <point x="446" y="603"/>
      <point x="473" y="642"/>
      <point x="478" y="672" type="curve"/>
      <point x="561" y="672" type="line"/>
      <point x="548" y="598"/>
      <point x="480" y="530"/>
      <point x="375" y="530" type="curve" smooth="yes"/>
      <point x="270" y="530"/>
      <point x="226" y="598"/>
    </contour>
  </outline>
</glyph>
<glyph name="Cdotaccent" format="1">
  <advance width="691"/>
  <unicode hex="010A"/>
  <outline>
    <contour>
      <point x="228" y="350" type="curve" smooth="yes"/>
      <point x="202" y="201"/>
      <point x="295" y="103"/>
      <point x="423" y="103" type="curve" smooth="yes"/>
      <point x="522" y="103"/>
      <point x="602" y="146"/>
      <point x="660" y="203" type="curve"/>
      <point x="635" y="62" type="line"/>
      <point x="569" y="14"/>
      <point x="501" y="-12"/>
      <point x="399" y="-12" type="curve" smooth="yes"/>
      <point x="193" y="-12"/>
      <point x="62" y="137"/>
      <point x="100" y="350" type="curve" smooth="yes"/>
      <point x="138" y="563"/>
      <point x="321" y="712"/>
      <point x="527" y="712" type="curve" smooth="yes"/>
      <point x="629" y="712"/>
      <point x="686" y="686"/>
      <point x="736" y="638" type="curve"/>
      <point x="712" y="497" type="line"/>
      <point x="674" y="554"/>
      <point x="609" y="597"/>
      <point x="510" y="597" type="curve" smooth="yes"/>
      <point x="382" y="597"/>
      <point x="254" y="499"/>
    </contour>
    <contour>
      <point x="469" y="838" type="curve" smooth="yes"/>
      <point x="476" y="875"/>
      <point x="510" y="904"/>
      <point x="548" y="904" type="curve" smooth="yes"/>
      <point x="586" y="904"/>
      <point x="612" y="875"/>
      <point x="605" y="838" type="curve" smooth="yes"/>
      <point x="598" y="801"/>
      <point x="563" y="772"/>
      <point x="525" y="772" type="curve" smooth="yes"/>
      <point x="487" y="772"/>
      <point x="462" y="801"/>
    </contour>
  </outline>
</glyph>
<glyph name="cdotaccent" format="1">
  <advance width="484"/>
  <unicode hex="010B"/>
  <outline>
    <contour>
      <point x="182" y="230" type="curve" smooth="yes"/>
      <point x="167" y="143"/>
      <point x="218" y="83"/>
      <point x="299" y="83" type="curve" smooth="yes"/>
      <point x="365" y="83"/>
      <point x="430" y="116"/>
      <point x="462" y="161" type="curve"/>
      <point x="441" y="42" type="line"/>
      <point x="403" y="9"/>
      <point x="343" y="-10"/>
      <point x="277" y="-10" type="curve" smooth="yes"/>
      <point x="134" y="-10"/>
      <point x="46" y="88"/>
      <point x="71" y="230" type="curve" smooth="yes"/>
      <point x="96" y="372"/>
      <point x="219" y="470"/>
      <point x="362" y="470" type="curve" smooth="yes"/>
      <point x="428" y="470"/>
      <point x="481" y="450"/>
      <point x="508" y="419" type="curve"/>
      <point x="487" y="299" type="line"/>
      <point x="471" y="344"/>
      <point x="414" y="377"/>
      <point x="350" y="377" type="curve" smooth="yes"/>
      <point x="269" y="377"/>
      <point x="197" y="315"/>
    </contour>
    <contour>
      <point x="304" y="596" type="curve" smooth="yes"/>
      <point x="311" y="633"/>
      <point x="346" y="662"/>
      <point x="384" y="662" type="curve" smooth="yes"/>
      <point x="422" y="662"/>
      <point x="447" y="633"/>
      <point x="440" y="596" type="curve" smooth="yes"/>
      <point x="433" y="559"/>
      <point x="398" y="530"/>
      <point x="360" y="530" type="curve" smooth="yes"/>
      <point x="322" y="530"/>
      <point x="297" y="559"/>
    </contour>
  </outline>
</glyph>
<glyph name="Emacron" format="1">
  <advance width="571"/>
  <unicode hex="0112"/>
  <outline>
    <contour>
      <point x="151" y="0" type="line"/>
      <point x="169" y="104" type="line"/>
      <point x="522" y="104" type="line"/>
      <point x="504" y="0" type="line"/>
    </contour>
    <contour>
      <point x="256" y="596" type="line"/>
      <point x="274" y="700" type="line"/>
      <point x="627" y="700" type="line"/>
      <point x="609" y="596" type="line"/>
    </contour>
    <contour>
      <point x="208" y="324" type="line"/>
      <point x="226" y="426" type="line"/>
      <point x="559" y="426" type="line"/>
      <point x="541" y="324" type="line"/>
    </contour>
    <contour>
      <point x="201" y="700" type="line"/>
      <point x="317" y="700" type="line"/>
      <point x="194" y="0" type="line"/>
      <point x="78" y="0" type="line"/>
    </contour>
    <contour>
      <point x="247" y="772" type="line"/>
      <point x="264" y="870" type="line"/>
      <point x="623" y="870" type="line"/>
      <point x="606" y="772" type="line"/>
    </contour>
  </outline>
</glyph>
<glyph name="Ebreve" format="1">
  <advance width="571"/>
  <unicode hex="0114"/>
  <outline>
    <contour>
      <point x="151" y="0" type="line"/>
      <point x="169" y="104" type="line"/>
      <point x="522" y="104" type="line"/>
      <point x="504" y="0" type="line"/>
    </contour>
    <contour>
      <point x="256" y="596" type="line"/>
      <point x="274" y="700" type="line"/>
      <point x="627" y="700" type="line"/>
      <point x="609" y="596" type="line"/>
    </contour>
    <contour>
      <point x="208" y="324" type="line"/>
      <point x="226" y="426" type="line"/>
      <point x="559" y="426" type="line"/>
      <point x="541" y="324" type="line"/>
    </contour>
    <contour>
      <point x="201" y="700" type="line"/>
      <point x="317" y="700" type="line"/>
      <point x="194" y="0" type="line"/>
      <point x="78" y="0" type="line"/>
    </contour>
    <contour>
      <point x="291" y="915" type="curve"/>
      <point x="373" y="915" type="line"/>
      <point x="368" y="885"/>
      <point x="381" y="846"/>
      <point x="439" y="846" type="curve" smooth="yes"/>
      <point x="497" y="846"/>
      <point x="525" y="885"/>
      <point x="530" y="915" type="curve"/>
      <point x="612" y="915" type="line"/>
      <point x="599" y="841"/>
      <point x="531" y="772"/>
      <point x="426" y="772" type="curve" smooth="yes"/>
      <point x="321" y="772"/>
      <point x="278" y="841"/>
    </contour>
  </outline>
</glyph>
<glyph name="ebreve" format="1">
  <advance width="538"/>
  <unicode hex="0115"/>
  <outline>
    <contour>
      <point x="132" y="205" type="line"/>
      <point x="145" y="280" type="line"/>
      <point x="533" y="280" type="line"/>
      <point x="538" y="205" type="line"/>
    </contour>
    <contour>
      <point x="433" y="248" type="line" smooth="yes"/>
      <point x="448" y="332"/>
      <point x="421" y="388"/>
      <point x="341" y="388" type="curve" smooth="yes"/>
      <point x="269" y="388"/>
      <point x="205" y="339"/>
      <point x="191" y="258" type="curve"/>
      <point x="185" y="230" type="line"/>
      <point x="167" y="129"/>
      <point x="210" y="79"/>
      <point x="288" y="79" type="curve" smooth="yes"/>
      <point x="350" y="79"/>
      <point x="398" y="107"/>
      <point x="433" y="152" type="curve"/>
      <point x="520" y="114" type="line"/>
      <point x="461" y="39"/>
      <point x="391" y="-10"/>
      <point x="267" y="-10" type="curve" smooth="yes"/>
      <point x="125" y="-10"/>
      <point x="50" y="91"/>
      <point x="75" y="230" type="curve" smooth="yes"/>
      <point x="78" y="247"/>
      <point x="81" y="263"/>
      <point x="87" y="279" type="curve" smooth="yes"/>
      <point x="126" y="392"/>
      <point x="225" y="470"/>
      <point x="357" y="470" type="curve" smooth="yes"/>
      <point x="499" y="470"/>
      <point x="571" y="380"/>
      <point x="545" y="235" type="curve" smooth="yes"/>
      <point x="544" y="227"/>
      <point x="541" y="216"/>
      <point x="538" y="205" type="curve"/>
      <point x="429" y="225" type="line"/>
    </contour>
    <contour>
      <point x="233" y="673" type="curve"/>
      <point x="315" y="673" type="line"/>
      <point x="310" y="643"/>
      <point x="323" y="604"/>
      <point x="381" y="604" type="curve" smooth="yes"/>
      <point x="439" y="604"/>
      <point x="466" y="643"/>
      <point x="471" y="673" type="curve"/>
      <point x="554" y="673" type="line"/>
      <point x="541" y="599"/>
      <point x="472" y="530"/>
      <point x="367" y="530" type="curve" smooth="yes"/>
      <point x="262" y="530"/>
      <point x="220" y="599"/>
    </contour>
  </outline>
</glyph>
<glyph name="Edotaccent" format="1">
  <advance width="571"/>
  <unicode hex="0116"/>
  <outline>
    <contour>
      <point x="151" y="0" type="line"/>
      <point x="169" y="104" type="line"/>
      <point x="522" y="104" type="line"/>
      <point x="504" y="0" type="line"/>
    </contour>
    <contour>
      <point x="256" y="596" type="line"/>
      <point x="274" y="700" type="line"/>
      <point x="627" y="700" type="line"/>
      <point x="609" y="596" type="line"/>
    </contour>
    <contour>
      <point x="208" y="324" type="line"/>
      <point x="226" y="426" type="line"/>
      <point x="559" y="426" type="line"/>
      <point x="541" y="324" type="line"/>
    </contour>
    <contour>
      <point x="201" y="700" type="line"/>
      <point x="317" y="700" type="line"/>
      <point x="194" y="0" type="line"/>
      <point x="78" y="0" type="line"/>
    </contour>
    <contour>
      <point x="368" y="842" type="curve" smooth="yes"/>
      <point x="375" y="880"/>
      <point x="411" y="912"/>
      <point x="451" y="912" type="curve" smooth="yes"/>
      <point x="491" y="912"/>
      <point x="516" y="880"/>
      <point x="509" y="842" type="curve" smooth="yes"/>
      <point x="502" y="804"/>
      <point x="466" y="772"/>
      <point x="426" y="772" type="curve" smooth="yes"/>
      <point x="386" y="772"/>
      <point x="361" y="804"/>
    </contour>
  </outline>
</glyph>
<glyph name="Eogonek" format="1">
  <advance width="571"/>
  <unicode hex="0118"/>
  <outline>
    <contour>
      <point x="151" y="0" type="line"/>
      <point x="169" y="104" type="line"/>
      <point x="522" y="104" type="line"/>
      <point x="504" y="0" type="line"/>
    </contour>
    <contour>
      <point x="256" y="596" type="line"/>
      <point x="274" y="700" type="line"/>
      <point x="627" y="700" type="line"/>
      <point x="609" y="596" type="line"/>
    </contour>
    <contour>
      <point x="208" y="324" type="line"/>
      <point x="226" y="426" type="line"/>
      <point x="559" y="426" type="line"/>
      <point x="541" y="324" type="line"/>
    </contour>
    <contour>
      <point x="201" y="700" type="line"/>
      <point x="317" y="700" type="line"/>
      <point x="194" y="0" type="line"/>
      <point x="78" y="0" type="line"/>
    </contour>
    <contour>
      <point x="471" y="-122" type="curve"/>
      <point x="494" y="-180" type="line"/>
      <point x="475" y="-200"/>
      <point x="442" y="-220"/>
      <point x="394" y="-220" type="curve" smooth="yes"/>
      <point x="318" y="-220"/>
      <point x="280" y="-182"/>
      <point x="291" y="-120" type="curve"/>
      <point x="383" y="-98" type="line"/>
      <point x="377" y="-130"/>
      <point x="390" y="-142"/>
      <point x="418" y="-142" type="curve" smooth="yes"/>
      <point x="442" y="-142"/>
      <point x="455" y="-135"/>
    </contour>
    <contour>
      <point x="383" y="-98" type="curve"/>
      <point x="291" y="-120" type="line"/>
      <point x="302" y="-58"/>
      <point x="375" y="-11"/>
      <point x="451" y="25" type="curve"/>
      <point x="488" y="0" type="line"/>
      <point x="432" y="-24"/>
      <point x="389" y="-64"/>
    </contour>
  </outline>
</glyph>
<glyph name="eogonek" format="1">
  <advance width="538"/>
  <unicode hex="0119"/>
  <outline>
    <contour>
      <point x="132" y="205" type="line"/>
      <point x="145" y="280" type="line"/>
      <point x="533" y="280" type="line"/>
      <point x="538" y="205" type="line"/>
    </contour>
    <contour>
      <point x="433" y="248" type="line" smooth="yes"/>
      <point x="448" y="332"/>
      <point x="421" y="388"/>
      <point x="341" y="388" type="curve" smooth="yes"/>
      <point x="269" y="388"/>
      <point x="205" y="339"/>
      <point x="191" y="258" type="curve"/>
      <point x="185" y="230" type="line"/>
      <point x="167" y="129"/>
      <point x="210" y="79"/>
      <point x="288" y="79" type="curve" smooth="yes"/>
      <point x="350" y="79"/>
      <point x="398" y="107"/>
      <point x="433" y="152" type="curve"/>
      <point x="520" y="114" type="line"/>
      <point x="461" y="39"/>
      <point x="391" y="-10"/>
      <point x="267" y="-10" type="curve" smooth="yes"/>
      <point x="125" y="-10"/>
      <point x="50" y="91"/>
      <point x="75" y="230" type="curve" smooth="yes"/>
      <point x="78" y="247"/>
      <point x="81" y="263"/>
      <point x="87" y="279" type="curve" smooth="yes"/>
      <point x="126" y="392"/>
      <point x="225" y="470"/>
      <point x="357" y="470" type="curve" smooth="yes"/>
      <point x="499" y="470"/>
      <point x="571" y="380"/>
      <point x="545" y="235" type="curve" smooth="yes"/>
      <point x="544" y="227"/>
      <point x="541" y="216"/>
      <point x="538" y="205" type="curve"/>
      <point x="429" y="225" type="line"/>
    </contour>
    <contour>
      <point x="291" y="-126" type="curve"/>
      <point x="314" y="-184" type="line"/>
      <point x="295" y="-204"/>
      <point x="262" y="-224"/>
      <point x="214" y="-224" type="curve" smooth="yes"/>
      <point x="138" y="-224"/>
      <point x="99" y="-186"/>
      <point x="110" y="-124" type="curve"/>
      <point x="202" y="-102" type="line"/>
      <point x="196" y="-134"/>
      <point x="209" y="-146"/>
      <point x="237" y="-146" type="curve" smooth="yes"/>
      <point x="261" y="-146"/>
      <point x="275" y="-139"/>
    </contour>
    <contour>
      <point x="202" y="-102" type="curve"/>
      <point x="110" y="-124" type="line"/>
      <point x="121" y="-62"/>
      <point x="195" y="-15"/>
      <point x="271" y="21" type="curve"/>
      <point x="307" y="-4" type="line"/>
      <point x="251" y="-28"/>
      <point x="208" y="-68"/>
    </contour>
  </outline>
</glyph>
<glyph name="Ecaron" format="1">
  <advance width="571"/>
  <unicode hex="011A"/>
  <outline>
    <contour>
      <point x="151" y="0" type="line"/>
      <point x="169" y="104" type="line"/>
      <point x="522" y="104" type="line"/>
      <point x="504" y="0" type="line"/>
    </contour>
    <contour>
      <point x="256" y="596" type="line"/>
      <point x="274" y="700" type="line"/>
      <point x="627" y="700" type="line"/>
      <point x="609" y="596" type="line"/>
    </contour>
    <contour>
      <point x="208" y="324" type="line"/>
      <point x="226" y="426" type="line"/>
      <point x="559" y="426" type="line"/>
      <point x="541" y="324" type="line"/>
    </contour>
    <contour>
      <point x="201" y="700" type="line"/>
      <point x="317" y="700" type="line"/>
      <point x="194" y="0" type="line"/>
      <point x="78" y="0" type="line"/>
    </contour>
    <contour>
      <point x="444" y="874" type="line"/>
      <point x="563" y="965" type="line"/>
      <point x="627" y="912" type="line"/>
      <point x="426" y="772" type="line"/>
      <point x="277" y="912" type="line"/>
      <point x="358" y="965" type="line"/>
    </contour>
  </outline>
</glyph>
<glyph name="Gbreve" format="1">
  <advance width="790"/>
  <unicode hex="011E"/>
  <outline>
    <contour>
      <point x="458" y="266" type="line"/>
      <point x="476" y="366" type="line"/>
      <point x="813" y="366" type="line"/>
      <point x="726" y="266" type="line"/>
    </contour>
    <contour>
      <point x="813" y="366" type="line"/>
      <point x="782" y="161"/>
      <point x="625" y="-15"/>
      <point x="401" y="-15" type="curve" smooth="yes"/>
      <point x="189" y="-15"/>
      <point x="62" y="136"/>
      <point x="100" y="350" type="curve" smooth="yes"/>
      <point x="138" y="564"/>
      <point x="320" y="712"/>
      <point x="532" y="712" type="curve" smooth="yes"/>
      <point x="668" y="712"/>
      <point x="760" y="654"/>
      <point x="805" y="557" type="curve"/>
      <point x="698" y="492" type="line"/>
      <point x="671" y="558"/>
      <point x="609" y="602"/>
      <point x="512" y="602" type="curve" smooth="yes"/>
      <point x="376" y="602"/>
      <point x="251" y="503"/>
      <point x="224" y="350" type="curve" smooth="yes"/>
      <point x="197" y="197"/>
      <point x="285" y="95"/>
      <point x="423" y="95" type="curve" smooth="yes"/>
      <point x="586" y="95"/>
      <point x="676" y="222"/>
      <point x="700" y="359" type="curve"/>
    </contour>
    <contour>
      <point x="407" y="915" type="curve"/>
      <point x="489" y="915" type="line"/>
      <point x="484" y="885"/>
      <point x="497" y="846"/>
      <point x="555" y="846" type="curve" smooth="yes"/>
      <point x="613" y="846"/>
      <point x="640" y="885"/>
      <point x="645" y="915" type="curve"/>
      <point x="728" y="915" type="line"/>
      <point x="715" y="841"/>
      <point x="647" y="772"/>
      <point x="542" y="772" type="curve" smooth="yes"/>
      <point x="437" y="772"/>
      <point x="394" y="841"/>
    </contour>
  </outline>
</glyph>
<glyph name="gbreve" format="1">
  <advance width="586"/>
  <unicode hex="011F"/>
  <outline>
    <contour>
      <point x="495" y="232" type="curve"/>
      <point x="456" y="232" type="line"/>
      <point x="473" y="326"/>
      <point x="412" y="376"/>
      <point x="350" y="376" type="curve" smooth="yes"/>
      <point x="275" y="376"/>
      <point x="203" y="324"/>
      <point x="187" y="232" type="curve"/>
      <point x="75" y="232" type="line"/>
      <point x="102" y="384"/>
      <point x="221" y="470"/>
      <point x="341" y="470" type="curve" smooth="yes"/>
      <point x="456" y="470"/>
      <point x="521" y="381"/>
    </contour>
    <contour>
      <point x="456" y="232" type="curve"/>
      <point x="495" y="232" type="line"/>
      <point x="469" y="83"/>
      <point x="372" y="-5"/>
      <point x="257" y="-5" type="curve" smooth="yes"/>
      <point x="137" y="-5"/>
      <point x="48" y="80"/>
      <point x="75" y="232" type="curve"/>
      <point x="187" y="232" type="line"/>
      <point x="171" y="140"/>
      <point x="225" y="89"/>
      <point x="300" y="89" type="curve" smooth="yes"/>
      <point x="362" y="89"/>
      <point x="439" y="138"/>
    </contour>
    <contour>
      <point x="38" y="-31" type="curve"/>
      <point x="145" y="-31" type="line"/>
      <point x="136" y="-93"/>
      <point x="177" y="-140"/>
      <point x="255" y="-140" type="curve" smooth="yes"/>
      <point x="323" y="-140"/>
      <point x="399" y="-94"/>
      <point x="417" y="10" type="curve" smooth="yes"/>
      <point x="496" y="460" type="line"/>
      <point x="602" y="460" type="line"/>
      <point x="523" y="10" type="line" smooth="yes"/>
      <point x="494" y="-156"/>
      <point x="367" y="-234"/>
      <point x="242" y="-234" type="curve" smooth="yes"/>
      <point x="92" y="-234"/>
      <point x="21" y="-151"/>
    </contour>
    <contour>
      <point x="241" y="673" type="curve"/>
      <point x="324" y="673" type="line"/>
      <point x="319" y="643"/>
      <point x="332" y="604"/>
      <point x="390" y="604" type="curve" smooth="yes"/>
      <point x="448" y="604"/>
      <point x="475" y="643"/>
      <point x="480" y="673" type="curve"/>
      <point x="563" y="673" type="line"/>
      <point x="550" y="599"/>
      <point x="481" y="530"/>
      <point x="376" y="530" type="curve" smooth="yes"/>
      <point x="271" y="530"/>
      <point x="228" y="599"/>
    </contour>
  </outline>
</glyph>
<glyph name="Gdotaccent" format="1">
  <advance width="790"/>
  <unicode hex="0120"/>
  <outline>
    <contour>
      <point x="458" y="266" type="line"/>
      <point x="476" y="366" type="line"/>
      <point x="813" y="366" type="line"/>
      <point x="726" y="266" type="line"/>
    </contour>
    <contour>
      <point x="813" y="366" type="line"/>
      <point x="782" y="161"/>
      <point x="625" y="-15"/>
      <point x="401" y="-15" type="curve" smooth="yes"/>
      <point x="189" y="-15"/>
      <point x="62" y="136"/>
      <point x="100" y="350" type="curve" smooth="yes"/>
      <point x="138" y="564"/>
      <point x="320" y="712"/>
      <point x="532" y="712" type="curve" smooth="yes"/>
      <point x="669" y="712"/>
      <point x="760" y="654"/>
      <point x="805" y="557" type="curve"/>
      <point x="698" y="492" type="line"/>
      <point x="671" y="558"/>
      <point x="609" y="602"/>
      <point x="512" y="602" type="curve" smooth="yes"/>
      <point x="376" y="602"/>
      <point x="251" y="503"/>
      <point x="224" y="350" type="curve" smooth="yes"/>
      <point x="197" y="197"/>
      <point x="285" y="95"/>
      <point x="423" y="95" type="curve" smooth="yes"/>
      <point x="586" y="95"/>
      <point x="676" y="222"/>
      <point x="700" y="359" type="curve"/>
    </contour>
    <contour>
      <point x="486" y="838" type="curve" smooth="yes"/>
      <point x="493" y="875"/>
      <point x="527" y="904"/>
      <point x="565" y="904" type="curve" smooth="yes"/>
      <point x="603" y="904"/>
      <point x="629" y="875"/>
      <point x="622" y="838" type="curve" smooth="yes"/>
      <point x="615" y="801"/>
      <point x="580" y="772"/>
      <point x="542" y="772" type="curve" smooth="yes"/>
      <point x="504" y="772"/>
      <point x="479" y="801"/>
    </contour>
  </outline>
</glyph>
<glyph name="itilde" format="1">
  <advance width="266"/>
  <unicode hex="0129"/>
  <outline>
    <contour>
      <point x="161" y="460" type="line"/>
      <point x="267" y="460" type="line"/>
      <point x="186" y="0" type="line"/>
      <point x="80" y="0" type="line"/>
    </contour>
    <contour>
      <point x="58" y="579" type="line"/>
      <point x="77" y="628"/>
      <point x="131" y="666"/>
      <point x="183" y="666" type="curve" smooth="yes"/>
      <point x="249" y="666"/>
      <point x="249" y="617"/>
      <point x="304" y="617" type="curve" smooth="yes"/>
      <point x="326" y="617"/>
      <point x="347" y="635"/>
      <point x="373" y="667" type="curve"/>
      <point x="419" y="611" type="line"/>
      <point x="396" y="574"/>
      <point x="342" y="533"/>
      <point x="287" y="533" type="curve" smooth="yes"/>
      <point x="232" y="533"/>
      <point x="215" y="583"/>
      <point x="168" y="583" type="curve" smooth="yes"/>
      <point x="128" y="583"/>
      <point x="113" y="547"/>
      <point x="110" y="532" type="curve"/>
    </contour>
  </outline>
</glyph>
<glyph name="Imacron" format="1">
  <advance width="275"/>
  <unicode hex="012A"/>
  <outline>
    <contour>
      <point x="201" y="700" type="line"/>
      <point x="321" y="700" type="line"/>
      <point x="198" y="0" type="line"/>
      <point x="78" y="0" type="line"/>
    </contour>
    <contour>
      <point x="94" y="772" type="line"/>
      <point x="111" y="870" type="line"/>
      <point x="470" y="870" type="line"/>
      <point x="453" y="772" type="line"/>
    </contour>
  </outline>
</glyph>
<glyph name="imacron" format="1">
  <advance width="266"/>
  <unicode hex="012B"/>
  <outline>
    <contour>
      <point x="161" y="460" type="line"/>
      <point x="267" y="460" type="line"/>
      <point x="186" y="0" type="line"/>
      <point x="80" y="0" type="line"/>
    </contour>
    <contour>
      <point x="47" y="530" type="line"/>
      <point x="65" y="628" type="line"/>
      <point x="423" y="628" type="line"/>
      <point x="405" y="530" type="line"/>
    </contour>
  </outline>
</glyph>
<glyph name="Iogonek" format="1">
  <advance width="275"/>
  <unicode hex="012E"/>
  <outline>
    <contour>
      <point x="201" y="700" type="line"/>
      <point x="321" y="700" type="line"/>
      <point x="198" y="0" type="line"/>
      <point x="78" y="0" type="line"/>
    </contour>
    <contour>
      <point x="167" y="-134" type="curve"/>
      <point x="190" y="-192" type="line"/>
      <point x="171" y="-212"/>
      <point x="139" y="-232"/>
      <point x="91" y="-232" type="curve" smooth="yes"/>
      <point x="15" y="-232"/>
      <point x="-23" y="-194"/>
      <point x="-12" y="-132" type="curve"/>
      <point x="79" y="-110" type="line"/>
      <point x="73" y="-142"/>
      <point x="86" y="-154"/>
      <point x="114" y="-154" type="curve" smooth="yes"/>
      <point x="138" y="-154"/>
      <point x="151" y="-147"/>
    </contour>
    <contour>
      <point x="79" y="-110" type="curve"/>
      <point x="-12" y="-132" type="line"/>
      <point x="-1" y="-70"/>
      <point x="71" y="-23"/>
      <point x="147" y="13" type="curve"/>
      <point x="184" y="-12" type="line"/>
      <point x="128" y="-36"/>
      <point x="85" y="-76"/>
    </contour>
  </outline>
</glyph>
<glyph name="Idotaccent" format="1">
  <advance width="275"/>
  <unicode hex="0130"/>
  <outline>
    <contour>
      <point x="201" y="700" type="line"/>
      <point x="320" y="700" type="line"/>
      <point x="197" y="0" type="line"/>
      <point x="78" y="0" type="line"/>
    </contour>
    <contour>
      <point x="217" y="838" type="curve" smooth="yes"/>
      <point x="224" y="875"/>
      <point x="258" y="904"/>
      <point x="296" y="904" type="curve" smooth="yes"/>
      <point x="334" y="904"/>
      <point x="360" y="875"/>
      <point x="353" y="838" type="curve" smooth="yes"/>
      <point x="346" y="801"/>
      <point x="311" y="772"/>
      <point x="273" y="772" type="curve" smooth="yes"/>
      <point x="235" y="772"/>
      <point x="210" y="801"/>
    </contour>
  </outline>
</glyph>
<glyph name="jcircumflex" format="1">
  <advance width="258"/>
  <unicode hex="0135"/>
  <outline>
    <contour>
      <point x="-41" y="-99" type="line"/>
      <point x="-31" y="-120"/>
      <point x="-15" y="-125"/>
      <point x="2" y="-125" type="curve" smooth="yes"/>
      <point x="32" y="-125"/>
      <point x="54" y="-102"/>
      <point x="64" y="-44" type="curve" smooth="yes"/>
      <point x="153" y="460" type="line"/>
      <point x="260" y="460" type="line"/>
      <point x="168" y="-65" type="line" smooth="yes"/>
      <point x="149" y="-171"/>
      <point x="86" y="-228"/>
      <point x="-10" y="-228" type="curve" smooth="yes"/>
      <point x="-63" y="-228"/>
      <point x="-92" y="-203"/>
      <point x="-106" y="-183" type="curve"/>
    </contour>
    <contour>
      <point x="236" y="622" type="line"/>
      <point x="116" y="530" type="line"/>
      <point x="53" y="583" type="line"/>
      <point x="253" y="723" type="line"/>
      <point x="403" y="583" type="line"/>
      <point x="321" y="530" type="line"/>
    </contour>
  </outline>
</glyph>
<glyph name="kgreenlandic" format="1">
  <advance width="495"/>
  <unicode hex="0138"/>
  <outline>
    <contour>
      <point x="146" y="460" type="line"/>
      <point x="252" y="460" type="line"/>
      <point x="171" y="0" type="line"/>
      <point x="65" y="0" type="line"/>
    </contour>
    <contour>
      <point x="421" y="460" type="line"/>
      <point x="553" y="460" type="line"/>
      <point x="322" y="270" type="line"/>
      <point x="492" y="0" type="line"/>
      <point x="361" y="0" type="line"/>
      <point x="190" y="270" type="line"/>
    </contour>
  </outline>
</glyph>
<glyph name="Lacute" format="1">
  <advance width="481"/>
  <unicode hex="0139"/>
  <outline>
    <contour>
      <point x="151" y="0" type="line"/>
      <point x="170" y="106" type="line"/>
      <point x="493" y="106" type="line"/>
      <point x="474" y="0" type="line"/>
    </contour>
    <contour>
      <point x="201" y="700" type="line"/>
      <point x="319" y="700" type="line"/>
      <point x="196" y="0" type="line"/>
      <point x="78" y="0" type="line"/>
    </contour>
    <contour>
      <point x="581" y="922" type="line"/>
      <point x="374" y="772" type="line"/>
      <point x="319" y="808" type="line"/>
      <point x="498" y="968" type="line"/>
    </contour>
  </outline>
</glyph>
<glyph name="uni013B" format="1">
  <advance width="481"/>
  <unicode hex="013B"/>
  <outline>
    <contour>
      <point x="151" y="0" type="line"/>
      <point x="170" y="106" type="line"/>
      <point x="493" y="106" type="line"/>
      <point x="474" y="0" type="line"/>
    </contour>
    <contour>
      <point x="201" y="700" type="line"/>
      <point x="319" y="700" type="line"/>
      <point x="196" y="0" type="line"/>
      <point x="78" y="0" type="line"/>
    </contour>
    <contour>
      <point x="254" y="-60" type="line"/>
      <point x="358" y="-91" type="line"/>
      <point x="198" y="-341" type="line"/>
      <point x="121" y="-319" type="line"/>
    </contour>
  </outline>
</glyph>
<glyph name="Lcaron" format="1">
  <advance width="481"/>
  <unicode hex="013D"/>
  <outline>
    <contour>
      <point x="151" y="0" type="line"/>
      <point x="170" y="106" type="line"/>
      <point x="493" y="106" type="line"/>
      <point x="474" y="0" type="line"/>
    </contour>
    <contour>
      <point x="201" y="700" type="line"/>
      <point x="319" y="700" type="line"/>
      <point x="196" y="0" type="line"/>
      <point x="78" y="0" type="line"/>
    </contour>
    <contour>
      <point x="473" y="712" type="line"/>
      <point x="576" y="682" type="line"/>
      <point x="415" y="432" type="line"/>
      <point x="339" y="454" type="line"/>
    </contour>
  </outline>
</glyph>
<glyph name="ldot" format="1">
  <advance width="412"/>
  <unicode hex="0140"/>
  <outline>
    <contour>
      <point x="207" y="780" type="line"/>
      <point x="316" y="780" type="line"/>
      <point x="178" y="0" type="line"/>
      <point x="69" y="0" type="line"/>
    </contour>
    <contour>
      <point x="303" y="412" type="curve" smooth="yes"/>
      <point x="310" y="450"/>
      <point x="346" y="482"/>
      <point x="386" y="482" type="curve" smooth="yes"/>
      <point x="426" y="482"/>
      <point x="452" y="450"/>
      <point x="445" y="412" type="curve" smooth="yes"/>
      <point x="438" y="374"/>
      <point x="401" y="342"/>
      <point x="361" y="342" type="curve" smooth="yes"/>
      <point x="321" y="342"/>
      <point x="296" y="374"/>
    </contour>
  </outline>
</glyph>
<glyph name="Lslash" format="1">
  <advance width="480"/>
  <unicode hex="0141"/>
  <outline>
    <contour>
      <point x="63" y="329" type="line"/>
      <point x="47" y="391" type="line"/>
      <point x="386" y="588" type="line"/>
      <point x="402" y="526" type="line"/>
    </contour>
    <contour>
      <point x="155" y="0" type="line"/>
      <point x="173" y="104" type="line"/>
      <point x="489" y="104" type="line"/>
      <point x="471" y="0" type="line"/>
    </contour>
    <contour>
      <point x="201" y="700" type="line"/>
      <point x="316" y="700" type="line"/>
      <point x="193" y="0" type="line"/>
      <point x="78" y="0" type="line"/>
    </contour>
  </outline>
</glyph>
<glyph name="lslash" format="1">
  <advance width="244"/>
  <unicode hex="0142"/>
  <outline>
    <contour>
      <point x="59" y="329" type="line"/>
      <point x="43" y="391" type="line"/>
      <point x="353" y="565" type="line"/>
      <point x="369" y="504" type="line"/>
    </contour>
    <contour>
      <point x="207" y="780" type="line"/>
      <point x="313" y="780" type="line"/>
      <point x="175" y="0" type="line"/>
      <point x="69" y="0" type="line"/>
    </contour>
  </outline>
</glyph>
<glyph name="Ncaron" format="1">
  <advance width="782"/>
  <unicode hex="0147"/>
  <outline>
    <contour>
      <point x="183" y="572" type="line"/>
      <point x="208" y="735" type="line"/>
      <point x="723" y="128" type="line"/>
      <point x="699" y="-35" type="line"/>
    </contour>
    <contour>
      <point x="712" y="700" type="line"/>
      <point x="828" y="700" type="line"/>
      <point x="699" y="-35" type="line"/>
      <point x="608" y="105" type="line"/>
    </contour>
    <contour>
      <point x="208" y="735" type="line"/>
      <point x="299" y="595" type="line"/>
      <point x="194" y="0" type="line"/>
      <point x="78" y="0" type="line"/>
    </contour>
    <contour>
      <point x="547" y="889" type="line"/>
      <point x="665" y="980" type="line"/>
      <point x="729" y="928" type="line"/>
      <point x="529" y="788" type="line"/>
      <point x="379" y="928" type="line"/>
      <point x="461" y="980" type="line"/>
    </contour>
  </outline>
</glyph>
<glyph name="napostrophe" format="1">
  <advance width="680"/>
  <unicode hex="0149"/>
  <outline>
    <contour>
      <point x="393" y="460" type="line"/>
      <point x="312" y="0" type="line"/>
      <point x="204" y="0" type="line"/>
      <point x="285" y="460" type="line"/>
    </contour>
    <contour>
      <point x="549" y="280" type="line" smooth="yes"/>
      <point x="561" y="347"/>
      <point x="541" y="383"/>
      <point x="482" y="383" type="curve" smooth="yes"/>
      <point x="421" y="383"/>
      <point x="372" y="341"/>
      <point x="361" y="280" type="curve"/>
      <point x="328" y="278" type="line"/>
      <point x="347" y="387"/>
      <point x="432" y="470"/>
      <point x="534" y="470" type="curve" smooth="yes"/>
      <point x="636" y="470"/>
      <point x="682" y="408"/>
      <point x="662" y="292" type="curve" smooth="yes"/>
      <point x="611" y="0" type="line"/>
      <point x="500" y="0" type="line"/>
    </contour>
    <contour>
      <point x="245" y="700" type="line"/>
      <point x="365" y="700" type="line"/>
      <point x="222" y="460" type="line"/>
      <point x="146" y="460" type="line"/>
    </contour>
  </outline>
</glyph>
<glyph name="OE" format="1">
  <advance width="985"/>
  <unicode hex="0152"/>
  <outline>
    <contour>
      <point x="619" y="324" type="line"/>
      <point x="637" y="426" type="line"/>
      <point x="984" y="426" type="line"/>
      <point x="966" y="324" type="line"/>
    </contour>
    <contour>
      <point x="620" y="670" type="line"/>
      <point x="737" y="670" type="line"/>
      <point x="624" y="30" type="line"/>
      <point x="507" y="30" type="line"/>
    </contour>
    <contour>
      <point x="948" y="104" type="line"/>
      <point x="930" y="0" type="line"/>
      <point x="390" y="0" type="line" smooth="yes"/>
      <point x="187" y="0"/>
      <point x="63" y="141"/>
      <point x="100" y="350" type="curve" smooth="yes"/>
      <point x="137" y="559"/>
      <point x="309" y="700"/>
      <point x="513" y="700" type="curve" smooth="yes"/>
      <point x="1052" y="700" type="line"/>
      <point x="1034" y="596" type="line"/>
      <point x="673" y="596" type="line"/>
      <point x="655" y="592" type="line"/>
      <point x="506" y="592" type="line" smooth="yes"/>
      <point x="356" y="592"/>
      <point x="247" y="500"/>
      <point x="221" y="350" type="curve" smooth="yes"/>
      <point x="195" y="200"/>
      <point x="271" y="108"/>
      <point x="421" y="108" type="curve" smooth="yes"/>
      <point x="567" y="108" type="line"/>
      <point x="590" y="104" type="line"/>
    </contour>
  </outline>
</glyph>
<glyph name="rcaron" format="1">
  <advance width="370"/>
  <unicode hex="0159"/>
  <outline>
    <contour>
      <point x="257" y="460" type="line"/>
      <point x="176" y="0" type="line"/>
      <point x="69" y="0" type="line"/>
      <point x="150" y="460" type="line"/>
    </contour>
    <contour>
      <point x="374" y="344" type="line"/>
      <point x="357" y="360"/>
      <point x="343" y="369"/>
      <point x="317" y="369" type="curve" smooth="yes"/>
      <point x="263" y="369"/>
      <point x="234" y="325"/>
      <point x="222" y="259" type="curve"/>
      <point x="189" y="280" type="line"/>
      <point x="208" y="389"/>
      <point x="294" y="470"/>
      <point x="364" y="470" type="curve" smooth="yes"/>
      <point x="397" y="470"/>
      <point x="426" y="460"/>
      <point x="443" y="436" type="curve"/>
    </contour>
    <contour>
      <point x="328" y="632" type="line"/>
      <point x="446" y="723" type="line"/>
      <point x="510" y="670" type="line"/>
      <point x="310" y="530" type="line"/>
      <point x="160" y="670" type="line"/>
      <point x="241" y="723" type="line"/>
    </contour>
  </outline>
</glyph>
<glyph name="Scedilla" format="1">
  <advance width="579"/>
  <unicode hex="015E"/>
  <outline>
    <contour>
      <point x="170" y="236" type="line"/>
      <point x="198" y="145"/>
      <point x="240" y="92"/>
      <point x="322" y="92" type="curve" smooth="yes"/>
      <point x="392" y="92"/>
      <point x="434" y="127"/>
      <point x="445" y="187" type="curve" smooth="yes"/>
      <point x="459" y="265"/>
      <point x="388" y="294"/>
      <point x="313" y="324" type="curve" smooth="yes"/>
      <point x="248" y="350"/>
      <point x="146" y="403"/>
      <point x="168" y="529" type="curve" smooth="yes"/>
      <point x="188" y="640"/>
      <point x="295" y="712"/>
      <point x="421" y="712" type="curve" smooth="yes"/>
      <point x="549" y="712"/>
      <point x="611" y="632"/>
      <point x="626" y="561" type="curve"/>
      <point x="524" y="504" type="line"/>
      <point x="504" y="560"/>
      <point x="474" y="606"/>
      <point x="406" y="606" type="curve" smooth="yes"/>
      <point x="344" y="606"/>
      <point x="299" y="574"/>
      <point x="290" y="523" type="curve" smooth="yes"/>
      <point x="279" y="463"/>
      <point x="351" y="434"/>
      <point x="430" y="403" type="curve" smooth="yes"/>
      <point x="508" y="373"/>
      <point x="592" y="316"/>
      <point x="570" y="192" type="curve" smooth="yes"/>
      <point x="547" y="64"/>
      <point x="448" y="-15"/>
      <point x="299" y="-15" type="curve" smooth="yes"/>
      <point x="179" y="-15"/>
      <point x="93" y="62"/>
      <point x="69" y="177" type="curve"/>
    </contour>
    <contour>
      <point x="307" y="60" type="line"/>
      <point x="386" y="58" type="line"/>
      <point x="284" y="-69" type="line"/>
      <point x="189" y="-119" type="line"/>
    </contour>
    <contour>
      <point x="379" y="-140" type="curve"/>
      <point x="308" y="-136" type="line"/>
      <point x="312" y="-111"/>
      <point x="293" y="-102"/>
      <point x="260" y="-102" type="curve" smooth="yes"/>
      <point x="250" y="-102"/>
      <point x="220" y="-103"/>
      <point x="189" y="-119" type="curve"/>
      <point x="246" y="-77" type="line"/>
      <point x="276" y="-57"/>
      <point x="294" y="-56"/>
      <point x="314" y="-56" type="curve" smooth="yes"/>
      <point x="350" y="-56"/>
      <point x="389" y="-84"/>
    </contour>
    <contour>
      <point x="379" y="-140" type="line"/>
      <point x="367" y="-206"/>
      <point x="304" y="-240"/>
      <point x="246" y="-240" type="curve" smooth="yes"/>
      <point x="202" y="-240"/>
      <point x="172" y="-230"/>
      <point x="141" y="-201" type="curve"/>
      <point x="189" y="-150" type="line"/>
      <point x="208" y="-167"/>
      <point x="225" y="-174"/>
      <point x="249" y="-174" type="curve" smooth="yes"/>
      <point x="283" y="-174"/>
      <point x="304" y="-160"/>
      <point x="308" y="-136" type="curve"/>
    </contour>
  </outline>
</glyph>
<glyph name="Ydieresis" format="1">
  <advance width="600"/>
  <unicode hex="0178"/>
  <outline>
    <contour>
      <point x="303" y="360" type="line"/>
      <point x="423" y="360" type="line"/>
      <point x="360" y="0" type="line"/>
      <point x="240" y="0" type="line"/>
    </contour>
    <contour>
      <point x="586" y="700" type="line"/>
      <point x="721" y="700" type="line"/>
      <point x="334" y="193" type="line"/>
      <point x="125" y="700" type="line"/>
      <point x="261" y="700" type="line"/>
      <point x="371" y="400" type="line"/>
    </contour>
    <contour>
      <point x="497" y="838" type="curve" smooth="yes"/>
      <point x="504" y="875"/>
      <point x="538" y="904"/>
      <point x="576" y="904" type="curve" smooth="yes"/>
      <point x="614" y="904"/>
      <point x="641" y="875"/>
      <point x="634" y="838" type="curve" smooth="yes"/>
      <point x="627" y="801"/>
      <point x="591" y="772"/>
      <point x="553" y="772" type="curve" smooth="yes"/>
      <point x="515" y="772"/>
      <point x="490" y="801"/>
    </contour>
    <contour>
      <point x="264" y="838" type="curve" smooth="yes"/>
      <point x="271" y="875"/>
      <point x="304" y="904"/>
      <point x="342" y="904" type="curve" smooth="yes"/>
      <point x="380" y="904"/>
      <point x="407" y="875"/>
      <point x="400" y="838" type="curve" smooth="yes"/>
      <point x="393" y="801"/>
      <point x="357" y="772"/>
      <point x="319" y="772" type="curve" smooth="yes"/>
      <point x="281" y="772"/>
      <point x="257" y="801"/>
    </contour>
  </outline>
</glyph>
<glyph name="Zacute" format="1">
  <advance width="575"/>
  <unicode hex="0179"/>
  <outline>
    <contour>
      <point x="148" y="591" type="line"/>
      <point x="167" y="700" type="line"/>
      <point x="681" y="700" type="line"/>
      <point x="220" y="106" type="line"/>
      <point x="550" y="106" type="line"/>
      <point x="531" y="0" type="line"/>
      <point x="12" y="0" type="line"/>
      <point x="471" y="591" type="line"/>
    </contour>
    <contour>
      <point x="622.872" y="922" type="line"/>
      <point x="416.872" y="772" type="line"/>
      <point x="360.872" y="806" type="line"/>
      <point x="538.872" y="966" type="line"/>
    </contour>
  </outline>
</glyph>
<glyph name="zacute" format="1">
  <advance width="485"/>
  <unicode hex="017A"/>
  <outline>
    <contour>
      <point x="345" y="360" type="line"/>
      <point x="113" y="360" type="line"/>
      <point x="131" y="460" type="line"/>
      <point x="551" y="460" type="line"/>
      <point x="225" y="100" type="line"/>
      <point x="463" y="100" type="line"/>
      <point x="445" y="0" type="line"/>
      <point x="15" y="0" type="line"/>
    </contour>
    <contour>
      <point x="539.52" y="690" type="line"/>
      <point x="333.52" y="540" type="line"/>
      <point x="277.52" y="574" type="line"/>
      <point x="455.52" y="734" type="line"/>
    </contour>
  </outline>
</glyph>
<glyph name="Zdotaccent" format="1">
  <advance width="575"/>
  <unicode hex="017B"/>
  <outline>
    <contour>
      <point x="148" y="591" type="line"/>
      <point x="167" y="700" type="line"/>
      <point x="681" y="700" type="line"/>
      <point x="220" y="106" type="line"/>
      <point x="550" y="106" type="line"/>
      <point x="531" y="0" type="line"/>
      <point x="12" y="0" type="line"/>
      <point x="471" y="591" type="line"/>
    </contour>
    <contour>
      <point x="360.51" y="838" type="curve" smooth="yes"/>
      <point x="367.51" y="875"/>
      <point x="402.51" y="904"/>
      <point x="440.51" y="904" type="curve" smooth="yes"/>
      <point x="478.51" y="904"/>
      <point x="503.51" y="875"/>
      <point x="496.51" y="838" type="curve" smooth="yes"/>
      <point x="489.51" y="801"/>
      <point x="454.51" y="772"/>
      <point x="416.51" y="772" type="curve" smooth="yes"/>
      <point x="378.51" y="772"/>
      <point x="353.51" y="801"/>
    </contour>
  </outline>
</glyph>
<glyph name="zdotaccent" format="1">
  <advance width="485"/>
  <unicode hex="017C"/>
  <outline>
    <contour>
      <point x="345" y="360" type="line"/>
      <point x="113" y="360" type="line"/>
      <point x="131" y="460" type="line"/>
      <point x="551" y="460" type="line"/>
      <point x="225" y="100" type="line"/>
      <point x="463" y="100" type="line"/>
      <point x="445" y="0" type="line"/>
      <point x="15" y="0" type="line"/>
    </contour>
    <contour>
      <point x="297.157" y="626" type="curve" smooth="yes"/>
      <point x="304.157" y="663"/>
      <point x="339.157" y="692"/>
      <point x="377.157" y="692" type="curve" smooth="yes"/>
      <point x="415.157" y="692"/>
      <point x="440.157" y="663"/>
      <point x="433.157" y="626" type="curve" smooth="yes"/>
      <point x="426.157" y="589"/>
      <point x="391.157" y="560"/>
      <point x="353.157" y="560" type="curve" smooth="yes"/>
      <point x="315.157" y="560"/>
      <point x="290.157" y="589"/>
    </contour>
  </outline>
</glyph>
<glyph name="Zcaron" format="1">
  <advance width="575"/>
  <unicode hex="017D"/>
  <outline>
    <contour>
      <point x="148" y="591" type="line"/>
      <point x="167" y="700" type="line"/>
      <point x="681" y="700" type="line"/>
      <point x="223" y="106" type="line"/>
      <point x="550" y="106" type="line"/>
      <point x="531" y="0" type="line"/>
      <point x="12" y="0" type="line"/>
      <point x="468" y="591" type="line"/>
    </contour>
    <contour>
      <point x="454" y="874" type="line"/>
      <point x="573" y="965" type="line"/>
      <point x="637" y="912" type="line"/>
      <point x="436" y="772" type="line"/>
      <point x="287" y="912" type="line"/>
      <point x="368" y="965" type="line"/>
    </contour>
  </outline>
</glyph>
<glyph name="zcaron" format="1">
  <advance width="482"/>
  <unicode hex="017E"/>
  <outline>
    <contour>
      <point x="138" y="100" type="line"/>
      <point x="463" y="100" type="line"/>
      <point x="445" y="0" type="line"/>
      <point x="15" y="0" type="line"/>
    </contour>
    <contour>
      <point x="131" y="460" type="line"/>
      <point x="551" y="460" type="line"/>
      <point x="431" y="360" type="line"/>
      <point x="113" y="360" type="line"/>
    </contour>
    <contour>
      <point x="439" y="460" type="line"/>
      <point x="551" y="460" type="line"/>
      <point x="135" y="0" type="line"/>
      <point x="15" y="0" type="line"/>
    </contour>
    <contour>
      <point x="371" y="632" type="line"/>
      <point x="489" y="722" type="line"/>
      <point x="553" y="670" type="line"/>
      <point x="353" y="530" type="line"/>
      <point x="203" y="670" type="line"/>
      <point x="285" y="722" type="line"/>
    </contour>
  </outline>
</glyph>
<glyph name="caron" format="1">
  <advance width="480"/>
  <unicode hex="02C7"/>
  <outline>
    <contour>
      <point x="357" y="664" type="line"/>
      <point x="475" y="755" type="line"/>
      <point x="539" y="702" type="line"/>
      <point x="339" y="562" type="line"/>
      <point x="189" y="702" type="line"/>
      <point x="271" y="755" type="line"/>
    </contour>
  </outline>
</glyph>
<glyph name="dotaccent" format="1">
  <advance width="300"/>
  <unicode hex="02D9"/>
  <outline>
    <contour>
      <point x="223" y="800" type="curve" smooth="yes"/>
      <point x="230" y="837"/>
      <point x="265" y="866"/>
      <point x="303" y="866" type="curve" smooth="yes"/>
      <point x="341" y="866"/>
      <point x="366" y="837"/>
      <point x="359" y="800" type="curve" smooth="yes"/>
      <point x="352" y="763"/>
      <point x="317" y="734"/>
      <point x="279" y="734" type="curve" smooth="yes"/>
      <point x="241" y="734"/>
      <point x="216" y="763"/>
    </contour>
  </outline>
</glyph>
<glyph name="ring" format="1">
  <advance width="298"/>
  <unicode hex="02DA"/>
  <outline>
    <contour>
      <point x="175" y="779" type="curve" smooth="yes"/>
      <point x="186" y="843"/>
      <point x="246" y="885"/>
      <point x="305" y="885" type="curve" smooth="yes"/>
      <point x="364" y="885"/>
      <point x="408" y="843"/>
      <point x="397" y="779" type="curve" smooth="yes"/>
      <point x="386" y="715"/>
      <point x="326" y="672"/>
      <point x="267" y="672" type="curve" smooth="yes"/>
      <point x="208" y="672"/>
      <point x="164" y="715"/>
    </contour>
    <contour>
      <point x="237" y="779" type="curve" smooth="yes"/>
      <point x="231" y="747"/>
      <point x="252" y="728"/>
      <point x="277" y="728" type="curve" smooth="yes"/>
      <point x="302" y="728"/>
      <point x="329" y="747"/>
      <point x="335" y="779" type="curve" smooth="yes"/>
      <point x="341" y="811"/>
      <point x="320" y="830"/>
      <point x="295" y="830" type="curve" smooth="yes"/>
      <point x="270" y="830"/>
      <point x="243" y="811"/>
    </contour>
  </outline>
</glyph>
<glyph name="tilde" format="1">
  <advance width="530"/>
  <unicode hex="02DC"/>
  <outline>
    <contour>
      <point x="201" y="630" type="line"/>
      <point x="220" y="679"/>
      <point x="274" y="717"/>
      <point x="326" y="717" type="curve" smooth="yes"/>
      <point x="392" y="717"/>
      <point x="392" y="668"/>
      <point x="447" y="668" type="curve" smooth="yes"/>
      <point x="469" y="668"/>
      <point x="490" y="686"/>
      <point x="516" y="718" type="curve"/>
      <point x="562" y="662" type="line"/>
      <point x="539" y="625"/>
      <point x="486" y="584"/>
      <point x="431" y="584" type="curve" smooth="yes"/>
      <point x="376" y="584"/>
      <point x="358" y="634"/>
      <point x="311" y="634" type="curve" smooth="yes"/>
      <point x="271" y="634"/>
      <point x="256" y="598"/>
      <point x="253" y="583" type="curve"/>
    </contour>
  </outline>
</glyph>
<glyph name="uni1E9E" format="1">
  <advance width="779"/>
  <unicode hex="1E9E"/>
  <outline>
    <contour>
      <point x="146" y="377" type="line"/>
      <point x="261" y="368" type="line"/>
      <point x="196" y="0" type="line"/>
      <point x="80" y="0" type="line"/>
    </contour>
    <contour>
      <point x="516" y="345" type="curve"/>
      <point x="527" y="406" type="line"/>
      <point x="613" y="406"/>
      <point x="669" y="452"/>
      <point x="680" y="514" type="curve" smooth="yes"/>
      <point x="690" y="573"/>
      <point x="638" y="614"/>
      <point x="538" y="614" type="curve" smooth="yes"/>
      <point x="413" y="614"/>
      <point x="293" y="547"/>
      <point x="261" y="368" type="curve"/>
      <point x="146" y="377" type="line"/>
      <point x="186" y="602"/>
      <point x="354" y="710"/>
      <point x="552" y="710" type="curve" smooth="yes"/>
      <point x="717" y="710"/>
      <point x="821" y="644"/>
      <point x="801" y="530" type="curve" smooth="yes"/>
      <point x="782" y="421"/>
      <point x="667" y="345"/>
    </contour>
    <contour>
      <point x="489" y="-12" type="curve" smooth="yes"/>
      <point x="336" y="-12"/>
      <point x="272" y="90"/>
      <point x="291" y="199" type="curve"/>
      <point x="400" y="199" type="line"/>
      <point x="389" y="135"/>
      <point x="432" y="88"/>
      <point x="507" y="88" type="curve" smooth="yes"/>
      <point x="583" y="88"/>
      <point x="634" y="130"/>
      <point x="646" y="199" type="curve" smooth="yes"/>
      <point x="660" y="278"/>
      <point x="601" y="318"/>
      <point x="511" y="318" type="curve"/>
      <point x="522" y="380" type="line"/>
      <point x="673" y="380"/>
      <point x="786" y="324"/>
      <point x="761" y="185" type="curve" smooth="yes"/>
      <point x="740" y="66"/>
      <point x="625" y="-12"/>
    </contour>
  </outline>
</glyph>
<glyph name="emdash" format="1">
  <advance width="910"/>
  <unicode hex="2014"/>
  <outline>
    <contour>
      <point x="103" y="189" type="line"/>
      <point x="120" y="286" type="line"/>
      <point x="889" y="286" type="line"/>
      <point x="872" y="189" type="line"/>
    </contour>
  </outline>
</glyph>
<glyph name="quoteright" format="1">
  <advance width="297"/>
  <unicode hex="2019"/>
  <outline>
    <contour>
      <point x="231" y="700" type="line"/>
      <point x="351" y="700" type="line"/>
      <point x="207" y="460" type="line"/>
      <point x="131" y="460" type="line"/>
    </contour>
  </outline>
</glyph>
<glyph name="quotesinglbase" format="1">
  <advance width="297"/>
  <unicode hex="201A"/>
  <outline>
    <contour>
      <point x="132" y="80" type="line"/>
      <point x="252" y="80" type="line"/>
      <point x="108" y="-160" type="line"/>
      <point x="32" y="-160" type="line"/>
    </contour>
  </outline>
</glyph>
<glyph name="quotedblleft" format="1">
  <advance width="510"/>
  <unicode hex="201C"/>
  <outline>
    <contour>
      <point x="271" y="460" type="line"/>
      <point x="151" y="460" type="line"/>
      <point x="294" y="700" type="line"/>
      <point x="371" y="700" type="line"/>
    </contour>
    <contour>
      <point x="483" y="460" type="line"/>
      <point x="363" y="460" type="line"/>
      <point x="507" y="700" type="line"/>
      <point x="583" y="700" type="line"/>
    </contour>
  </outline>
</glyph>
<glyph name="dagger" format="1">
  <advance width="595"/>
  <unicode hex="2020"/>
  <outline>
    <contour>
      <point x="185" y="540" type="line"/>
      <point x="600" y="540" type="line"/>
      <point x="583" y="445" type="line"/>
      <point x="168" y="445" type="line"/>
    </contour>
    <contour>
      <point x="368" y="700" type="line"/>
      <point x="473" y="700" type="line"/>
      <point x="324" y="-150" type="line"/>
      <point x="219" y="-150" type="line"/>
    </contour>
  </outline>
</glyph>
<glyph name="ellipsis" format="1">
  <advance width="910"/>
  <unicode hex="2026"/>
  <outline>
    <contour>
      <point x="93" y="51" type="curve" smooth="yes"/>
      <point x="100" y="89"/>
      <point x="135" y="121"/>
      <point x="175" y="121" type="curve" smooth="yes"/>
      <point x="215" y="121"/>
      <point x="241" y="89"/>
      <point x="234" y="51" type="curve" smooth="yes"/>
      <point x="227" y="13"/>
      <point x="191" y="-19"/>
      <point x="151" y="-19" type="curve" smooth="yes"/>
      <point x="111" y="-19"/>
      <point x="86" y="13"/>
    </contour>
    <contour>
      <point x="393" y="51" type="curve" smooth="yes"/>
      <point x="400" y="89"/>
      <point x="435" y="121"/>
      <point x="475" y="121" type="curve" smooth="yes"/>
      <point x="515" y="121"/>
      <point x="541" y="89"/>
      <point x="534" y="51" type="curve" smooth="yes"/>
      <point x="527" y="13"/>
      <point x="491" y="-19"/>
      <point x="451" y="-19" type="curve" smooth="yes"/>
      <point x="411" y="-19"/>
      <point x="386" y="13"/>
    </contour>
    <contour>
      <point x="693" y="51" type="curve" smooth="yes"/>
      <point x="700" y="89"/>
      <point x="735" y="121"/>
      <point x="775" y="121" type="curve" smooth="yes"/>
      <point x="815" y="121"/>
      <point x="841" y="89"/>
      <point x="834" y="51" type="curve" smooth="yes"/>
      <point x="827" y="13"/>
      <point x="791" y="-19"/>
      <point x="751" y="-19" type="curve" smooth="yes"/>
      <point x="711" y="-19"/>
      <point x="686" y="13"/>
    </contour>
  </outline>
</glyph>
<glyph name="uni2031" format="1">
  <advance width="1638"/>
  <unicode hex="2031"/>
  <outline>
    <contour>
      <point x="1296" y="156" type="curve" smooth="yes"/>
      <point x="1313" y="250"/>
      <point x="1395" y="326"/>
      <point x="1495" y="326" type="curve" smooth="yes"/>
      <point x="1595" y="326"/>
      <point x="1653" y="250"/>
      <point x="1636" y="156" type="curve" smooth="yes"/>
      <point x="1619" y="62"/>
      <point x="1536" y="-14"/>
      <point x="1436" y="-14" type="curve" smooth="yes"/>
      <point x="1336" y="-14"/>
      <point x="1279" y="62"/>
    </contour>
    <contour>
      <point x="1388" y="156" type="curve" smooth="yes"/>
      <point x="1380" y="111"/>
      <point x="1403" y="73"/>
      <point x="1451" y="73" type="curve" smooth="yes"/>
      <point x="1499" y="73"/>
      <point x="1536" y="111"/>
      <point x="1544" y="156" type="curve" smooth="yes"/>
      <point x="1552" y="201"/>
      <point x="1528" y="240"/>
      <point x="1480" y="240" type="curve" smooth="yes"/>
      <point x="1432" y="240"/>
      <point x="1396" y="201"/>
    </contour>
    <contour>
      <point x="886" y="156" type="curve" smooth="yes"/>
      <point x="903" y="250"/>
      <point x="985" y="326"/>
      <point x="1085" y="326" type="curve" smooth="yes"/>
      <point x="1185" y="326"/>
      <point x="1243" y="250"/>
      <point x="1226" y="156" type="curve" smooth="yes"/>
      <point x="1209" y="62"/>
      <point x="1126" y="-14"/>
      <point x="1026" y="-14" type="curve" smooth="yes"/>
      <point x="926" y="-14"/>
      <point x="869" y="62"/>
    </contour>
    <contour>
      <point x="978" y="156" type="curve" smooth="yes"/>
      <point x="970" y="111"/>
      <point x="993" y="73"/>
      <point x="1041" y="73" type="curve" smooth="yes"/>
      <point x="1089" y="73"/>
      <point x="1126" y="111"/>
      <point x="1134" y="156" type="curve" smooth="yes"/>
      <point x="1142" y="201"/>
      <point x="1118" y="240"/>
      <point x="1070" y="240" type="curve" smooth="yes"/>
      <point x="1022" y="240"/>
      <point x="986" y="201"/>
    </contour>
    <contour>
      <point x="126" y="544" type="curve" smooth="yes"/>
      <point x="143" y="638"/>
      <point x="226" y="714"/>
      <point x="326" y="714" type="curve" smooth="yes"/>
      <point x="426" y="714"/>
      <point x="484" y="638"/>
      <point x="467" y="544" type="curve" smooth="yes"/>
      <point x="450" y="450"/>
      <point x="366" y="374"/>
      <point x="266" y="374" type="curve" smooth="yes"/>
      <point x="166" y="374"/>
      <point x="109" y="450"/>
    </contour>
    <contour>
      <point x="218" y="544" type="curve" smooth="yes"/>
      <point x="210" y="499"/>
      <point x="233" y="460"/>
      <point x="281" y="460" type="curve" smooth="yes"/>
      <point x="329" y="460"/>
      <point x="366" y="499"/>
      <point x="374" y="544" type="curve" smooth="yes"/>
      <point x="382" y="589"/>
      <point x="359" y="627"/>
      <point x="311" y="627" type="curve" smooth="yes"/>
      <point x="263" y="627"/>
      <point x="226" y="589"/>
    </contour>
    <contour>
      <point x="476" y="156" type="curve" smooth="yes"/>
      <point x="493" y="250"/>
      <point x="575" y="326"/>
      <point x="675" y="326" type="curve" smooth="yes"/>
      <point x="775" y="326"/>
      <point x="833" y="250"/>
      <point x="816" y="156" type="curve" smooth="yes"/>
      <point x="799" y="62"/>
      <point x="716" y="-14"/>
      <point x="616" y="-14" type="curve" smooth="yes"/>
      <point x="516" y="-14"/>
      <point x="459" y="62"/>
    </contour>
    <contour>
      <point x="568" y="156" type="curve" smooth="yes"/>
      <point x="560" y="111"/>
      <point x="583" y="73"/>
      <point x="631" y="73" type="curve" smooth="yes"/>
      <point x="679" y="73"/>
      <point x="716" y="111"/>
      <point x="724" y="156" type="curve" smooth="yes"/>
      <point x="732" y="201"/>
      <point x="708" y="240"/>
      <point x="660" y="240" type="curve" smooth="yes"/>
      <point x="612" y="240"/>
      <point x="576" y="201"/>
    </contour>
    <contour>
      <point x="721" y="700" type="line"/>
      <point x="829" y="700" type="line"/>
      <point x="220" y="0" type="line"/>
      <point x="113" y="0" type="line"/>
    </contour>
  </outline>
</glyph>
<glyph name="uni2070" format="1">
  <advance width="379"/>
  <unicode hex="2070"/>
  <outline>
    <contour>
      <point x="182" y="490" type="curve" smooth="yes"/>
      <point x="166" y="400"/>
      <point x="191" y="337"/>
      <point x="249" y="337" type="curve" smooth="yes"/>
      <point x="307" y="337"/>
      <point x="354" y="400"/>
      <point x="370" y="490" type="curve" smooth="yes"/>
      <point x="386" y="580"/>
      <point x="361" y="643"/>
      <point x="303" y="643" type="curve" smooth="yes"/>
      <point x="245" y="643"/>
      <point x="198" y="580"/>
    </contour>
    <contour>
      <point x="112" y="490" type="curve" smooth="yes"/>
      <point x="135" y="620"/>
      <point x="219" y="707"/>
      <point x="315" y="707" type="curve" smooth="yes"/>
      <point x="413" y="707"/>
      <point x="462" y="620"/>
      <point x="439" y="490" type="curve" smooth="yes"/>
      <point x="416" y="360"/>
      <point x="336" y="273"/>
      <point x="238" y="273" type="curve" smooth="yes"/>
      <point x="142" y="273"/>
      <point x="89" y="360"/>
    </contour>
  </outline>
</glyph>
<glyph name="uni2074" format="1">
  <advance width="402"/>
  <unicode hex="2074"/>
  <outline>
    <contour>
      <point x="87" y="360" type="line"/>
      <point x="156" y="416" type="line"/>
      <point x="339" y="416" type="line" smooth="yes"/>
      <point x="350" y="422" type="line" smooth="yes"/>
      <point x="444" y="422" type="line"/>
      <point x="433" y="360" type="line"/>
    </contour>
    <contour>
      <point x="164" y="372" type="line"/>
      <point x="87" y="360" type="line"/>
      <point x="385" y="700" type="line"/>
      <point x="427" y="700" type="line"/>
      <point x="353" y="280" type="line"/>
      <point x="281" y="280" type="line"/>
      <point x="299" y="382" type="line" smooth="yes"/>
      <point x="304" y="388" type="line" smooth="yes"/>
      <point x="337" y="574" type="line"/>
    </contour>
  </outline>
</glyph>
<glyph name="uni2079" format="1">
  <advance width="359"/>
  <unicode hex="2079"/>
  <outline>
    <contour>
      <point x="372" y="560" type="curve" smooth="yes"/>
      <point x="381" y="612"/>
      <point x="351" y="647"/>
      <point x="303" y="647" type="curve" smooth="yes"/>
      <point x="255" y="647"/>
      <point x="212" y="612"/>
      <point x="203" y="560" type="curve" smooth="yes"/>
      <point x="194" y="508"/>
      <point x="224" y="472"/>
      <point x="272" y="472" type="curve" smooth="yes"/>
      <point x="320" y="472"/>
      <point x="363" y="508"/>
    </contour>
    <contour>
      <point x="224" y="283" type="line"/>
      <point x="134" y="283" type="line"/>
      <point x="296" y="447" type="line"/>
      <point x="306" y="449" type="line"/>
      <point x="284" y="428"/>
      <point x="264" y="424"/>
      <point x="236" y="424" type="curve" smooth="yes"/>
      <point x="170" y="424"/>
      <point x="119" y="480"/>
      <point x="133" y="560" type="curve" smooth="yes"/>
      <point x="149" y="653"/>
      <point x="228" y="710"/>
      <point x="314" y="710" type="curve" smooth="yes"/>
      <point x="400" y="710"/>
      <point x="458" y="653"/>
      <point x="442" y="560" type="curve" smooth="yes"/>
      <point x="435" y="522"/>
      <point x="413" y="488"/>
      <point x="388" y="461" type="curve" smooth="yes"/>
    </contour>
  </outline>
</glyph>
<glyph name="uni2080" format="1">
  <advance width="379"/>
  <unicode hex="2080"/>
  <outline>
    <contour>
      <point x="133" y="210" type="curve" smooth="yes"/>
      <point x="117" y="120"/>
      <point x="142" y="57"/>
      <point x="200" y="57" type="curve" smooth="yes"/>
      <point x="258" y="57"/>
      <point x="305" y="120"/>
      <point x="321" y="210" type="curve" smooth="yes"/>
      <point x="337" y="300"/>
      <point x="312" y="363"/>
      <point x="254" y="363" type="curve" smooth="yes"/>
      <point x="196" y="363"/>
      <point x="149" y="300"/>
    </contour>
    <contour>
      <point x="63" y="210" type="curve" smooth="yes"/>
      <point x="86" y="340"/>
      <point x="169" y="427"/>
      <point x="265" y="427" type="curve" smooth="yes"/>
      <point x="363" y="427"/>
      <point x="413" y="340"/>
      <point x="390" y="210" type="curve" smooth="yes"/>
      <point x="367" y="80"/>
      <point x="287" y="-7"/>
      <point x="189" y="-7" type="curve" smooth="yes"/>
      <point x="93" y="-7"/>
      <point x="40" y="80"/>
    </contour>
  </outline>
</glyph>
<glyph name="uni2084" format="1">
  <advance width="404"/>
  <unicode hex="2084"/>
  <outline>
    <contour>
      <point x="38" y="80" type="line"/>
      <point x="106" y="136" type="line"/>
      <point x="290" y="136" type="line" smooth="yes"/>
      <point x="301" y="142" type="line" smooth="yes"/>
      <point x="395" y="142" type="line"/>
      <point x="384" y="80" type="line"/>
    </contour>
    <contour>
      <point x="113" y="92" type="line"/>
      <point x="38" y="80" type="line"/>
      <point x="335" y="420" type="line"/>
      <point x="378" y="420" type="line"/>
      <point x="304" y="0" type="line"/>
      <point x="231" y="0" type="line"/>
      <point x="249" y="102" type="line" smooth="yes"/>
      <point x="255" y="108" type="line" smooth="yes"/>
      <point x="288" y="294" type="line"/>
    </contour>
  </outline>
</glyph>
<glyph name="uni2086" format="1">
  <advance width="365"/>
  <unicode hex="2086"/>
  <outline>
    <contour>
      <point x="126" y="140" type="curve" smooth="yes"/>
      <point x="117" y="88"/>
      <point x="147" y="53"/>
      <point x="195" y="53" type="curve" smooth="yes"/>
      <point x="243" y="53"/>
      <point x="286" y="88"/>
      <point x="295" y="140" type="curve" smooth="yes"/>
      <point x="304" y="192"/>
      <point x="274" y="228"/>
      <point x="226" y="228" type="curve" smooth="yes"/>
      <point x="178" y="228"/>
      <point x="135" y="192"/>
    </contour>
    <contour>
      <point x="274" y="417" type="line"/>
      <point x="364" y="417" type="line"/>
      <point x="202" y="253" type="line"/>
      <point x="191" y="251" type="line"/>
      <point x="213" y="272"/>
      <point x="234" y="276"/>
      <point x="262" y="276" type="curve" smooth="yes"/>
      <point x="328" y="276"/>
      <point x="379" y="220"/>
      <point x="365" y="140" type="curve" smooth="yes"/>
      <point x="349" y="47"/>
      <point x="270" y="-10"/>
      <point x="184" y="-10" type="curve" smooth="yes"/>
      <point x="98" y="-10"/>
      <point x="40" y="47"/>
      <point x="56" y="140" type="curve" smooth="yes"/>
      <point x="63" y="178"/>
      <point x="84" y="212"/>
      <point x="109" y="239" type="curve" smooth="yes"/>
    </contour>
  </outline>
</glyph>
<glyph name="uni2088" format="1">
  <advance width="340"/>
  <unicode hex="2088"/>
  <outline>
    <contour>
      <point x="100" y="319" type="curve" smooth="yes"/>
      <point x="111" y="383"/>
      <point x="175" y="428"/>
      <point x="245" y="428" type="curve" smooth="yes"/>
      <point x="315" y="428"/>
      <point x="364" y="383"/>
      <point x="353" y="319" type="curve" smooth="yes"/>
      <point x="341" y="249"/>
      <point x="276" y="210"/>
      <point x="207" y="210" type="curve" smooth="yes"/>
      <point x="138" y="210"/>
      <point x="88" y="249"/>
    </contour>
    <contour>
      <point x="167" y="312" type="curve" smooth="yes"/>
      <point x="161" y="276"/>
      <point x="182" y="252"/>
      <point x="214" y="252" type="curve" smooth="yes"/>
      <point x="246" y="252"/>
      <point x="278" y="276"/>
      <point x="284" y="312" type="curve" smooth="yes"/>
      <point x="290" y="348"/>
      <point x="269" y="371"/>
      <point x="235" y="371" type="curve" smooth="yes"/>
      <point x="201" y="371"/>
      <point x="173" y="348"/>
    </contour>
    <contour>
      <point x="49" y="114" type="curve" smooth="yes"/>
      <point x="63" y="196"/>
      <point x="143" y="236"/>
      <point x="212" y="236" type="curve" smooth="yes"/>
      <point x="281" y="236"/>
      <point x="346" y="196"/>
      <point x="332" y="114" type="curve" smooth="yes"/>
      <point x="320" y="44"/>
      <point x="247" y="-8"/>
      <point x="169" y="-8" type="curve" smooth="yes"/>
      <point x="91" y="-8"/>
      <point x="37" y="44"/>
    </contour>
    <contour>
      <point x="121" y="124" type="curve" smooth="yes"/>
      <point x="113" y="78"/>
      <point x="141" y="52"/>
      <point x="179" y="52" type="curve" smooth="yes"/>
      <point x="217" y="52"/>
      <point x="256" y="78"/>
      <point x="264" y="124" type="curve" smooth="yes"/>
      <point x="271" y="164"/>
      <point x="242" y="194"/>
      <point x="204" y="194" type="curve" smooth="yes"/>
      <point x="166" y="194"/>
      <point x="128" y="164"/>
    </contour>
  </outline>
</glyph>
<glyph name="uni2089" format="1">
  <advance width="367"/>
  <unicode hex="2089"/>
  <outline>
    <contour>
      <point x="313" y="280" type="curve" smooth="yes"/>
      <point x="322" y="332"/>
      <point x="292" y="367"/>
      <point x="244" y="367" type="curve" smooth="yes"/>
      <point x="196" y="367"/>
      <point x="152" y="332"/>
      <point x="143" y="280" type="curve" smooth="yes"/>
      <point x="134" y="228"/>
      <point x="165" y="192"/>
      <point x="213" y="192" type="curve" smooth="yes"/>
      <point x="261" y="192"/>
      <point x="304" y="228"/>
    </contour>
    <contour>
      <point x="166" y="3" type="line"/>
      <point x="75" y="3" type="line"/>
      <point x="237" y="167" type="line"/>
      <point x="248" y="169" type="line"/>
      <point x="226" y="148"/>
      <point x="204" y="144"/>
      <point x="176" y="144" type="curve" smooth="yes"/>
      <point x="110" y="144"/>
      <point x="60" y="200"/>
      <point x="74" y="280" type="curve" smooth="yes"/>
      <point x="90" y="373"/>
      <point x="169" y="430"/>
      <point x="255" y="430" type="curve" smooth="yes"/>
      <point x="341" y="430"/>
      <point x="399" y="373"/>
      <point x="383" y="280" type="curve" smooth="yes"/>
      <point x="376" y="242"/>
      <point x="355" y="208"/>
      <point x="330" y="181" type="curve" smooth="yes"/>
    </contour>
  </outline>
</glyph>
<glyph name="uni2151" format="1">
  <advance width="824"/>
  <unicode hex="2151"/>
  <outline>
    <contour>
      <point x="703" y="700" type="line"/>
      <point x="791" y="700" type="line"/>
      <point x="148" y="0" type="line"/>
      <point x="60" y="0" type="line"/>
    </contour>
    <contour>
      <point x="133" y="596" type="line"/>
      <point x="145" y="663" type="line"/>
      <point x="319" y="701" type="line"/>
      <point x="243" y="274" type="line"/>
      <point x="173" y="274" type="line"/>
      <point x="235" y="623" type="line"/>
    </contour>
    <contour>
      <point x="783" y="280" type="curve" smooth="yes"/>
      <point x="792" y="332"/>
      <point x="763" y="367"/>
      <point x="715" y="367" type="curve" smooth="yes"/>
      <point x="667" y="367"/>
      <point x="623" y="332"/>
      <point x="614" y="280" type="curve" smooth="yes"/>
      <point x="605" y="228"/>
      <point x="636" y="192"/>
      <point x="684" y="192" type="curve" smooth="yes"/>
      <point x="732" y="192"/>
      <point x="774" y="228"/>
    </contour>
    <contour>
      <point x="637" y="3" type="line"/>
      <point x="546" y="3" type="line"/>
      <point x="707" y="167" type="line"/>
      <point x="718" y="169" type="line"/>
      <point x="696" y="148"/>
      <point x="675" y="144"/>
      <point x="647" y="144" type="curve" smooth="yes"/>
      <point x="581" y="144"/>
      <point x="531" y="200"/>
      <point x="545" y="280" type="curve" smooth="yes"/>
      <point x="561" y="373"/>
      <point x="640" y="430"/>
      <point x="726" y="430" type="curve" smooth="yes"/>
      <point x="812" y="430"/>
      <point x="869" y="373"/>
      <point x="853" y="280" type="curve" smooth="yes"/>
      <point x="846" y="242"/>
      <point x="825" y="208"/>
      <point x="800" y="181" type="curve" smooth="yes"/>
    </contour>
  </outline>
</glyph>
<glyph name="onethird" format="1">
  <advance width="802"/>
  <unicode hex="2153"/>
  <outline>
    <contour>
      <point x="703" y="700" type="line"/>
      <point x="791" y="700" type="line"/>
      <point x="148" y="0" type="line"/>
      <point x="60" y="0" type="line"/>
    </contour>
    <contour>
      <point x="133" y="596" type="line"/>
      <point x="145" y="663" type="line"/>
      <point x="319" y="701" type="line"/>
      <point x="243" y="274" type="line"/>
      <point x="173" y="274" type="line"/>
      <point x="235" y="623" type="line"/>
    </contour>
    <contour>
      <point x="647" y="206" type="curve"/>
      <point x="654" y="244" type="line"/>
      <point x="705" y="244"/>
      <point x="742" y="274"/>
      <point x="748" y="310" type="curve" smooth="yes"/>
      <point x="754" y="344"/>
      <point x="739" y="367"/>
      <point x="701" y="367" type="curve" smooth="yes"/>
      <point x="665" y="367"/>
      <point x="632" y="342"/>
      <point x="626" y="308" type="curve"/>
      <point x="559" y="308" type="line"/>
      <point x="571" y="377"/>
      <point x="634" y="427"/>
      <point x="711" y="427" type="curve" smooth="yes"/>
      <point x="792" y="427"/>
      <point x="830" y="374"/>
      <point x="819" y="313" type="curve" smooth="yes"/>
      <point x="808" y="249"/>
      <point x="735" y="206"/>
    </contour>
    <contour>
      <point x="631" y="-8" type="curve" smooth="yes"/>
      <point x="542" y="-8"/>
      <point x="496" y="51"/>
      <point x="508" y="120" type="curve"/>
      <point x="579" y="120" type="line"/>
      <point x="572" y="79"/>
      <point x="601" y="54"/>
      <point x="644" y="54" type="curve" smooth="yes"/>
      <point x="687" y="54"/>
      <point x="719" y="78"/>
      <point x="726" y="120" type="curve" smooth="yes"/>
      <point x="734" y="165"/>
      <point x="702" y="190"/>
      <point x="645" y="190" type="curve"/>
      <point x="652" y="231" type="line"/>
      <point x="745" y="231"/>
      <point x="811" y="196"/>
      <point x="796" y="112" type="curve" smooth="yes"/>
      <point x="783" y="40"/>
      <point x="717" y="-8"/>
    </contour>
  </outline>
</glyph>
<glyph name="uni2155" format="1">
  <advance width="791"/>
  <unicode hex="2155"/>
  <outline>
    <contour>
      <point x="703" y="700" type="line"/>
      <point x="791" y="700" type="line"/>
      <point x="148" y="0" type="line"/>
      <point x="60" y="0" type="line"/>
    </contour>
    <contour>
      <point x="133" y="596" type="line"/>
      <point x="145" y="663" type="line"/>
      <point x="319" y="701" type="line"/>
      <point x="243" y="274" type="line"/>
      <point x="173" y="274" type="line"/>
      <point x="235" y="623" type="line"/>
    </contour>
    <contour>
      <point x="788" y="134" type="curve" smooth="yes"/>
      <point x="771" y="38"/>
      <point x="687" y="-9"/>
      <point x="606" y="-9" type="curve" smooth="yes"/>
      <point x="529" y="-9"/>
      <point x="489" y="26"/>
      <point x="464" y="66" type="curve"/>
      <point x="514" y="118" type="line"/>
      <point x="533" y="85"/>
      <point x="569" y="57"/>
      <point x="609" y="57" type="curve" smooth="yes"/>
      <point x="665" y="57"/>
      <point x="704" y="88"/>
      <point x="713" y="139" type="curve" smooth="yes"/>
      <point x="722" y="190"/>
      <point x="687" y="220"/>
      <point x="638" y="220" type="curve" smooth="yes"/>
      <point x="601" y="220"/>
      <point x="569" y="212"/>
      <point x="521" y="186" type="curve"/>
      <point x="575" y="231" type="line"/>
      <point x="611" y="263"/>
      <point x="648" y="275"/>
      <point x="686" y="275" type="curve" smooth="yes"/>
      <point x="756" y="275"/>
      <point x="803" y="218"/>
    </contour>
    <contour>
      <point x="661" y="356" type="line"/>
      <point x="607" y="239" type="line"/>
      <point x="521" y="186" type="line"/>
      <point x="618" y="418" type="line"/>
      <point x="834" y="418" type="line"/>
      <point x="823" y="356" type="line"/>
    </contour>
  </outline>
</glyph>
<glyph name="uni2156" format="1">
  <advance width="924"/>
  <unicode hex="2156"/>
  <outline>
    <contour>
      <point x="838" y="700" type="line"/>
      <point x="925" y="700" type="line"/>
      <point x="282" y="0" type="line"/>
      <point x="195" y="0" type="line"/>
    </contour>
    <contour>
      <point x="80" y="282" type="line"/>
      <point x="310" y="487" type="line" smooth="yes"/>
      <point x="346" y="519"/>
      <point x="368" y="546"/>
      <point x="374" y="580" type="curve" smooth="yes"/>
      <point x="380" y="613"/>
      <point x="364" y="646"/>
      <point x="318" y="646" type="curve" smooth="yes"/>
      <point x="270" y="646"/>
      <point x="231" y="610"/>
      <point x="221" y="554" type="curve"/>
      <point x="150" y="554" type="line"/>
      <point x="166" y="643"/>
      <point x="234" y="710"/>
      <point x="330" y="710" type="curve" smooth="yes"/>
      <point x="427" y="710"/>
      <point x="458" y="639"/>
      <point x="447" y="579" type="curve" smooth="yes"/>
      <point x="439" y="535"/>
      <point x="409" y="497"/>
      <point x="369" y="464" type="curve" smooth="yes"/>
      <point x="229" y="348" type="line"/>
      <point x="411" y="348" type="line"/>
      <point x="400" y="282" type="line"/>
    </contour>
    <contour>
      <point x="918" y="134" type="curve" smooth="yes"/>
      <point x="901" y="38"/>
      <point x="817" y="-9"/>
      <point x="736" y="-9" type="curve" smooth="yes"/>
      <point x="659" y="-9"/>
      <point x="618" y="26"/>
      <point x="593" y="66" type="curve"/>
      <point x="644" y="118" type="line"/>
      <point x="663" y="85"/>
      <point x="699" y="57"/>
      <point x="739" y="57" type="curve" smooth="yes"/>
      <point x="795" y="57"/>
      <point x="834" y="88"/>
      <point x="843" y="139" type="curve" smooth="yes"/>
      <point x="852" y="190"/>
      <point x="817" y="220"/>
      <point x="768" y="220" type="curve" smooth="yes"/>
      <point x="731" y="220"/>
      <point x="699" y="212"/>
      <point x="651" y="186" type="curve"/>
      <point x="705" y="231" type="line"/>
      <point x="741" y="263"/>
      <point x="778" y="275"/>
      <point x="816" y="275" type="curve" smooth="yes"/>
      <point x="886" y="275"/>
      <point x="933" y="218"/>
    </contour>
    <contour>
      <point x="790" y="356" type="line"/>
      <point x="736" y="239" type="line"/>
      <point x="651" y="186" type="line"/>
      <point x="748" y="418" type="line"/>
      <point x="964" y="418" type="line"/>
      <point x="953" y="356" type="line"/>
    </contour>
  </outline>
</glyph>
<glyph name="uni2157" format="1">
  <advance width="871"/>
  <unicode hex="2157"/>
  <outline>
    <contour>
      <point x="785" y="700" type="line"/>
      <point x="873" y="700" type="line"/>
      <point x="230" y="0" type="line"/>
      <point x="142" y="0" type="line"/>
    </contour>
    <contour>
      <point x="237" y="486" type="curve"/>
      <point x="243" y="524" type="line"/>
      <point x="294" y="524"/>
      <point x="331" y="554"/>
      <point x="337" y="590" type="curve" smooth="yes"/>
      <point x="343" y="624"/>
      <point x="328" y="647"/>
      <point x="290" y="647" type="curve" smooth="yes"/>
      <point x="254" y="647"/>
      <point x="222" y="622"/>
      <point x="216" y="588" type="curve"/>
      <point x="149" y="588" type="line"/>
      <point x="161" y="657"/>
      <point x="224" y="707"/>
      <point x="301" y="707" type="curve" smooth="yes"/>
      <point x="382" y="707"/>
      <point x="421" y="654"/>
      <point x="410" y="593" type="curve" smooth="yes"/>
      <point x="399" y="529"/>
      <point x="325" y="486"/>
    </contour>
    <contour>
      <point x="220" y="272" type="curve" smooth="yes"/>
      <point x="131" y="272"/>
      <point x="86" y="331"/>
      <point x="98" y="400" type="curve"/>
      <point x="169" y="400" type="line"/>
      <point x="162" y="359"/>
      <point x="190" y="334"/>
      <point x="233" y="334" type="curve" smooth="yes"/>
      <point x="276" y="334"/>
      <point x="309" y="358"/>
      <point x="316" y="400" type="curve" smooth="yes"/>
      <point x="324" y="445"/>
      <point x="291" y="470"/>
      <point x="234" y="470" type="curve"/>
      <point x="241" y="511" type="line"/>
      <point x="334" y="511"/>
      <point x="401" y="476"/>
      <point x="386" y="392" type="curve" smooth="yes"/>
      <point x="373" y="320"/>
      <point x="306" y="272"/>
    </contour>
    <contour>
      <point x="863" y="134" type="curve" smooth="yes"/>
      <point x="846" y="38"/>
      <point x="762" y="-9"/>
      <point x="681" y="-9" type="curve" smooth="yes"/>
      <point x="604" y="-9"/>
      <point x="563" y="26"/>
      <point x="538" y="66" type="curve"/>
      <point x="589" y="118" type="line"/>
      <point x="608" y="85"/>
      <point x="644" y="57"/>
      <point x="684" y="57" type="curve" smooth="yes"/>
      <point x="740" y="57"/>
      <point x="779" y="88"/>
      <point x="788" y="139" type="curve" smooth="yes"/>
      <point x="797" y="190"/>
      <point x="762" y="220"/>
      <point x="713" y="220" type="curve" smooth="yes"/>
      <point x="676" y="220"/>
      <point x="643" y="212"/>
      <point x="595" y="186" type="curve"/>
      <point x="650" y="231" type="line"/>
      <point x="686" y="263"/>
      <point x="723" y="275"/>
      <point x="761" y="275" type="curve" smooth="yes"/>
      <point x="831" y="275"/>
      <point x="878" y="218"/>
    </contour>
    <contour>
      <point x="735" y="356" type="line"/>
      <point x="682" y="239" type="line"/>
      <point x="595" y="186" type="line"/>
      <point x="693" y="418" type="line"/>
      <point x="909" y="418" type="line"/>
      <point x="898" y="356" type="line"/>
    </contour>
  </outline>
</glyph>
<glyph name="uni2159" format="1">
  <advance width="789"/>
  <unicode hex="2159"/>
  <outline>
    <contour>
      <point x="711" y="700" type="line"/>
      <point x="799" y="700" type="line"/>
      <point x="156" y="0" type="line"/>
      <point x="68" y="0" type="line"/>
    </contour>
    <contour>
      <point x="133" y="596" type="line"/>
      <point x="145" y="663" type="line"/>
      <point x="319" y="701" type="line"/>
      <point x="243" y="274" type="line"/>
      <point x="173" y="274" type="line"/>
      <point x="235" y="623" type="line"/>
    </contour>
    <contour>
      <point x="549" y="140" type="curve" smooth="yes"/>
      <point x="540" y="88"/>
      <point x="570" y="53"/>
      <point x="618" y="53" type="curve" smooth="yes"/>
      <point x="666" y="53"/>
      <point x="710" y="88"/>
      <point x="719" y="140" type="curve" smooth="yes"/>
      <point x="728" y="192"/>
      <point x="697" y="228"/>
      <point x="649" y="228" type="curve" smooth="yes"/>
      <point x="601" y="228"/>
      <point x="558" y="192"/>
    </contour>
    <contour>
      <point x="698" y="417" type="line"/>
      <point x="788" y="417" type="line"/>
      <point x="626" y="253" type="line"/>
      <point x="615" y="251" type="line"/>
      <point x="637" y="272"/>
      <point x="658" y="276"/>
      <point x="686" y="276" type="curve" smooth="yes"/>
      <point x="752" y="276"/>
      <point x="803" y="220"/>
      <point x="789" y="140" type="curve" smooth="yes"/>
      <point x="773" y="47"/>
      <point x="693" y="-10"/>
      <point x="607" y="-10" type="curve" smooth="yes"/>
      <point x="521" y="-10"/>
      <point x="464" y="47"/>
      <point x="480" y="140" type="curve" smooth="yes"/>
      <point x="487" y="178"/>
      <point x="508" y="212"/>
      <point x="533" y="239" type="curve" smooth="yes"/>
    </contour>
  </outline>
</glyph>
<glyph name="oneeighth" format="1">
  <advance width="812"/>
  <unicode hex="215B"/>
  <outline>
    <contour>
      <point x="711" y="700" type="line"/>
      <point x="799" y="700" type="line"/>
      <point x="156" y="0" type="line"/>
      <point x="68" y="0" type="line"/>
    </contour>
    <contour>
      <point x="133" y="596" type="line"/>
      <point x="145" y="663" type="line"/>
      <point x="319" y="701" type="line"/>
      <point x="243" y="274" type="line"/>
      <point x="173" y="274" type="line"/>
      <point x="235" y="623" type="line"/>
    </contour>
    <contour>
      <point x="570" y="319" type="curve" smooth="yes"/>
      <point x="581" y="383"/>
      <point x="646" y="428"/>
      <point x="716" y="428" type="curve" smooth="yes"/>
      <point x="786" y="428"/>
      <point x="834" y="383"/>
      <point x="823" y="319" type="curve" smooth="yes"/>
      <point x="811" y="249"/>
      <point x="747" y="210"/>
      <point x="678" y="210" type="curve" smooth="yes"/>
      <point x="609" y="210"/>
      <point x="558" y="249"/>
    </contour>
    <contour>
      <point x="637" y="312" type="curve" smooth="yes"/>
      <point x="631" y="276"/>
      <point x="653" y="252"/>
      <point x="685" y="252" type="curve" smooth="yes"/>
      <point x="717" y="252"/>
      <point x="749" y="276"/>
      <point x="755" y="312" type="curve" smooth="yes"/>
      <point x="761" y="348"/>
      <point x="740" y="371"/>
      <point x="706" y="371" type="curve" smooth="yes"/>
      <point x="672" y="371"/>
      <point x="643" y="348"/>
    </contour>
    <contour>
      <point x="519" y="114" type="curve" smooth="yes"/>
      <point x="533" y="196"/>
      <point x="614" y="236"/>
      <point x="683" y="236" type="curve" smooth="yes"/>
      <point x="752" y="236"/>
      <point x="816" y="196"/>
      <point x="802" y="114" type="curve" smooth="yes"/>
      <point x="790" y="44"/>
      <point x="718" y="-8"/>
      <point x="640" y="-8" type="curve" smooth="yes"/>
      <point x="562" y="-8"/>
      <point x="507" y="44"/>
    </contour>
    <contour>
      <point x="591" y="124" type="curve" smooth="yes"/>
      <point x="583" y="78"/>
      <point x="612" y="52"/>
      <point x="650" y="52" type="curve" smooth="yes"/>
      <point x="688" y="52"/>
      <point x="726" y="78"/>
      <point x="734" y="124" type="curve" smooth="yes"/>
      <point x="741" y="164"/>
      <point x="713" y="194"/>
      <point x="675" y="194" type="curve" smooth="yes"/>
      <point x="637" y="194"/>
      <point x="598" y="164"/>
    </contour>
  </outline>
</glyph>
<glyph name="threeeighths" format="1">
  <advance width="889"/>
  <unicode hex="215C"/>
  <outline>
    <contour>
      <point x="788" y="700" type="line"/>
      <point x="875" y="700" type="line"/>
      <point x="232" y="0" type="line"/>
      <point x="145" y="0" type="line"/>
    </contour>
    <contour>
      <point x="237" y="486" type="curve"/>
      <point x="243" y="524" type="line"/>
      <point x="294" y="524"/>
      <point x="331" y="554"/>
      <point x="337" y="590" type="curve" smooth="yes"/>
      <point x="343" y="624"/>
      <point x="328" y="647"/>
      <point x="290" y="647" type="curve" smooth="yes"/>
      <point x="254" y="647"/>
      <point x="222" y="622"/>
      <point x="216" y="588" type="curve"/>
      <point x="149" y="588" type="line"/>
      <point x="161" y="657"/>
      <point x="224" y="707"/>
      <point x="301" y="707" type="curve" smooth="yes"/>
      <point x="382" y="707"/>
      <point x="421" y="654"/>
      <point x="410" y="593" type="curve" smooth="yes"/>
      <point x="399" y="529"/>
      <point x="325" y="486"/>
    </contour>
    <contour>
      <point x="220" y="272" type="curve" smooth="yes"/>
      <point x="131" y="272"/>
      <point x="86" y="331"/>
      <point x="98" y="400" type="curve"/>
      <point x="169" y="400" type="line"/>
      <point x="162" y="359"/>
      <point x="190" y="334"/>
      <point x="233" y="334" type="curve" smooth="yes"/>
      <point x="276" y="334"/>
      <point x="309" y="358"/>
      <point x="316" y="400" type="curve" smooth="yes"/>
      <point x="324" y="445"/>
      <point x="291" y="470"/>
      <point x="234" y="470" type="curve"/>
      <point x="241" y="511" type="line"/>
      <point x="334" y="511"/>
      <point x="401" y="476"/>
      <point x="386" y="392" type="curve" smooth="yes"/>
      <point x="373" y="320"/>
      <point x="306" y="272"/>
    </contour>
    <contour>
      <point x="647" y="319" type="curve" smooth="yes"/>
      <point x="658" y="383"/>
      <point x="723" y="428"/>
      <point x="793" y="428" type="curve" smooth="yes"/>
      <point x="863" y="428"/>
      <point x="911" y="383"/>
      <point x="900" y="319" type="curve" smooth="yes"/>
      <point x="888" y="249"/>
      <point x="824" y="210"/>
      <point x="755" y="210" type="curve" smooth="yes"/>
      <point x="686" y="210"/>
      <point x="635" y="249"/>
    </contour>
    <contour>
      <point x="714" y="312" type="curve" smooth="yes"/>
      <point x="708" y="276"/>
      <point x="730" y="252"/>
      <point x="762" y="252" type="curve" smooth="yes"/>
      <point x="794" y="252"/>
      <point x="825" y="276"/>
      <point x="831" y="312" type="curve" smooth="yes"/>
      <point x="837" y="348"/>
      <point x="817" y="371"/>
      <point x="783" y="371" type="curve" smooth="yes"/>
      <point x="749" y="371"/>
      <point x="720" y="348"/>
    </contour>
    <contour>
      <point x="596" y="114" type="curve" smooth="yes"/>
      <point x="610" y="196"/>
      <point x="691" y="236"/>
      <point x="760" y="236" type="curve" smooth="yes"/>
      <point x="829" y="236"/>
      <point x="893" y="196"/>
      <point x="879" y="114" type="curve" smooth="yes"/>
      <point x="867" y="44"/>
      <point x="795" y="-8"/>
      <point x="717" y="-8" type="curve" smooth="yes"/>
      <point x="639" y="-8"/>
      <point x="584" y="44"/>
    </contour>
    <contour>
      <point x="668" y="124" type="curve" smooth="yes"/>
      <point x="660" y="78"/>
      <point x="689" y="52"/>
      <point x="727" y="52" type="curve" smooth="yes"/>
      <point x="765" y="52"/>
      <point x="803" y="78"/>
      <point x="811" y="124" type="curve" smooth="yes"/>
      <point x="818" y="164"/>
      <point x="790" y="194"/>
      <point x="752" y="194" type="curve" smooth="yes"/>
      <point x="714" y="194"/>
      <point x="675" y="164"/>
    </contour>
  </outline>
</glyph>
<glyph name="fiveeighths" format="1">
  <advance width="917"/>
  <unicode hex="215D"/>
  <outline>
    <contour>
      <point x="815" y="700" type="line"/>
      <point x="903" y="700" type="line"/>
      <point x="260" y="0" type="line"/>
      <point x="172" y="0" type="line"/>
    </contour>
    <contour>
      <point x="413" y="414" type="curve" smooth="yes"/>
      <point x="396" y="318"/>
      <point x="313" y="271"/>
      <point x="232" y="271" type="curve" smooth="yes"/>
      <point x="155" y="271"/>
      <point x="114" y="306"/>
      <point x="89" y="346" type="curve"/>
      <point x="139" y="398" type="line"/>
      <point x="158" y="365"/>
      <point x="194" y="337"/>
      <point x="234" y="337" type="curve" smooth="yes"/>
      <point x="290" y="337"/>
      <point x="329" y="368"/>
      <point x="338" y="419" type="curve" smooth="yes"/>
      <point x="347" y="470"/>
      <point x="312" y="500"/>
      <point x="263" y="500" type="curve" smooth="yes"/>
      <point x="226" y="500"/>
      <point x="194" y="492"/>
      <point x="146" y="466" type="curve"/>
      <point x="200" y="511" type="line"/>
      <point x="236" y="543"/>
      <point x="274" y="555"/>
      <point x="312" y="555" type="curve" smooth="yes"/>
      <point x="382" y="555"/>
      <point x="428" y="498"/>
    </contour>
    <contour>
      <point x="285" y="636" type="line"/>
      <point x="233" y="519" type="line"/>
      <point x="146" y="466" type="line"/>
      <point x="243" y="698" type="line"/>
      <point x="459" y="698" type="line"/>
      <point x="448" y="636" type="line"/>
    </contour>
    <contour>
      <point x="675" y="319" type="curve" smooth="yes"/>
      <point x="686" y="383"/>
      <point x="750" y="428"/>
      <point x="820" y="428" type="curve" smooth="yes"/>
      <point x="890" y="428"/>
      <point x="939" y="383"/>
      <point x="928" y="319" type="curve" smooth="yes"/>
      <point x="916" y="249"/>
      <point x="851" y="210"/>
      <point x="782" y="210" type="curve" smooth="yes"/>
      <point x="713" y="210"/>
      <point x="663" y="249"/>
    </contour>
    <contour>
      <point x="741" y="312" type="curve" smooth="yes"/>
      <point x="735" y="276"/>
      <point x="757" y="252"/>
      <point x="789" y="252" type="curve" smooth="yes"/>
      <point x="821" y="252"/>
      <point x="853" y="276"/>
      <point x="859" y="312" type="curve" smooth="yes"/>
      <point x="865" y="348"/>
      <point x="844" y="371"/>
      <point x="810" y="371" type="curve" smooth="yes"/>
      <point x="776" y="371"/>
      <point x="747" y="348"/>
    </contour>
    <contour>
      <point x="624" y="114" type="curve" smooth="yes"/>
      <point x="638" y="196"/>
      <point x="718" y="236"/>
      <point x="787" y="236" type="curve" smooth="yes"/>
      <point x="856" y="236"/>
      <point x="921" y="196"/>
      <point x="907" y="114" type="curve" smooth="yes"/>
      <point x="895" y="44"/>
      <point x="822" y="-8"/>
      <point x="744" y="-8" type="curve" smooth="yes"/>
      <point x="666" y="-8"/>
      <point x="612" y="44"/>
    </contour>
    <contour>
      <point x="696" y="124" type="curve" smooth="yes"/>
      <point x="688" y="78"/>
      <point x="716" y="52"/>
      <point x="754" y="52" type="curve" smooth="yes"/>
      <point x="792" y="52"/>
      <point x="831" y="78"/>
      <point x="839" y="124" type="curve" smooth="yes"/>
      <point x="846" y="164"/>
      <point x="817" y="194"/>
      <point x="779" y="194" type="curve" smooth="yes"/>
      <point x="741" y="194"/>
      <point x="703" y="164"/>
    </contour>
  </outline>
</glyph>
<glyph name="minus" format="1">
  <advance width="591"/>
  <unicode hex="2212"/>
  <outline>
    <contour>
      <point x="98" y="189" type="line"/>
      <point x="115" y="286" type="line"/>
      <point x="576" y="286" type="line"/>
      <point x="559" y="189" type="line"/>
    </contour>
  </outline>
</glyph>
<glyph name="uniFF14" format="1">
  <advance width="600"/>
  <unicode hex="FF14"/>
  <outline>
    <contour>
      <point x="40" y="134" type="line"/>
      <point x="153" y="228" type="line"/>
      <point x="446" y="228" type="line" smooth="yes"/>
      <point x="465" y="236" type="line" smooth="yes"/>
      <point x="617" y="236" type="line"/>
      <point x="599" y="134" type="line"/>
    </contour>
    <contour>
      <point x="160" y="154" type="line"/>
      <point x="40" y="134" type="line"/>
      <point x="521" y="700" type="line"/>
      <point x="593" y="700" type="line"/>
      <point x="470" y="0" type="line"/>
      <point x="348" y="0" type="line"/>
      <point x="378" y="170" type="line" smooth="yes"/>
      <point x="388" y="181" type="line" smooth="yes"/>
      <point x="442" y="488" type="line"/>
    </contour>
  </outline>
</glyph>
<glyph name="uniFF15" format="1">
  <advance width="600"/>
  <unicode hex="FF15"/>
  <outline>
    <contour>
      <point x="596" y="228" type="curve" smooth="yes"/>
      <point x="567" y="66"/>
      <point x="429" y="-11"/>
      <point x="294" y="-11" type="curve" smooth="yes"/>
      <point x="165" y="-11"/>
      <point x="96" y="45"/>
      <point x="54" y="113" type="curve"/>
      <point x="139" y="198" type="line"/>
      <point x="170" y="143"/>
      <point x="230" y="99"/>
      <point x="297" y="99" type="curve" smooth="yes"/>
      <point x="391" y="99"/>
      <point x="455" y="150"/>
      <point x="470" y="235" type="curve" smooth="yes"/>
      <point x="485" y="320"/>
      <point x="426" y="370"/>
      <point x="345" y="370" type="curve" smooth="yes"/>
      <point x="283" y="370"/>
      <point x="228" y="358"/>
      <point x="149" y="314" type="curve"/>
      <point x="240" y="388" type="line"/>
      <point x="297" y="440"/>
      <point x="362" y="461"/>
      <point x="426" y="461" type="curve" smooth="yes"/>
      <point x="542" y="461"/>
      <point x="621" y="370"/>
    </contour>
    <contour>
      <point x="383" y="596" type="line"/>
      <point x="294" y="402" type="line"/>
      <point x="149" y="314" type="line"/>
      <point x="311" y="700" type="line"/>
      <point x="671" y="700" type="line"/>
      <point x="653" y="596" type="line"/>
    </contour>
  </outline>
</glyph>
<glyph name="uniFF18" format="1">
  <advance width="600"/>
  <unicode hex="FF18"/>
  <outline>
    <contour>
      <point x="188" y="531" type="curve" smooth="yes"/>
      <point x="207" y="637"/>
      <point x="313" y="712"/>
      <point x="431" y="712" type="curve" smooth="yes"/>
      <point x="549" y="712"/>
      <point x="629" y="637"/>
      <point x="610" y="531" type="curve" smooth="yes"/>
      <point x="590" y="415"/>
      <point x="482" y="350"/>
      <point x="367" y="350" type="curve" smooth="yes"/>
      <point x="252" y="350"/>
      <point x="168" y="415"/>
    </contour>
    <contour>
      <point x="298" y="518" type="curve" smooth="yes"/>
      <point x="288" y="460"/>
      <point x="325" y="420"/>
      <point x="379" y="420" type="curve" smooth="yes"/>
      <point x="433" y="420"/>
      <point x="484" y="460"/>
      <point x="494" y="518" type="curve" smooth="yes"/>
      <point x="504" y="576"/>
      <point x="472" y="619"/>
      <point x="414" y="619" type="curve" smooth="yes"/>
      <point x="356" y="619"/>
      <point x="308" y="576"/>
    </contour>
    <contour>
      <point x="104" y="190" type="curve" smooth="yes"/>
      <point x="128" y="326"/>
      <point x="259" y="392"/>
      <point x="374" y="392" type="curve" smooth="yes"/>
      <point x="489" y="392"/>
      <point x="598" y="326"/>
      <point x="574" y="190" type="curve" smooth="yes"/>
      <point x="554" y="74"/>
      <point x="433" y="-12"/>
      <point x="303" y="-12" type="curve" smooth="yes"/>
      <point x="173" y="-12"/>
      <point x="84" y="74"/>
    </contour>
    <contour>
      <point x="222" y="206" type="curve" smooth="yes"/>
      <point x="209" y="130"/>
      <point x="259" y="88"/>
      <point x="321" y="88" type="curve" smooth="yes"/>
      <point x="383" y="88"/>
      <point x="447" y="130"/>
      <point x="460" y="206" type="curve" smooth="yes"/>
      <point x="472" y="272"/>
      <point x="424" y="324"/>
      <point x="362" y="324" type="curve" smooth="yes"/>
      <point x="300" y="324"/>
      <point x="234" y="272"/>
    </contour>
  </outline>
</glyph>
<glyph name="aring.alt" format="1">
  <advance width="508"/>
  <outline>
    <contour>
      <point x="161" y="136" type="curve" smooth="yes"/>
      <point x="153" y="93"/>
      <point x="181" y="72"/>
      <point x="235" y="72" type="curve" smooth="yes"/>
      <point x="305" y="72"/>
      <point x="363" y="101"/>
      <point x="377" y="182" type="curve"/>
      <point x="384" y="130" type="line"/>
      <point x="368" y="41"/>
      <point x="282" y="-10"/>
      <point x="187" y="-10" type="curve" smooth="yes"/>
      <point x="89" y="-10"/>
      <point x="35" y="41"/>
      <point x="50" y="126" type="curve" smooth="yes"/>
      <point x="68" y="228"/>
      <point x="161" y="283"/>
      <point x="275" y="283" type="curve" smooth="yes"/>
      <point x="355" y="283"/>
      <point x="405" y="246"/>
      <point x="418" y="227" type="curve"/>
      <point x="408" y="170" type="line"/>
      <point x="372" y="200"/>
      <point x="335" y="214"/>
      <point x="279" y="214" type="curve" smooth="yes"/>
      <point x="210" y="214"/>
      <point x="169" y="184"/>
    </contour>
    <contour>
      <point x="174" y="338" type="curve"/>
      <point x="143" y="416" type="line"/>
      <point x="189" y="441"/>
      <point x="259" y="471"/>
      <point x="342" y="471" type="curve" smooth="yes"/>
      <point x="454" y="471"/>
      <point x="525" y="420"/>
      <point x="509" y="328" type="curve" smooth="yes"/>
      <point x="451" y="0" type="line"/>
      <point x="345" y="0" type="line"/>
      <point x="401" y="316" type="line" smooth="yes"/>
      <point x="409" y="359"/>
      <point x="372" y="383"/>
      <point x="322" y="383" type="curve" smooth="yes"/>
      <point x="256" y="383"/>
      <point x="199" y="353"/>
    </contour>
    <contour>
      <point x="260" y="638" type="curve" smooth="yes"/>
      <point x="271" y="702"/>
      <point x="331" y="744"/>
      <point x="390" y="744" type="curve" smooth="yes"/>
      <point x="449" y="744"/>
      <point x="493" y="702"/>
      <point x="482" y="638" type="curve" smooth="yes"/>
      <point x="471" y="574"/>
      <point x="412" y="531"/>
      <point x="353" y="531" type="curve" smooth="yes"/>
      <point x="294" y="531"/>
      <point x="249" y="574"/>
    </contour>
    <contour>
      <point x="322" y="638" type="curve" smooth="yes"/>
      <point x="316" y="606"/>
      <point x="338" y="587"/>
      <point x="363" y="587" type="curve" smooth="yes"/>
      <point x="388" y="587"/>
      <point x="414" y="606"/>
      <point x="420" y="638" type="curve" smooth="yes"/>
      <point x="426" y="670"/>
      <point x="405" y="688"/>
      <point x="380" y="688" type="curve" smooth="yes"/>
      <point x="355" y="688"/>
      <point x="328" y="670"/>
    </contour>
  </outline>
</glyph>
